<svg width="18" height="19" viewBox="0 0 18 19" fill="none" xmlns="http://www.w3.org/2000/svg">
<path d="M9.35571 1.91516L10.1198 2.97794C10.472 3.46779 11.112 3.65572 11.6731 3.43403L12.8905 2.95307C13.1696 2.8428 13.4746 3.03881 13.4903 3.33851L13.5585 4.64566C13.5899 5.24817 14.0267 5.75225 14.6186 5.86917L15.9028 6.1227C16.1972 6.18083 16.3478 6.51062 16.1989 6.77118L15.5496 7.90773C15.2503 8.43157 15.3453 9.09182 15.78 9.51013L16.7232 10.4177C16.9395 10.6258 16.8879 10.9846 16.6218 11.1234L15.4611 11.7284C14.926 12.0073 14.649 12.6141 14.7885 13.201L15.0914 14.4745C15.1608 14.7664 14.9234 15.0404 14.6245 15.0133L13.3209 14.8948C12.7201 14.8401 12.159 15.2008 11.959 15.77L11.5253 17.005C11.4259 17.2881 11.078 17.3903 10.8413 17.2058L9.80869 16.4014C9.33279 16.0306 8.66574 16.0306 8.18983 16.4014L7.15725 17.2058C6.92053 17.3903 6.57264 17.2881 6.4732 17.005L6.03949 15.77C5.83956 15.2008 5.27844 14.8401 4.67759 14.8948L3.37402 15.0133C3.07516 15.0404 2.83774 14.7664 2.90716 14.4745L3.20998 13.201C3.34955 12.6141 3.07246 12.0073 2.53746 11.7284L1.37676 11.1234C1.11066 10.9846 1.05906 10.6258 1.2753 10.4177L2.21852 9.51013C2.65327 9.09182 2.7482 8.43157 2.44891 7.90773L1.7996 6.77118C1.65073 6.51062 1.80134 6.18083 2.09575 6.1227L3.3799 5.86917C3.9718 5.75225 4.4086 5.24817 4.44004 4.64566L4.50826 3.33851C4.52389 3.03881 4.82893 2.8428 5.10801 2.95307L6.32538 3.43403C6.8865 3.65572 7.52651 3.46779 7.8787 2.97794L8.64282 1.91516C8.81799 1.67151 9.18054 1.67151 9.35571 1.91516Z" stroke="#1D1E22" stroke-width="0.878049"/>
<path d="M11.7072 7.68945L7.6828 11.7139L5.85352 9.88458" stroke="#1D1E22" stroke-width="1.09756" stroke-linecap="round" stroke-linejoin="round"/>
</svg>
