<svg width="679" height="346" viewBox="0 0 679 346" fill="none" xmlns="http://www.w3.org/2000/svg">
<rect width="679" height="346" rx="12" fill="#BBBBBB"/>
<path d="M277.792 164.878L270.167 183.68H267.412L259.787 164.878H262.229C262.498 164.878 262.716 164.948 262.881 165.087C263.047 165.218 263.173 165.383 263.26 165.583L268.104 177.843C268.365 178.531 268.605 179.323 268.822 180.22C268.918 179.776 269.018 179.354 269.122 178.953C269.236 178.553 269.357 178.183 269.488 177.843L274.319 165.583C274.389 165.409 274.51 165.248 274.685 165.1C274.859 164.952 275.076 164.878 275.337 164.878H277.792ZM282.911 170.362V183.68H280.104V170.362H282.911ZM283.381 166.341C283.381 166.593 283.329 166.832 283.224 167.059C283.128 167.285 282.994 167.485 282.819 167.659C282.645 167.825 282.441 167.96 282.206 168.064C281.979 168.16 281.736 168.208 281.475 168.208C281.222 168.208 280.983 168.16 280.757 168.064C280.539 167.96 280.347 167.825 280.182 167.659C280.017 167.485 279.882 167.285 279.777 167.059C279.682 166.832 279.634 166.593 279.634 166.341C279.634 166.079 279.682 165.836 279.777 165.609C279.882 165.383 280.017 165.187 280.182 165.022C280.347 164.848 280.539 164.713 280.757 164.617C280.983 164.513 281.222 164.46 281.475 164.46C281.736 164.46 281.979 164.513 282.206 164.617C282.441 164.713 282.645 164.848 282.819 165.022C282.994 165.187 283.128 165.383 283.224 165.609C283.329 165.836 283.381 166.079 283.381 166.341ZM295.46 173.639C295.068 173.134 294.638 172.782 294.167 172.582C293.697 172.381 293.188 172.281 292.64 172.281C291.543 172.281 290.686 172.686 290.068 173.496C289.45 174.296 289.141 175.484 289.141 177.06C289.141 177.878 289.21 178.579 289.35 179.162C289.489 179.737 289.689 180.207 289.95 180.572C290.211 180.938 290.529 181.203 290.903 181.369C291.278 181.534 291.7 181.617 292.17 181.617C292.884 181.617 293.497 181.464 294.011 181.16C294.533 180.846 295.016 180.407 295.46 179.841V173.639ZM298.267 164.356V183.68H296.57C296.196 183.68 295.956 183.501 295.852 183.144L295.604 181.695C295.047 182.348 294.411 182.875 293.697 183.275C292.992 183.675 292.17 183.876 291.23 183.876C290.481 183.876 289.802 183.728 289.193 183.432C288.584 183.127 288.061 182.687 287.626 182.113C287.191 181.538 286.851 180.829 286.608 179.985C286.373 179.132 286.255 178.157 286.255 177.06C286.255 176.068 286.386 175.149 286.647 174.305C286.917 173.461 287.3 172.73 287.796 172.112C288.292 171.485 288.893 170.997 289.598 170.649C290.311 170.292 291.108 170.114 291.987 170.114C292.77 170.114 293.436 170.24 293.985 170.493C294.533 170.736 295.025 171.08 295.46 171.524V164.356H298.267ZM310.957 175.519C310.957 175.049 310.887 174.614 310.748 174.214C310.618 173.805 310.422 173.452 310.161 173.156C309.899 172.851 309.573 172.616 309.181 172.451C308.798 172.277 308.354 172.19 307.85 172.19C306.831 172.19 306.03 172.481 305.447 173.065C304.864 173.648 304.494 174.466 304.337 175.519H310.957ZM304.259 177.243C304.294 178 304.411 178.657 304.612 179.214C304.812 179.763 305.077 180.22 305.408 180.585C305.747 180.951 306.148 181.225 306.609 181.408C307.079 181.582 307.602 181.669 308.176 181.669C308.724 181.669 309.199 181.608 309.599 181.486C310 181.356 310.348 181.216 310.644 181.068C310.94 180.912 311.192 180.772 311.401 180.651C311.61 180.52 311.801 180.455 311.975 180.455C312.202 180.455 312.376 180.542 312.498 180.716L313.294 181.747C312.963 182.139 312.589 182.47 312.171 182.74C311.754 183.009 311.31 183.231 310.84 183.405C310.37 183.571 309.886 183.688 309.39 183.758C308.894 183.836 308.411 183.876 307.941 183.876C307.018 183.876 306.161 183.723 305.369 183.419C304.585 183.105 303.902 182.648 303.319 182.048C302.744 181.447 302.292 180.703 301.961 179.815C301.639 178.927 301.478 177.904 301.478 176.747C301.478 175.824 301.622 174.962 301.909 174.161C302.205 173.361 302.623 172.664 303.162 172.072C303.711 171.48 304.372 171.015 305.147 170.675C305.93 170.327 306.814 170.153 307.797 170.153C308.616 170.153 309.373 170.288 310.069 170.558C310.766 170.819 311.366 171.206 311.871 171.72C312.376 172.233 312.768 172.864 313.046 173.613C313.333 174.353 313.477 175.197 313.477 176.146C313.477 176.581 313.429 176.873 313.333 177.021C313.238 177.169 313.064 177.243 312.811 177.243H304.259ZM322.375 170.153C323.359 170.153 324.247 170.314 325.039 170.636C325.839 170.958 326.518 171.415 327.075 172.007C327.641 172.599 328.076 173.317 328.381 174.161C328.686 175.006 328.838 175.955 328.838 177.008C328.838 178.061 328.686 179.01 328.381 179.854C328.076 180.698 327.641 181.421 327.075 182.021C326.518 182.613 325.839 183.07 325.039 183.392C324.247 183.715 323.359 183.876 322.375 183.876C321.383 183.876 320.486 183.715 319.685 183.392C318.893 183.07 318.214 182.613 317.649 182.021C317.083 181.421 316.648 180.698 316.343 179.854C316.038 179.01 315.886 178.061 315.886 177.008C315.886 175.955 316.038 175.006 316.343 174.161C316.648 173.317 317.083 172.599 317.649 172.007C318.214 171.415 318.893 170.958 319.685 170.636C320.486 170.314 321.383 170.153 322.375 170.153ZM322.375 181.682C323.576 181.682 324.468 181.282 325.052 180.481C325.644 179.671 325.94 178.518 325.94 177.021C325.94 175.524 325.644 174.37 325.052 173.561C324.468 172.743 323.576 172.333 322.375 172.333C321.156 172.333 320.251 172.743 319.659 173.561C319.067 174.37 318.771 175.524 318.771 177.021C318.771 178.518 319.067 179.671 319.659 180.481C320.251 181.282 321.156 181.682 322.375 181.682ZM342.673 183.68H339.605V164.878H342.673V183.68ZM349.548 172.125C349.835 171.829 350.131 171.563 350.436 171.328C350.749 171.084 351.08 170.876 351.428 170.701C351.776 170.527 352.146 170.392 352.538 170.297C352.93 170.201 353.356 170.153 353.818 170.153C354.549 170.153 355.189 170.275 355.737 170.519C356.294 170.762 356.76 171.106 357.134 171.55C357.517 171.994 357.804 172.529 357.996 173.156C358.187 173.774 358.283 174.457 358.283 175.206V183.68H355.489V175.206C355.489 174.309 355.28 173.613 354.862 173.117C354.453 172.621 353.826 172.373 352.982 172.373C352.355 172.373 351.772 172.516 351.232 172.804C350.701 173.091 350.201 173.482 349.731 173.979V183.68H346.924V170.362H348.621C349.004 170.362 349.248 170.54 349.352 170.897L349.548 172.125ZM366.175 183.889C365.069 183.889 364.216 183.58 363.616 182.962C363.024 182.335 362.728 181.456 362.728 180.324V172.569H361.265C361.109 172.569 360.974 172.521 360.861 172.425C360.747 172.32 360.691 172.168 360.691 171.968V170.832L362.845 170.519L363.459 166.667C363.502 166.519 363.576 166.401 363.681 166.314C363.785 166.219 363.925 166.171 364.099 166.171H365.535V170.545H369.23V172.569H365.535V180.128C365.535 180.607 365.652 180.973 365.887 181.225C366.122 181.477 366.436 181.604 366.827 181.604C367.045 181.604 367.232 181.578 367.389 181.525C367.546 181.464 367.681 181.403 367.794 181.343C367.907 181.273 368.003 181.212 368.081 181.16C368.168 181.099 368.251 181.068 368.329 181.068C368.486 181.068 368.612 181.155 368.708 181.329L369.543 182.7C369.108 183.083 368.594 183.379 368.003 183.588C367.411 183.788 366.801 183.889 366.175 183.889ZM374.615 172.83C375.033 171.985 375.538 171.324 376.13 170.845C376.722 170.358 377.431 170.114 378.258 170.114C378.545 170.114 378.815 170.149 379.068 170.218C379.32 170.279 379.546 170.375 379.747 170.506L379.551 172.621C379.516 172.769 379.459 172.873 379.381 172.934C379.311 172.986 379.216 173.012 379.094 173.012C378.963 173.012 378.776 172.991 378.532 172.947C378.289 172.895 378.032 172.869 377.762 172.869C377.37 172.869 377.022 172.925 376.717 173.039C376.422 173.152 376.152 173.317 375.908 173.535C375.673 173.752 375.464 174.018 375.281 174.331C375.098 174.645 374.929 175.001 374.772 175.402V183.68H371.965V170.362H373.597C373.893 170.362 374.097 170.419 374.211 170.532C374.324 170.636 374.402 170.823 374.446 171.093L374.615 172.83ZM387.426 170.153C388.409 170.153 389.297 170.314 390.089 170.636C390.89 170.958 391.569 171.415 392.126 172.007C392.692 172.599 393.127 173.317 393.432 174.161C393.736 175.006 393.889 175.955 393.889 177.008C393.889 178.061 393.736 179.01 393.432 179.854C393.127 180.698 392.692 181.421 392.126 182.021C391.569 182.613 390.89 183.07 390.089 183.392C389.297 183.715 388.409 183.876 387.426 183.876C386.433 183.876 385.537 183.715 384.736 183.392C383.944 183.07 383.265 182.613 382.699 182.021C382.133 181.421 381.698 180.698 381.393 179.854C381.089 179.01 380.936 178.061 380.936 177.008C380.936 175.955 381.089 175.006 381.393 174.161C381.698 173.317 382.133 172.599 382.699 172.007C383.265 171.415 383.944 170.958 384.736 170.636C385.537 170.314 386.433 170.153 387.426 170.153ZM387.426 181.682C388.627 181.682 389.519 181.282 390.102 180.481C390.694 179.671 390.99 178.518 390.99 177.021C390.99 175.524 390.694 174.37 390.102 173.561C389.519 172.743 388.627 172.333 387.426 172.333C386.207 172.333 385.302 172.743 384.71 173.561C384.118 174.37 383.822 175.524 383.822 177.021C383.822 178.518 384.118 179.671 384.71 180.481C385.302 181.282 386.207 181.682 387.426 181.682Z" fill="#1D1E22" fill-opacity="0.85"/>
</svg>
