<svg width="20" height="20" viewBox="0 0 20 20" fill="none" xmlns="http://www.w3.org/2000/svg">
<g id="airbnab-icon">
<rect id="Rectangle 690" width="20" height="20" rx="4" fill="#FF5A5F"/>
<path id="Vector" d="M15.0213 12.3887C14.9656 12.2526 14.9099 12.1051 14.8543 11.9803C14.7652 11.7761 14.6762 11.5832 14.5982 11.4017L14.5871 11.3904C13.8189 9.68867 12.9951 7.96428 12.1268 6.26258L12.0934 6.19451C12.0043 6.02434 11.9153 5.84283 11.8262 5.66131C11.7149 5.45711 11.6036 5.24156 11.4254 5.03735C11.0692 4.58357 10.5571 4.33398 10.0116 4.33398C9.45496 4.33398 8.95399 4.58357 8.58661 5.01467C8.41962 5.21887 8.29716 5.43442 8.18584 5.63862C8.09677 5.82014 8.00771 6.00165 7.91865 6.17182L7.88525 6.23989C7.02804 7.94159 6.19309 9.66598 5.42494 11.3677L5.41381 11.3904C5.33588 11.5719 5.24682 11.7648 5.15776 11.969C5.1021 12.0937 5.04643 12.2299 4.99077 12.3774C4.84604 12.7971 4.80151 13.1942 4.85718 13.6026C4.97964 14.4534 5.53627 15.1682 6.30442 15.4858C6.59387 15.6106 6.89445 15.6673 7.20616 15.6673C7.29522 15.6673 7.40655 15.656 7.49561 15.6446C7.86299 15.5993 8.2415 15.4745 8.60888 15.2589C9.06531 14.998 9.49949 14.6236 9.98932 14.0791C10.4792 14.6236 10.9245 14.998 11.3698 15.2589C11.7371 15.4745 12.1157 15.5993 12.483 15.6446C12.5721 15.656 12.6834 15.6673 12.7725 15.6673C13.0842 15.6673 13.3959 15.6106 13.6742 15.4858C14.4535 15.1682 14.999 14.4421 15.1215 13.6026C15.2105 13.2055 15.166 12.8085 15.0213 12.3887ZM10.0005 12.9786C9.39929 12.2072 9.00965 11.4811 8.87606 10.8685C8.8204 10.6076 8.80926 10.3807 8.84266 10.1765C8.86493 9.99498 8.93172 9.83615 9.02078 9.70002C9.2323 9.39371 9.58855 9.20085 10.0005 9.20085C10.4124 9.20085 10.7797 9.38237 10.9801 9.70002C11.0692 9.83615 11.136 9.99498 11.1582 10.1765C11.1916 10.3807 11.1805 10.6189 11.1249 10.8685C10.9913 11.4698 10.6016 12.1958 10.0005 12.9786ZM14.4424 13.5118C14.3644 14.1018 13.9748 14.6123 13.4293 14.8392C13.1621 14.9526 12.8727 14.9866 12.5832 14.9526C12.3049 14.9186 12.0266 14.8278 11.7371 14.6576C11.3364 14.4307 10.9356 14.0791 10.468 13.5572C11.2028 12.6383 11.6481 11.7988 11.8151 11.05C11.893 10.6983 11.9041 10.3807 11.8707 10.0857C11.8262 9.80212 11.726 9.54119 11.5702 9.3143C11.225 8.80379 10.6461 8.50883 10.0005 8.50883C9.35476 8.50883 8.77587 8.81513 8.43075 9.3143C8.2749 9.54119 8.1747 9.80212 8.13017 10.0857C8.08564 10.3807 8.09677 10.7097 8.18584 11.05C8.35283 11.7988 8.80926 12.6496 9.53288 13.5686C9.07645 14.0904 8.66454 14.4421 8.26376 14.669C7.97432 14.8392 7.696 14.9299 7.41768 14.9639C7.1171 14.998 6.82765 14.9526 6.5716 14.8505C6.0261 14.6236 5.63646 14.1131 5.55853 13.5232C5.52514 13.2396 5.5474 12.9559 5.65873 12.6383C5.69213 12.5248 5.74779 12.4114 5.80345 12.2753C5.88138 12.0937 5.97044 11.9009 6.0595 11.708L6.07063 11.6853C6.83879 9.99498 7.6626 8.27059 8.51981 6.59158L8.55321 6.52351C8.64227 6.35334 8.73133 6.17182 8.8204 6.00165C8.90946 5.82014 9.00965 5.64997 9.13211 5.50249C9.3659 5.23021 9.67761 5.08273 10.0227 5.08273C10.3678 5.08273 10.6795 5.23021 10.9133 5.50249C11.0358 5.64997 11.136 5.82014 11.225 6.00165C11.3141 6.17182 11.4032 6.35334 11.4922 6.52351L11.5256 6.59158C12.3717 8.28193 13.1955 10.0063 13.9637 11.6967V11.708C14.0527 11.8895 14.1307 12.0937 14.2197 12.2753C14.2754 12.4114 14.331 12.5248 14.3644 12.6383C14.4535 12.9333 14.4869 13.2169 14.4424 13.5118Z" fill="white"/>
</g>
</svg>