<svg width="49" height="49" viewBox="0 0 49 49" fill="none" xmlns="http://www.w3.org/2000/svg">
<g clip-path="url(#clip0_1823_14800)">
<path d="M48.166 24.166C48.166 10.9112 37.4208 0.166016 24.166 0.166016C10.9112 0.166016 0.166016 10.9112 0.166016 24.166C0.166016 37.4208 10.9112 48.166 24.166 48.166C37.4208 48.166 48.166 37.4208 48.166 24.166Z" fill="white"/>
<mask id="mask0_1823_14800" style="mask-type:luminance" maskUnits="userSpaceOnUse" x="12" y="12" width="24" height="24">
<path d="M35.3668 12.9668H12.9668V35.3668H35.3668V12.9668Z" fill="white"/>
</mask>
<g mask="url(#mask0_1823_14800)">
<path d="M23.4333 12.9729C23.3851 12.9772 23.2318 12.9926 23.0939 13.0035C19.9123 13.2903 16.9322 15.0067 15.0448 17.6449C13.9937 19.1117 13.3215 20.7756 13.0675 22.538C12.9777 23.1532 12.9668 23.3349 12.9668 24.169C12.9668 25.0032 12.9777 25.1849 13.0675 25.8001C13.6762 30.0058 16.6695 33.5393 20.7291 34.8485C21.456 35.0828 22.2224 35.2426 23.0939 35.3389C23.4333 35.3762 24.9003 35.3762 25.2397 35.3389C26.744 35.1725 28.0184 34.8003 29.2752 34.1589C29.4679 34.0604 29.5051 34.0341 29.4789 34.0122C29.4613 33.9991 28.6402 32.8978 27.6549 31.5667L25.8638 29.1475L23.6194 25.8263C22.3844 24.0004 21.3684 22.5073 21.3597 22.5073C21.3509 22.5052 21.3421 23.9808 21.3378 25.7825C21.3312 28.9374 21.329 29.0643 21.2896 29.1388C21.2327 29.2461 21.1889 29.2898 21.0969 29.338C21.0268 29.373 20.9655 29.3796 20.6349 29.3796H20.2561L20.1554 29.3161C20.0897 29.2745 20.0415 29.2198 20.0087 29.1563L19.9627 29.0578L19.9671 24.6682L19.9736 20.2764L20.0415 20.191C20.0765 20.1451 20.151 20.086 20.2035 20.0575C20.2933 20.0137 20.3283 20.0093 20.7072 20.0093C21.1539 20.0093 21.2283 20.0268 21.3443 20.1538C21.3772 20.1888 22.5924 22.0191 24.0464 24.2238C25.5003 26.4284 27.4885 29.4387 28.4651 30.9165L30.2386 33.6028L30.3284 33.5437C31.1233 33.027 31.9641 32.2914 32.6297 31.5251C34.0464 29.8985 34.9595 27.9149 35.2661 25.8001C35.3558 25.1849 35.3668 25.0032 35.3668 24.169C35.3668 23.3349 35.3558 23.1532 35.2661 22.538C34.6573 18.3323 31.6641 14.7988 27.6045 13.4895C26.8885 13.2575 26.1265 13.0977 25.2726 13.0013C25.0623 12.9794 23.615 12.9553 23.4333 12.9729ZM28.0184 19.7466C28.1235 19.7991 28.2089 19.8999 28.2395 20.0049C28.257 20.0619 28.2614 21.2791 28.257 24.0223L28.2505 27.9587L27.5564 26.8947L26.8601 25.8307V22.9693C26.8601 21.1193 26.8688 20.0794 26.8819 20.029C26.917 19.9064 26.9936 19.8101 27.0987 19.7532C27.1885 19.7072 27.2213 19.7028 27.5651 19.7028C27.8892 19.7028 27.9461 19.7072 28.0184 19.7466Z" fill="#191919"/>
</g>
</g>
<defs>
<clipPath id="clip0_1823_14800">
<rect width="48" height="48" fill="white" transform="translate(0.166016 0.166016)"/>
</clipPath>
</defs>
</svg>
