<svg width="48" height="48" viewBox="0 0 48 48" fill="none" xmlns="http://www.w3.org/2000/svg">
<rect width="48" height="48" rx="24" fill="black"/>
<path d="M22.9099 10.9525C23.5712 10.574 24.4324 10.5723 25.093 10.9525C28.4166 12.8305 31.7413 14.7056 35.0644 16.5847C35.6894 16.9368 36.1075 17.6324 36.1011 18.3526V29.6515C36.1058 30.4015 35.6464 31.1137 34.987 31.4578C31.6743 33.3255 28.3633 35.1954 25.0511 37.0631C24.3763 37.449 23.4977 37.4192 22.8439 37.0017C21.8508 36.426 20.8559 35.8531 19.8627 35.2779C19.6597 35.1569 19.4309 35.0606 19.2876 34.8639C19.4143 34.6931 19.6408 34.6718 19.8249 34.5973C20.2395 34.4654 20.6202 34.2538 21.0011 34.0485C21.0974 33.9826 21.2149 34.0078 21.3073 34.0668C22.1565 34.5538 22.9983 35.0548 23.8504 35.5371C24.0322 35.6421 24.2162 35.5027 24.3716 35.4161C27.6224 33.5788 30.8771 31.7485 34.1274 29.9107C34.2478 29.8527 34.3144 29.7249 34.3046 29.593C34.3069 25.8657 34.3051 22.1378 34.3057 18.4105C34.3195 18.2608 34.2329 18.1232 34.0975 18.062C30.7963 16.2028 27.4968 14.3409 24.1962 12.4813C24.139 12.442 24.0713 12.4209 24.0019 12.4208C23.9325 12.4207 23.8647 12.4415 23.8074 12.4807C20.5067 14.3409 17.2078 16.2045 13.9071 18.0636C13.7723 18.1249 13.6818 18.2603 13.6978 18.4105C13.6984 22.1378 13.6978 25.8657 13.6978 29.5935C13.6921 29.6579 13.7062 29.7225 13.7383 29.7786C13.7704 29.8347 13.8189 29.8796 13.8773 29.9072C14.7581 30.4067 15.64 30.9027 16.5214 31.4004C17.0179 31.6677 17.6276 31.8265 18.1746 31.6217C18.6574 31.4486 18.9958 30.9559 18.9866 30.4434C18.9911 26.7379 18.9843 23.0318 18.99 19.3268C18.9779 19.1623 19.134 19.0264 19.2939 19.0419C19.7171 19.039 20.1409 19.0362 20.5641 19.043C20.7407 19.039 20.8623 19.2162 20.8405 19.3819C20.8387 23.1109 20.845 26.8399 20.8376 30.5689C20.8387 31.5627 20.4304 32.6441 19.5112 33.1304C18.3787 33.717 16.979 33.5926 15.8602 33.0301C14.8916 32.5467 13.9674 31.9762 13.016 31.4583C12.3549 31.1161 11.8978 30.401 11.9024 29.6516V18.3526C11.8955 17.6175 12.3302 16.9093 12.9747 16.5623C16.2868 14.6931 19.5984 12.8225 22.9099 10.9525Z" fill="#8CC84B"/>
<path d="M25.8 18.779C27.2445 18.686 28.791 18.7239 30.0909 19.4356C31.0973 19.9809 31.6553 21.1255 31.6731 22.2436C31.645 22.3944 31.4873 22.4776 31.3433 22.4672C30.9242 22.4667 30.505 22.4729 30.0859 22.4644C29.9081 22.4712 29.8047 22.3073 29.7824 22.1501C29.662 21.6151 29.3702 21.0853 28.8667 20.8272C28.0937 20.4402 27.1974 20.4597 26.3545 20.4678C25.7392 20.5004 25.0775 20.5537 24.5562 20.9156C24.156 21.1897 24.0344 21.743 24.1772 22.1886C24.3119 22.5086 24.6813 22.6118 24.9835 22.707C26.7243 23.1623 28.5691 23.117 30.2768 23.7162C30.9837 23.9604 31.6754 24.4353 31.9173 25.1755C32.2339 26.1676 32.0951 27.3535 31.3893 28.1499C30.8169 28.8054 29.9832 29.1621 29.1517 29.3558C28.0455 29.6025 26.8976 29.6087 25.7742 29.4992C24.7179 29.3788 23.6187 29.1013 22.8032 28.3816C22.1059 27.7761 21.7654 26.8327 21.7992 25.9222C21.8072 25.7685 21.9603 25.6612 22.1076 25.6739C22.5297 25.6704 22.9518 25.6693 23.3738 25.6744C23.5424 25.6624 23.6674 25.8081 23.676 25.967C23.7539 26.4767 23.9455 27.0117 24.39 27.3139C25.2478 27.8673 26.3241 27.8294 27.3063 27.8449C28.1201 27.8088 29.0335 27.7979 29.6976 27.26C30.048 26.9533 30.1518 26.44 30.0571 25.9985C29.9545 25.6257 29.5645 25.452 29.2297 25.3384C27.5111 24.7948 25.6457 24.992 23.9438 24.3773C23.2528 24.1331 22.5847 23.6714 22.3192 22.9616C21.9488 21.957 22.1186 20.7143 22.8984 19.9447C23.6588 19.1792 24.7564 18.8844 25.8 18.7789V18.779Z" fill="#8CC84B"/>
</svg>
