<svg width="49" height="49" viewBox="0 0 49 49" fill="none" xmlns="http://www.w3.org/2000/svg">
<g clip-path="url(#clip0_1823_14769)">
<path d="M48.166 24.166C48.166 10.9112 37.4208 0.166016 24.166 0.166016C10.9112 0.166016 0.166016 10.9112 0.166016 24.166C0.166016 37.4208 10.9112 48.166 24.166 48.166C37.4208 48.166 48.166 37.4208 48.166 24.166Z" fill="#00B9EC"/>
<path d="M23.8022 26.8289C25.0822 26.8289 26.1199 25.7912 26.1199 24.5112C26.1199 23.2311 25.0822 22.1934 23.8022 22.1934C22.5221 22.1934 21.4844 23.2311 21.4844 24.5112C21.4844 25.7912 22.5221 26.8289 23.8022 26.8289Z" fill="white"/>
<path d="M23.8018 29.2587C30.6704 29.2587 36.2384 27.1327 36.2384 24.5102C36.2384 21.8876 30.6704 19.7617 23.8018 19.7617C16.9333 19.7617 11.3652 21.8876 11.3652 24.5102C11.3652 27.1327 16.9333 29.2587 23.8018 29.2587Z" stroke="white"/>
<path d="M19.6893 26.8841C23.1236 32.8325 27.7488 36.5915 30.0199 35.2803C32.2911 33.969 31.3482 28.0839 27.914 22.1356C24.4797 16.1873 19.8545 12.4282 17.5833 13.7395C15.3122 15.0507 16.255 20.9358 19.6893 26.8841Z" stroke="white"/>
<path d="M19.6913 22.1356C16.257 28.0839 15.3141 33.969 17.5853 35.2803C19.8565 36.5915 24.4817 32.8325 27.9159 26.8841C31.3502 20.9358 32.2931 15.0507 30.0219 13.7395C27.7507 12.4282 23.1255 16.1873 19.6913 22.1356Z" stroke="white"/>
</g>
<defs>
<clipPath id="clip0_1823_14769">
<rect width="48" height="48" fill="white" transform="translate(0.166016 0.166016)"/>
</clipPath>
</defs>
</svg>
