<svg width="168" height="48" viewBox="0 0 168 48" fill="none" xmlns="http://www.w3.org/2000/svg">
<g clip-path="url(#clip0_380_3672)">
<path d="M48 0H0V48H48V0Z" fill="#74AA9C"/>
<path d="M22.3033 8.00009C18.7554 8.00009 15.6035 10.2533 14.505 13.5809C12.224 14.0446 10.2547 15.4536 9.10075 17.4501C7.32143 20.4839 7.72818 24.2983 10.1114 26.8984C9.37491 29.0773 9.62757 31.4597 10.803 33.4332C12.5716 36.4776 16.1303 38.0388 19.6119 37.3131C21.1547 39.03 23.3712 40.0088 25.6971 39.9999C29.245 39.9999 32.3969 37.7467 33.4971 34.4191C35.7817 33.9536 37.7474 32.5447 38.8906 30.5517C40.6807 27.5179 40.274 23.7035 37.8908 21.1016V21.091C38.6272 18.9121 38.3746 16.528 37.1991 14.5456C35.4305 11.5118 31.8719 9.95063 28.401 10.6763C26.8493 8.96297 24.6291 7.98947 22.3033 8.00009ZM22.3033 10.0798L22.2925 10.0905C23.7206 10.0905 25.0932 10.5772 26.1916 11.4781C26.1468 11.4994 26.059 11.5542 25.9945 11.5861L19.5348 15.2606C19.2051 15.4447 19.008 15.7916 19.008 16.1704V24.7956L16.2288 23.2132V16.0837C16.227 12.772 18.9453 10.0851 22.3033 10.0798ZM30.0836 12.5915C32.2625 12.5879 34.2766 13.7331 35.3642 15.5969C36.0666 16.8112 36.3301 18.2307 36.0882 19.606C36.0434 19.5741 35.9573 19.5299 35.9018 19.498L29.4439 15.8129C29.1142 15.6288 28.7092 15.6288 28.3795 15.8129L20.8106 20.1264V16.9616L27.0589 13.3968C27.9781 12.8711 29.021 12.5932 30.0836 12.5915ZM14.109 15.866V23.4398C14.109 23.8186 14.3061 24.1549 14.6359 24.3496L22.1922 28.6507L19.4022 30.2437L13.1629 26.6895C10.2601 25.0293 9.2674 21.3636 10.9446 18.498C11.656 17.2837 12.7741 16.3527 14.109 15.866ZM28.5856 17.7422L34.8356 21.2963C37.7474 22.9548 38.7347 26.617 37.054 29.4879L37.0647 29.4985C36.3516 30.7127 35.2298 31.6438 33.9021 32.1217V24.5461C33.9021 24.1673 33.705 23.8204 33.3753 23.6363L25.8082 19.3228L28.5856 17.7422ZM23.9948 20.3529L27.1808 22.1725V25.8028L23.9948 27.6223L20.8089 25.8028V22.1725L23.9948 20.3529ZM29.0031 23.2132L31.7823 24.7956V31.9146C31.7823 35.2298 29.0586 37.9184 25.7078 37.9184V37.9078C24.2905 37.9078 22.9071 37.4193 21.8195 36.5201C21.8643 36.4989 21.9628 36.444 22.0166 36.4122L28.4745 32.7394C28.8042 32.5553 29.012 32.2084 29.0013 31.8296L29.0031 23.2132ZM27.1897 27.8737V31.0384L20.9397 34.5926C18.0279 36.2405 14.3169 35.2652 12.6361 32.4031H12.6469C11.9337 31.1995 11.6793 29.7693 11.9212 28.394C11.966 28.4259 12.0538 28.4702 12.1075 28.502L18.5654 32.1872C18.8951 32.3712 19.3001 32.3712 19.6298 32.1872L27.1897 27.8737Z" fill="white"/>
</g>
<rect x="0.5" y="0.5" width="47" height="47" rx="23.5" stroke="black" stroke-opacity="0.1"/>
<rect x="40" width="48" height="48" rx="24" fill="white"/>
<path fill-rule="evenodd" clip-rule="evenodd" d="M73.2635 32.9089C73.2635 34.6751 69.1721 36.0982 64.1278 36.0982C59.0835 36.0982 54.9922 34.6624 54.9922 32.9089C54.9922 31.1428 59.0835 29.7197 64.1278 29.7197C69.1721 29.7197 73.2635 31.1428 73.2635 32.9089Z" fill="#9EDCF2"/>
<mask id="mask0_380_3672" style="mask-type:luminance" maskUnits="userSpaceOnUse" x="58" y="31" width="12" height="10">
<path fill-rule="evenodd" clip-rule="evenodd" d="M60.2008 38.6295C60.4041 39.5825 60.8996 40.1415 61.3951 40.4719H66.6173C67.2526 40.0399 67.9006 39.2267 67.9006 37.702V33.7631C67.9006 33.7631 67.9769 32.7847 68.879 32.4671C68.879 32.4671 69.4 32.0986 68.8409 31.8953C68.8409 31.8953 66.3632 31.692 66.3632 33.725V36.7236C66.3632 36.7236 66.4649 37.829 65.8804 38.2864V34.5763C65.8804 34.5763 65.9185 33.3946 66.5284 32.9499C66.5284 32.9499 66.935 32.2257 66.0456 32.4162C66.0456 32.4162 64.3429 32.6577 64.2667 34.6525L64.2286 38.4643H63.822L63.7839 34.6525C63.7076 32.6704 62.005 32.4162 62.005 32.4162C61.1156 32.2129 61.5222 32.9499 61.5222 32.9499C62.1321 33.3946 62.1702 34.5763 62.1702 34.5763V38.3246C61.5857 37.9053 61.6874 36.7236 61.6874 36.7236V33.725C61.6874 31.692 59.2097 31.8953 59.2097 31.8953C58.6379 32.0986 59.1716 32.4671 59.1716 32.4671C60.061 32.7974 60.15 33.7631 60.15 33.7631V36.5203L60.2008 38.6295Z" fill="white"/>
</mask>
<g mask="url(#mask0_380_3672)">
<path fill-rule="evenodd" clip-rule="evenodd" d="M73.2615 32.9119C73.2615 34.678 69.1702 36.1011 64.1259 36.1011C59.0816 36.1011 54.9902 34.6653 54.9902 32.9119C54.9902 31.1457 59.0816 29.7227 64.1259 29.7227C69.1702 29.7227 73.2615 31.1457 73.2615 32.9119Z" fill="#7DBCE7"/>
</g>
<path fill-rule="evenodd" clip-rule="evenodd" d="M53.6962 23.5205L53.4293 24.4353C53.4293 24.4353 53.3658 24.7657 53.6707 24.8292C54.0011 24.8165 53.9757 24.5116 53.9503 24.4226L53.6962 23.5205Z" fill="#9EDCF2"/>
<path fill-rule="evenodd" clip-rule="evenodd" d="M80.2384 19.6703L80.2638 19.5559C77.5828 19.0223 74.8383 19.0096 73.1738 19.0858C73.4407 18.1075 73.5296 16.9639 73.5296 15.706C73.5296 13.8891 72.8435 12.4406 71.7508 11.3478C71.9413 10.7252 72.1955 9.34029 71.4966 7.57415C71.4966 7.57415 70.2514 7.18026 67.418 9.07346C66.3126 8.79393 65.1309 8.65416 63.9492 8.65416C62.6532 8.65416 61.3445 8.81934 60.112 9.1497C57.1896 7.15485 55.9063 7.56144 55.9063 7.56144C55.0677 9.65794 55.5887 11.2208 55.7411 11.602C54.7501 12.6693 54.1529 14.0288 54.1529 15.6933C54.1529 16.9512 54.2926 18.082 54.6484 19.0604C52.9712 18.9969 50.3284 19.0223 47.7363 19.5432L47.7617 19.6576C50.3538 19.1366 53.022 19.1239 54.6865 19.1875C54.7628 19.3908 54.8517 19.5941 54.9407 19.7847C53.2889 19.8355 50.4808 20.0515 47.7872 20.8138L47.8253 20.9282C50.5444 20.1658 53.3778 19.9625 55.0169 19.9117C56.008 21.7414 57.9393 22.9358 61.3953 23.3042C60.8998 23.6346 60.4043 24.1937 60.201 25.1466C59.5275 25.4643 57.4183 26.252 56.1477 24.0666C56.1477 24.0666 55.4362 22.7706 54.0766 22.6689C54.0766 22.6689 52.7552 22.6435 53.9877 23.4948C53.9877 23.4948 54.8644 23.9141 55.4743 25.477C55.4743 25.477 56.2748 28.1452 60.0993 27.2812V30.013C60.0993 30.013 60.0231 30.9914 59.1209 31.309C59.1209 31.309 58.5873 31.6775 59.1591 31.8808C59.1591 31.8808 61.6367 32.0841 61.6367 30.0511V27.0525C61.6367 27.0525 61.5351 25.8581 62.1196 25.4516V30.3815C62.1196 30.3815 62.0815 31.5632 61.4716 32.0079C61.4716 32.0079 61.065 32.7321 61.9544 32.5415C61.9544 32.5415 63.657 32.3001 63.7332 30.3053L63.7714 25.3118H64.178L64.2161 30.3053C64.2923 32.2874 65.9949 32.5415 65.9949 32.5415C66.8843 32.7448 66.4777 32.0079 66.4777 32.0079C65.8679 31.5632 65.8297 30.3815 65.8297 30.3815V25.4897C66.4142 25.9471 66.3126 27.0525 66.3126 27.0525V30.0511C66.3126 32.0841 68.7902 31.8808 68.7902 31.8808C69.362 31.6775 68.8284 31.309 68.8284 31.309C67.9389 30.9787 67.85 30.013 67.85 30.013V26.0741C67.85 24.5367 67.202 23.7235 66.5667 23.3042C70.2514 22.9358 72.0176 21.7541 72.8308 19.899C74.4444 19.9371 77.3541 20.1404 80.124 20.9282L80.1622 20.8138C77.4049 20.0388 74.5207 19.8355 72.8816 19.7847C72.9578 19.5941 73.0214 19.4035 73.0849 19.2002C74.7875 19.1366 77.5447 19.1366 80.2384 19.6703Z" fill="#010101"/>
<path fill-rule="evenodd" clip-rule="evenodd" d="M69.9223 15.6183C70.7101 16.3426 71.1802 17.2066 71.1802 18.1341C71.1802 22.505 67.9275 22.6194 63.9124 22.6194C59.8973 22.6194 56.6445 22.0095 56.6445 18.1341C56.6445 17.2066 57.1019 16.3426 57.8897 15.631C59.1984 14.4367 61.4093 15.072 63.9124 15.072C66.4155 15.072 68.6136 14.424 69.9223 15.6183Z" fill="#F5CCB3"/>
<path fill-rule="evenodd" clip-rule="evenodd" d="M61.4986 18.3623C61.4986 19.5694 60.8252 20.535 59.9866 20.535C59.148 20.535 58.4746 19.5567 58.4746 18.3623C58.4746 17.1552 59.148 16.1896 59.9866 16.1896C60.8252 16.1769 61.4986 17.1552 61.4986 18.3623Z" fill="white"/>
<path fill-rule="evenodd" clip-rule="evenodd" d="M61.0134 18.386C61.0134 19.1865 60.556 19.8345 60.0096 19.8345C59.4506 19.8345 59.0059 19.1865 59.0059 18.386C59.0059 17.5855 59.4633 16.9375 60.0096 16.9375C60.556 16.9375 61.0134 17.5855 61.0134 18.386Z" fill="#AF5C51"/>
<path fill-rule="evenodd" clip-rule="evenodd" d="M69.6158 18.3623C69.6158 19.5694 68.9424 20.535 68.1038 20.535C67.2652 20.535 66.5918 19.5567 66.5918 18.3623C66.5918 17.1552 67.2652 16.1896 68.1038 16.1896C68.9297 16.1769 69.6158 17.1552 69.6158 18.3623Z" fill="white"/>
<path fill-rule="evenodd" clip-rule="evenodd" d="M69.1208 18.386C69.1208 19.1865 68.6634 19.8345 68.1171 19.8345C67.558 19.8345 67.1133 19.1865 67.1133 18.386C67.1133 17.5855 67.5707 16.9375 68.1171 16.9375C68.6761 16.9375 69.1208 17.5855 69.1208 18.386Z" fill="#AF5C51"/>
<path fill-rule="evenodd" clip-rule="evenodd" d="M64.3171 20.2923C64.3171 20.4956 64.1519 20.6735 63.9359 20.6735C63.7326 20.6735 63.5547 20.5083 63.5547 20.2923C63.5547 20.0763 63.7199 19.9111 63.9359 19.9111C64.1392 19.9111 64.3171 20.0763 64.3171 20.2923Z" fill="#AF5C51"/>
<path fill-rule="evenodd" clip-rule="evenodd" d="M63.0587 21.2464C63.0333 21.1828 63.0714 21.1193 63.135 21.0939C63.1985 21.0685 63.262 21.1066 63.2874 21.1701C63.3891 21.4497 63.6432 21.6276 63.9355 21.6276C64.2277 21.6276 64.4818 21.437 64.5835 21.1701C64.6089 21.1066 64.6724 21.0685 64.7359 21.0939C64.7995 21.1193 64.8376 21.1828 64.8122 21.2464C64.6851 21.6148 64.3293 21.869 63.9355 21.869C63.5416 21.869 63.1858 21.6148 63.0587 21.2464Z" fill="#AF5C51"/>
<path fill-rule="evenodd" clip-rule="evenodd" d="M54.6606 22.9748C54.6606 23.0764 54.5463 23.1526 54.3938 23.1526C54.254 23.1526 54.127 23.0764 54.127 22.9748C54.127 22.8731 54.2413 22.7969 54.3938 22.7969C54.5463 22.7969 54.6606 22.8731 54.6606 22.9748Z" fill="#C4E5D9"/>
<path fill-rule="evenodd" clip-rule="evenodd" d="M55.3969 23.381C55.3969 23.4827 55.2826 23.5589 55.1301 23.5589C54.9903 23.5589 54.8633 23.4827 54.8633 23.381C54.8633 23.2794 54.9776 23.2031 55.1301 23.2031C55.2826 23.2031 55.3969 23.2794 55.3969 23.381Z" fill="#C4E5D9"/>
<path fill-rule="evenodd" clip-rule="evenodd" d="M55.8422 23.9135C55.8422 24.0151 55.7279 24.0914 55.5754 24.0914C55.4357 24.0914 55.3086 24.0151 55.3086 23.9135C55.3086 23.8118 55.4229 23.7356 55.5754 23.7356C55.7279 23.7229 55.8422 23.8118 55.8422 23.9135Z" fill="#C4E5D9"/>
<path fill-rule="evenodd" clip-rule="evenodd" d="M56.2505 24.5238C56.2505 24.6255 56.1361 24.7017 55.9836 24.7017C55.8439 24.7017 55.7168 24.6255 55.7168 24.5238C55.7168 24.4222 55.8312 24.3459 55.9836 24.3459C56.1361 24.3332 56.2505 24.4222 56.2505 24.5238Z" fill="#C4E5D9"/>
<path fill-rule="evenodd" clip-rule="evenodd" d="M56.6958 25.0841C56.6958 25.1858 56.5814 25.262 56.4289 25.262C56.2892 25.262 56.1621 25.1858 56.1621 25.0841C56.1621 24.9825 56.2765 24.9062 56.4289 24.9062C56.5814 24.9063 56.6958 24.9825 56.6958 25.0841Z" fill="#C4E5D9"/>
<path fill-rule="evenodd" clip-rule="evenodd" d="M57.3051 25.5795C57.3051 25.6811 57.1908 25.7574 57.0383 25.7574C56.8985 25.7574 56.7715 25.6811 56.7715 25.5795C56.7715 25.4778 56.8858 25.4016 57.0383 25.4016C57.1908 25.3889 57.3051 25.4778 57.3051 25.5795Z" fill="#C4E5D9"/>
<path fill-rule="evenodd" clip-rule="evenodd" d="M58.1547 25.8986C58.1547 26.0002 58.0404 26.0765 57.8879 26.0765C57.7482 26.0765 57.6211 26.0002 57.6211 25.8986C57.6211 25.7969 57.7354 25.7207 57.8879 25.7207C58.0404 25.7207 58.1547 25.7969 58.1547 25.8986Z" fill="#C4E5D9"/>
<path fill-rule="evenodd" clip-rule="evenodd" d="M59.0083 25.8986C59.0083 26.0002 58.8939 26.0765 58.7414 26.0765C58.6017 26.0765 58.4746 26.0002 58.4746 25.8986C58.4746 25.7969 58.589 25.7207 58.7414 25.7207C58.8939 25.7207 59.0083 25.7969 59.0083 25.8986Z" fill="#C4E5D9"/>
<path fill-rule="evenodd" clip-rule="evenodd" d="M59.8696 25.757C59.8696 25.8586 59.7552 25.9349 59.6028 25.9349C59.463 25.9349 59.3359 25.8586 59.3359 25.757C59.3359 25.6553 59.4503 25.5791 59.6028 25.5791C59.7425 25.5791 59.8696 25.6553 59.8696 25.757Z" fill="#C4E5D9"/>
<rect x="80" width="48" height="48" rx="24" fill="black"/>
<path d="M97.0534 31.8681L90.2402 26.5054L93.6248 20.2197L103.339 23.9999L97.0534 31.8681Z" fill="url(#paint0_linear_380_3672)"/>
<path d="M118.065 17.45L117.537 33.7137L106.724 38.0654L100.219 33.8456L109.713 23.9994L105.581 14.8566L109.318 10.373L118.065 17.45Z" fill="url(#paint1_linear_380_3672)"/>
<path d="M118.067 17.45L109.496 27.5599L105.584 14.8566L109.32 10.373L118.067 17.45Z" fill="url(#paint2_linear_380_3672)"/>
<path d="M103.472 33.2752L92.2193 37.3631L94.0215 31.0335L96.3511 23.2093L89.9336 21.0554L94.0215 9.93457L102.813 10.9895L111.516 20.9236L103.472 33.2752Z" fill="url(#paint3_linear_380_3672)"/>
<path d="M112.791 15.209H95.209V32.7914H112.791V15.209Z" fill="black"/>
<path d="M96.8789 29.4951H103.472V30.594H96.8789V29.4951ZM101.582 18.8138V17.4951H97.9778V18.8138H98.9888V23.4292H97.9778V24.7918H101.582V23.4292H100.571V18.8138H101.582ZM105.099 24.8798C104.597 24.9024 104.098 24.7965 103.648 24.5721C103.28 24.3692 102.953 24.1011 102.681 23.7809L103.692 22.638C103.875 22.8386 104.081 23.0157 104.307 23.1655C104.52 23.2902 104.764 23.3512 105.011 23.3413C105.282 23.362 105.545 23.2467 105.714 23.0336C105.918 22.7714 106.012 22.4407 105.978 22.1105V17.4072H107.604V22.1545C107.621 22.5433 107.561 22.9315 107.428 23.2973C107.312 23.6684 107.1 24.0021 106.813 24.2644C106.315 24.6342 105.718 24.8483 105.099 24.8798Z" fill="white"/>
<rect x="120" width="48" height="48" rx="24" fill="white"/>
<path d="M156.891 9.93457H143.344C143.344 11.5564 143.988 13.1119 145.135 14.2587C146.282 15.4055 147.837 16.0498 149.459 16.0498H151.954V18.4592C151.957 21.8335 154.691 24.5684 158.066 24.5706V11.1098C158.066 10.4609 157.54 9.93457 156.891 9.93457Z" fill="#2684FF"/>
<path d="M150.187 16.6836H136.641C136.643 20.0579 139.378 22.7928 142.752 22.795H145.247V25.2121C145.252 28.5864 147.988 31.3194 151.363 31.3194V17.859C151.363 17.2099 150.836 16.6837 150.187 16.6837V16.6836Z" fill="url(#paint4_linear_380_3672)"/>
<path d="M143.48 23.4297H129.934C129.934 26.8071 132.672 29.5449 136.049 29.5449H138.552V31.9543C138.554 35.3255 141.284 38.0592 144.656 38.0655V24.605C144.656 23.9559 144.129 23.4297 143.48 23.4297Z" fill="url(#paint5_linear_380_3672)"/>
<defs>
<linearGradient id="paint0_linear_380_3672" x1="90.2402" y1="26.0439" x2="103.313" y2="26.0439" gradientUnits="userSpaceOnUse">
<stop offset="0.26" stop-color="#F97A12"/>
<stop offset="0.46" stop-color="#B07B58"/>
<stop offset="0.72" stop-color="#577BAE"/>
<stop offset="0.91" stop-color="#1E7CE5"/>
<stop offset="1" stop-color="#087CFA"/>
</linearGradient>
<linearGradient id="paint1_linear_380_3672" x1="100.28" y1="19.9379" x2="123.367" y2="25.242" gradientUnits="userSpaceOnUse">
<stop stop-color="#F97A12"/>
<stop offset="0.07" stop-color="#CB7A3E"/>
<stop offset="0.15" stop-color="#9E7B6A"/>
<stop offset="0.24" stop-color="#757B91"/>
<stop offset="0.33" stop-color="#537BB1"/>
<stop offset="0.43" stop-color="#387CCC"/>
<stop offset="0.54" stop-color="#237CE0"/>
<stop offset="0.66" stop-color="#147CEF"/>
<stop offset="0.79" stop-color="#0B7CF7"/>
<stop offset="1" stop-color="#087CFA"/>
</linearGradient>
<linearGradient id="paint2_linear_380_3672" x1="115.342" y1="27.173" x2="105.51" y2="11.6644" gradientUnits="userSpaceOnUse">
<stop stop-color="#FE315D"/>
<stop offset="0.08" stop-color="#CB417E"/>
<stop offset="0.16" stop-color="#9E4E9B"/>
<stop offset="0.25" stop-color="#755BB4"/>
<stop offset="0.34" stop-color="#5365CA"/>
<stop offset="0.44" stop-color="#386DDB"/>
<stop offset="0.54" stop-color="#2374E9"/>
<stop offset="0.66" stop-color="#1478F3"/>
<stop offset="0.79" stop-color="#0B7BF8"/>
<stop offset="1" stop-color="#087CFA"/>
</linearGradient>
<linearGradient id="paint3_linear_380_3672" x1="94.25" y1="16.5412" x2="117.925" y2="40.7897" gradientUnits="userSpaceOnUse">
<stop stop-color="#FE315D"/>
<stop offset="0.04" stop-color="#F63462"/>
<stop offset="0.1" stop-color="#DF3A71"/>
<stop offset="0.17" stop-color="#C24383"/>
<stop offset="0.29" stop-color="#AD4A91"/>
<stop offset="0.55" stop-color="#755BB4"/>
<stop offset="0.92" stop-color="#1D76ED"/>
<stop offset="1" stop-color="#087CFA"/>
</linearGradient>
<linearGradient id="paint4_linear_380_3672" x1="151.073" y1="16.7072" x2="145.345" y2="22.6836" gradientUnits="userSpaceOnUse">
<stop offset="0.18" stop-color="#0052CC"/>
<stop offset="1" stop-color="#2684FF"/>
</linearGradient>
<linearGradient id="paint5_linear_380_3672" x1="144.754" y1="23.4963" x2="138.128" y2="30.0148" gradientUnits="userSpaceOnUse">
<stop offset="0.18" stop-color="#0052CC"/>
<stop offset="1" stop-color="#2684FF"/>
</linearGradient>
<clipPath id="clip0_380_3672">
<rect width="48" height="48" rx="24" fill="white"/>
</clipPath>
</defs>
</svg>
