<svg width="18" height="18" viewBox="0 0 18 18" fill="none" xmlns="http://www.w3.org/2000/svg">
<g id="star">
<path id="Vector" d="M16.4991 7.25175C16.4518 7.11457 16.3656 6.99407 16.2511 6.90488C16.1366 6.81569 15.9987 6.76163 15.8541 6.74925L11.5866 6.12675L9.67413 2.24925C9.61271 2.12245 9.51683 2.01551 9.39744 1.94068C9.27806 1.86586 9.14002 1.82617 8.99913 1.82617C8.85824 1.82617 8.72019 1.86586 8.60081 1.94068C8.48143 2.01551 8.38554 2.12245 8.32413 2.24925L6.41163 6.11925L2.14413 6.74925C2.00532 6.76898 1.87482 6.82723 1.76744 6.91737C1.66006 7.00752 1.5801 7.12596 1.53663 7.25925C1.49684 7.38951 1.49327 7.52814 1.5263 7.66027C1.55933 7.79241 1.62772 7.91305 1.72413 8.00925L4.82163 11.0093L4.07163 15.2693C4.04485 15.4099 4.05887 15.5552 4.11203 15.6881C4.16519 15.821 4.25527 15.9359 4.37163 16.0193C4.48504 16.1003 4.61881 16.1482 4.75791 16.1575C4.89702 16.1667 5.03596 16.1371 5.15913 16.0718L8.99913 14.0693L12.8241 16.0793C12.9294 16.1386 13.0483 16.1696 13.1691 16.1693C13.328 16.1698 13.4829 16.1199 13.6116 16.0268C13.728 15.9434 13.8181 15.8285 13.8712 15.6956C13.9244 15.5627 13.9384 15.4174 13.9116 15.2768L13.1616 11.0168L16.2591 8.01675C16.3674 7.92501 16.4474 7.80443 16.4899 7.66902C16.5324 7.5336 16.5356 7.38891 16.4991 7.25175ZM11.8866 10.2518C11.7987 10.3368 11.7329 10.4421 11.695 10.5585C11.657 10.6748 11.6482 10.7987 11.6691 10.9193L12.2091 14.0618L9.38913 12.5618C9.28062 12.504 9.15956 12.4738 9.03663 12.4738C8.91369 12.4738 8.79264 12.504 8.68413 12.5618L5.86413 14.0618L6.40413 10.9193C6.42508 10.7987 6.41621 10.6748 6.3783 10.5585C6.34039 10.4421 6.27459 10.3368 6.18663 10.2518L3.93663 8.00175L7.09413 7.54425C7.21563 7.52735 7.33113 7.48091 7.4305 7.40899C7.52988 7.33708 7.6101 7.24188 7.66413 7.13175L8.99913 4.27425L10.4091 7.13925C10.4632 7.24938 10.5434 7.34458 10.6428 7.41649C10.7421 7.48841 10.8576 7.53485 10.9791 7.55175L14.1366 8.00925L11.8866 10.2518Z" fill="#FF8551"/>
</g>
</svg>
