<svg width="18" height="19" viewBox="0 0 18 19" fill="none" xmlns="http://www.w3.org/2000/svg">
<path d="M9.35571 1.74817L10.1198 2.81094C10.472 3.3008 11.112 3.48873 11.6731 3.26704L12.8905 2.78608C13.1696 2.67581 13.4746 2.87182 13.4903 3.17151L13.5585 4.47867C13.5899 5.08117 14.0267 5.58526 14.6186 5.70217L15.9028 5.95571C16.1972 6.01384 16.3478 6.34363 16.1989 6.60419L15.5496 7.74074C15.2503 8.26458 15.3453 8.92483 15.78 9.34313L16.7232 10.2507C16.9395 10.4588 16.8879 10.8176 16.6218 10.9564L15.4611 11.5614C14.926 11.8403 14.649 12.4471 14.7885 13.0341L15.0914 14.3075C15.1608 14.5994 14.9234 14.8734 14.6245 14.8463L13.3209 14.7278C12.7201 14.6732 12.159 15.0338 11.959 15.603L11.5253 16.838C11.4259 17.1212 11.078 17.2233 10.8413 17.0388L9.80869 16.2344C9.33279 15.8636 8.66574 15.8636 8.18983 16.2344L7.15725 17.0388C6.92053 17.2233 6.57264 17.1212 6.4732 16.838L6.03949 15.603C5.83956 15.0338 5.27844 14.6732 4.67759 14.7278L3.37402 14.8463C3.07516 14.8734 2.83774 14.5994 2.90716 14.3075L3.20998 13.0341C3.34955 12.4471 3.07246 11.8403 2.53746 11.5614L1.37676 10.9564C1.11066 10.8176 1.05906 10.4588 1.2753 10.2507L2.21852 9.34313C2.65327 8.92483 2.7482 8.26458 2.44891 7.74074L1.7996 6.60419C1.65073 6.34363 1.80134 6.01384 2.09575 5.95571L3.3799 5.70217C3.9718 5.58526 4.4086 5.08117 4.44004 4.47867L4.50826 3.17151C4.52389 2.87182 4.82893 2.67581 5.10801 2.78608L6.32538 3.26704C6.8865 3.48873 7.52651 3.3008 7.8787 2.81094L8.64282 1.74817C8.81799 1.50452 9.18054 1.50452 9.35571 1.74817Z" stroke="black" stroke-width="0.878049"/>
<path d="M11.7072 7.52441L7.6828 11.5488L5.85352 9.71954" stroke="black" stroke-width="1.09756" stroke-linecap="round" stroke-linejoin="round"/>
</svg>
