<svg width="94" height="20" viewBox="0 0 94 20" fill="none" xmlns="http://www.w3.org/2000/svg">
<path fill-rule="evenodd" clip-rule="evenodd" d="M8.5135 0.681706C7.78645 0.751857 7.12189 0.94285 6.47674 1.26705C3.90955 2.55713 1.85422 5.87654 1.14207 9.88276C1.01288 10.6095 0.941073 11.2319 0.896683 12.0095C0.865698 12.5524 0.882375 13.6417 0.927941 14.0494C1.11723 15.7433 1.6474 17.0315 2.53302 17.9493C3.04916 18.4842 3.62424 18.848 4.31544 19.077C4.85379 19.2553 5.3395 19.3291 5.97511 19.329C7.19412 19.3289 8.08634 19.0189 9.02997 18.2677C9.47064 17.9169 10.1438 17.1973 10.6395 16.5473C11.5185 15.3946 12.088 14.4722 13.9143 11.2439L14.9195 9.46704L15.138 9.82707C15.4214 10.2942 16.432 11.9814 17.0448 13.0104C18.5765 15.5823 19.4655 16.837 20.422 17.7768C21.374 18.7121 22.2591 19.1602 23.4262 19.2977C23.7385 19.3345 24.3812 19.3393 24.6779 19.307C25.4852 19.2192 26.2083 18.9433 26.805 18.4952C27.0062 18.3441 27.381 17.9804 27.547 17.7752C28.228 16.9332 28.686 15.7258 28.8608 14.3118C28.9933 13.2398 28.9778 11.8897 28.8181 10.5964C28.3563 6.85602 26.7241 3.59291 24.4648 1.89343C23.1094 0.873875 21.5629 0.471927 20.1178 0.763612C18.6004 1.06989 17.1254 2.20231 15.5534 4.26778C15.4392 4.41786 15.3342 4.55333 15.3202 4.5688C15.2995 4.59166 15.2509 4.54278 15.0618 4.30879C13.0034 1.76205 11.1467 0.652467 8.97515 0.671253C8.76163 0.6731 8.55388 0.677802 8.5135 0.681706ZM21.4782 3.13372C22.212 3.2973 22.8785 3.69912 23.5256 4.36799C23.9633 4.82035 24.3107 5.2964 24.6474 5.90504C25.5406 7.51936 26.0596 9.42657 26.2439 11.7719C26.2847 12.2918 26.2786 13.5907 26.2337 13.9234C26.0507 15.2801 25.5464 16.0302 24.6713 16.2475C24.4236 16.309 23.9577 16.3132 23.7124 16.2561C23.0624 16.105 22.6048 15.722 21.8285 14.6791C21.2648 13.9219 20.0618 12.0277 18.7089 9.76731C17.6805 8.04908 17.3343 7.49115 16.816 6.71673L16.6709 6.49989L16.9112 6.13949C18.1354 4.30329 19.1891 3.36157 20.284 3.12513C20.4552 3.08815 20.538 3.08351 20.9013 3.09054C21.1899 3.09611 21.37 3.1096 21.4782 3.13372ZM9.37362 3.75586C10.1958 3.87007 10.8964 4.26958 11.7243 5.09642C12.2146 5.58611 12.6852 6.1547 13.2465 6.93551L13.4831 7.26458L13.414 7.37195C13.376 7.43102 13.106 7.84772 12.8139 8.29797C12.1012 9.39676 11.4698 10.3803 10.7789 11.4675C10.0344 12.639 9.83953 12.937 9.4195 13.5456C8.22075 15.2826 7.5105 15.9901 6.74457 16.2102C6.16144 16.3778 5.5616 16.316 5.09068 16.0399C4.91582 15.9373 4.62839 15.6556 4.49684 15.4577C4.20742 15.0225 4.01935 14.4326 3.93738 13.703C3.90342 13.4007 3.90357 12.3994 3.93766 11.9713C4.1726 9.01975 5.19016 6.33218 6.63465 4.848C7.30518 4.15907 7.92705 3.81782 8.68133 3.72494C8.78567 3.71209 9.18777 3.73006 9.37362 3.75586Z" fill="#505050"/>
<path d="M44.1798 11.7604L38.2358 1.0083L34.7402 1.0083V18.6761H37.5922V5.13507L42.8042 14.5116H45.479L50.691 5.13507V18.6761H53.5437V1.0083L50.1237 1.0083L44.1798 11.7604ZM65.7656 6.08781C64.8611 5.49465 63.782 5.19807 62.5286 5.19807C61.2668 5.19807 60.15 5.49255 59.1782 6.08149C58.2063 6.67044 57.447 7.48651 56.9002 8.52971C56.3533 9.57291 56.0799 10.7718 56.08 12.1264C56.08 13.4646 56.3597 14.6509 56.9192 15.6852C57.4786 16.7194 58.2589 17.5292 59.2601 18.1146C60.2612 18.6991 61.4222 18.9914 62.7432 18.9915C64.9305 18.9915 66.7772 18.3016 68.2833 16.9219L66.7689 15.0668C66.2305 15.5799 65.6543 15.9626 65.0403 16.2151C64.4264 16.4675 63.6944 16.5937 62.8445 16.5937C61.7846 16.5937 60.9075 16.2845 60.2132 15.6662C59.519 15.0479 59.0836 14.2002 58.9072 13.1232H68.5865V12.3409C68.5865 10.9022 68.3425 9.64862 67.8545 8.58026C67.3666 7.51191 66.6703 6.68109 65.7656 6.08781ZM58.9072 11.0411C59.0754 9.98949 59.4772 9.15236 60.1123 8.52971C60.7475 7.90706 61.5362 7.59574 62.4786 7.59574C63.4461 7.59574 64.2285 7.90074 64.8259 8.51075C65.4232 9.12076 65.764 9.96422 65.8481 11.0411H58.9072ZM74.7957 1.65195H72.0449V5.51367H69.4193V7.84833H72.0443V14.0951C72.0443 17.3428 73.5292 18.9665 76.4989 18.9662C76.9107 18.9674 77.322 18.9379 77.7294 18.8779C78.0854 18.8267 78.4375 18.7507 78.783 18.6506V16.3413C78.4803 16.3918 78.2028 16.4318 77.9504 16.4613C77.698 16.4908 77.3909 16.5055 77.029 16.5054C76.213 16.5054 75.6368 16.295 75.3005 15.8744C74.9642 15.4537 74.7959 14.7512 74.7957 13.767V7.84833H78.7834V5.51367H74.7953L74.7957 1.65195ZM90.4193 5.51367V7.20505C89.9564 6.57268 89.3453 6.06352 88.6398 5.72221C87.9246 5.37316 87.117 5.19857 86.2169 5.19845C85.0222 5.19845 83.9642 5.49292 83.0431 6.08186C82.1219 6.67081 81.4005 7.48242 80.8789 8.5167C80.3569 9.5516 80.0961 10.7421 80.0964 12.0881C80.0964 13.4263 80.3529 14.6147 80.866 15.6532C81.3791 16.6917 82.0838 17.5077 82.9799 18.1014C83.8759 18.6946 84.9043 18.9911 86.0652 18.9911C87.007 18.9911 87.8483 18.8039 88.5893 18.4294C89.3303 18.055 89.9402 17.5229 90.4191 16.8332V18.6757H93.1198V5.51367L90.4193 5.51367ZM90.3688 14.0698C90.0742 14.8103 89.5947 15.3992 88.9302 15.8366C88.2656 16.274 87.5085 16.4927 86.6587 16.4927C85.5063 16.4927 84.5935 16.0973 83.9202 15.3065C83.2468 14.5157 82.9103 13.4431 82.9105 12.0885C82.9105 10.7424 83.2597 9.67396 83.9579 8.88304C84.6561 8.09212 85.5941 7.69678 86.7717 7.69703C87.6048 7.69703 88.3388 7.91388 88.9738 8.34756C89.6089 8.78125 90.0735 9.3723 90.3678 10.1207L90.3688 14.0698Z" fill="#505050"/>
</svg>
