<svg width="95" height="29" viewBox="0 0 95 29" fill="none" xmlns="http://www.w3.org/2000/svg">
<g id="Company logo" clip-path="url(#clip0_1084_951)">
<path id="Vector" d="M94.4012 13.259V11.608H92.351V9.0414L92.282 9.06265L90.3563 9.65184L90.3184 9.66337V11.6081H87.279V10.5247C87.279 10.0203 87.3918 9.63422 87.6141 9.37677C87.8348 9.1224 88.1506 8.99309 88.5534 8.99309C88.8429 8.99309 89.1426 9.06129 89.4443 9.19578L89.52 9.22956V7.49087L89.4844 7.47779C89.2029 7.37663 88.8202 7.32568 88.3457 7.32568C87.7477 7.32568 87.2043 7.45582 86.7305 7.71372C86.2563 7.97199 85.8834 8.34069 85.6221 8.80947C85.3618 9.27769 85.2296 9.81848 85.2296 10.4169V11.608H83.8021V13.259H85.2296V20.2142H87.279V13.259H90.3184V17.6789C90.3184 19.4993 91.177 20.4217 92.8704 20.4217C93.1486 20.4217 93.4415 20.3891 93.7405 20.3253C94.0449 20.2597 94.2523 20.1942 94.3743 20.1243L94.4013 20.1083V18.4421L94.3179 18.4972C94.2067 18.5713 94.0682 18.6319 93.9058 18.6769C93.7427 18.7228 93.6065 18.7458 93.501 18.7458C93.1043 18.7458 92.8108 18.6389 92.6287 18.4279C92.4446 18.2151 92.3511 17.8428 92.3511 17.3221V13.259H94.4012ZM79.2255 18.7461C78.4816 18.7461 77.8952 18.4994 77.4819 18.0136C77.0661 17.5253 76.8554 16.8291 76.8554 15.9446C76.8554 15.032 77.0661 14.3178 77.4821 13.8209C77.8956 13.3272 78.4765 13.0766 79.2088 13.0766C79.9194 13.0766 80.4851 13.3159 80.8903 13.7882C81.2975 14.263 81.5041 14.9715 81.5041 15.8947C81.5041 16.8293 81.3098 17.5472 80.9266 18.0274C80.546 18.5039 79.9737 18.7461 79.2255 18.7461ZM79.3166 11.4007C77.8974 11.4007 76.7703 11.8165 75.9666 12.6367C75.1635 13.4569 74.7563 14.5919 74.7563 16.0106C74.7563 17.3581 75.1537 18.4419 75.9378 19.2315C76.7219 20.0214 77.7889 20.4215 79.1091 20.4215C80.4847 20.4215 81.5894 19.9999 82.3927 19.1684C83.196 18.3379 83.6029 17.2135 83.6029 15.828C83.6029 14.4594 83.221 13.3675 82.4676 12.5832C81.7137 11.7985 80.6534 11.4007 79.3166 11.4007ZM71.4521 11.4007C70.4867 11.4007 69.6882 11.6476 69.0782 12.1345C68.4645 12.6242 68.1532 13.2665 68.1532 14.0438C68.1532 14.4478 68.2204 14.8067 68.3526 15.1111C68.4857 15.4165 68.6915 15.6854 68.9651 15.9111C69.2365 16.1349 69.6555 16.3694 70.2107 16.608C70.6775 16.8 71.0256 16.9625 71.2467 17.0905C71.4629 17.2161 71.6162 17.3422 71.7029 17.4651C71.7871 17.5853 71.8297 17.7498 71.8297 17.9529C71.8297 18.5311 71.3968 18.8124 70.5058 18.8124C70.1753 18.8124 69.7984 18.7434 69.3854 18.6074C68.9755 18.4734 68.5885 18.2772 68.2381 18.0256L68.153 17.9646V19.9377L68.1843 19.9522C68.4742 20.0861 68.8398 20.199 69.2707 20.2878C69.7008 20.3767 70.0916 20.4219 70.4311 20.4219C71.4786 20.4219 72.3221 20.1738 72.9377 19.6841C73.5571 19.1909 73.871 18.5335 73.871 17.7293C73.871 17.1492 73.702 16.6517 73.3689 16.2505C73.0381 15.8526 72.4639 15.4873 71.663 15.1643C71.025 14.9082 70.6162 14.6956 70.4476 14.5325C70.285 14.3748 70.2025 14.1519 70.2025 13.8695C70.2025 13.6192 70.3044 13.4187 70.5135 13.2564C70.7243 13.0932 71.0177 13.0102 71.3857 13.0102C71.7271 13.0102 72.0765 13.0641 72.4239 13.1698C72.7711 13.2755 73.076 13.4171 73.3306 13.5903L73.4143 13.6475V11.7758L73.3822 11.762C73.1473 11.6613 72.8377 11.5752 72.4615 11.5052C72.0871 11.4358 71.7475 11.4007 71.4521 11.4007ZM62.8106 18.7461C62.067 18.7461 61.4803 18.4994 61.0671 18.0136C60.6512 17.5253 60.4409 16.8293 60.4409 15.9446C60.4409 15.032 60.6515 14.3178 61.0676 13.8209C61.4808 13.3272 62.0615 13.0766 62.7942 13.0766C63.5045 13.0766 64.0702 13.3159 64.4755 13.7882C64.8828 14.263 65.0894 14.9715 65.0894 15.8947C65.0894 16.8293 64.895 17.5472 64.5117 18.0274C64.1311 18.5039 63.5591 18.7461 62.8106 18.7461ZM62.902 11.4007C61.4825 11.4007 60.3553 11.8165 59.552 12.6367C58.7489 13.4569 58.3414 14.5919 58.3414 16.0106C58.3414 17.3586 58.7392 18.4419 59.5232 19.2315C60.3073 20.0214 61.3743 20.4215 62.6944 20.4215C64.0698 20.4215 65.1748 19.9999 65.9782 19.1684C66.7812 18.3379 67.1883 17.2135 67.1883 15.828C67.1883 14.4594 66.8064 13.3675 66.0527 12.5832C65.2987 11.7985 64.2386 11.4007 62.902 11.4007ZM55.2305 13.0984V11.608H53.2062V20.214H55.2305V15.8117C55.2305 15.0632 55.4003 14.4482 55.7352 13.9837C56.0658 13.5247 56.5065 13.2921 57.0444 13.2921C57.2268 13.2921 57.4315 13.3222 57.6531 13.3817C57.8725 13.4408 58.0315 13.505 58.1252 13.5726L58.2103 13.6342V11.5933L58.1775 11.5792C57.989 11.4991 57.7222 11.4587 57.3848 11.4587C56.8761 11.4587 56.4208 11.6222 56.0309 11.944C55.6886 12.2269 55.4412 12.6148 55.2521 13.0984H55.2305ZM49.5808 11.4007C48.6521 11.4007 47.8237 11.5999 47.1191 11.9924C46.413 12.3859 45.867 12.9477 45.4955 13.662C45.1256 14.3746 44.9378 15.207 44.9378 16.1353C44.9378 16.9484 45.1199 17.6946 45.4798 18.3523C45.8398 19.011 46.3495 19.5264 46.9946 19.8838C47.6388 20.2408 48.3834 20.4218 49.2078 20.4218C50.1699 20.4218 50.9913 20.2295 51.6498 19.8502L51.6764 19.8349V17.9802L51.5913 18.0424C51.293 18.2597 50.9597 18.4331 50.6009 18.5581C50.2431 18.6829 49.9169 18.7461 49.6309 18.7461C48.8366 18.7461 48.1989 18.4975 47.736 18.0075C47.2721 17.5168 47.0369 16.8278 47.0369 15.9608C47.0369 15.0884 47.2822 14.3817 47.7656 13.8603C48.2475 13.3404 48.8864 13.0766 49.6643 13.0766C50.3297 13.0766 50.9781 13.3019 51.5915 13.7469L51.6764 13.8086V11.8544L51.649 11.839C51.4182 11.7097 51.1033 11.603 50.7125 11.5221C50.3232 11.4414 49.9426 11.4007 49.5808 11.4007ZM43.5436 11.6081H41.5192V20.214H43.5436V11.6081ZM42.5521 7.94194C42.2189 7.94194 41.9283 8.05536 41.6895 8.28012C41.4498 8.50552 41.3282 8.78931 41.3282 9.12422C41.3282 9.45387 41.4483 9.73248 41.6858 9.95188C41.9217 10.1707 42.2133 10.2815 42.5522 10.2815C42.891 10.2815 43.1836 10.1707 43.4223 9.95225C43.6626 9.73248 43.7845 9.45396 43.7845 9.12422C43.7845 8.80102 43.6659 8.52014 43.4322 8.2892C43.1988 8.05872 42.9025 7.94194 42.5521 7.94194ZM37.5011 10.9732V20.214H39.5671V8.20538H36.7077L33.0732 17.1251L29.5461 8.20538H26.5703V20.2139H28.5118V10.9723H28.5784L32.3029 20.214H33.7681L37.4344 10.9732H37.5011Z" fill="#505050"/>
<path id="Vector_2" d="M10.0448 13.7157H0.521484V4.19238H10.0448V13.7157Z" fill="#505050"/>
<path id="Vector_3" d="M20.5622 13.7157H11.0391V4.19238H20.5622V13.7157Z" fill="#505050"/>
<path id="Vector_4" d="M10.0445 24.2341H0.521484V14.7109H10.0445V24.2341Z" fill="#505050"/>
<path id="Vector_5" d="M20.5622 24.2341H11.0391V14.7109H20.5622V24.2341Z" fill="#505050"/>
</g>
<defs>
<clipPath id="clip0_1084_951">
<rect width="93.9583" height="27.5" fill="white" transform="translate(0.521484 0.75)"/>
</clipPath>
</defs>
</svg>
