<svg width="75" height="32" viewBox="0 0 75 32" fill="none" xmlns="http://www.w3.org/2000/svg">
<g id="Company logo" clip-path="url(#clip0_1084_948)">
<path id="Vector" d="M10.6983 25.3696C9.58599 25.5649 8.45414 25.6235 7.2833 25.7795L3.71206 15.3198V26.2284C2.59978 26.3454 1.58505 26.5015 0.53125 26.6576V6.6748H3.49753L7.55646 18.0129V6.6748H10.6983V25.3696ZM16.8454 13.9927C18.0553 13.9927 19.9092 13.9342 21.0215 13.9342V17.0564C19.6359 17.0564 18.0163 17.0564 16.8454 17.115V21.7595C18.6798 21.6425 20.5142 21.4862 22.3679 21.4277V24.4327L13.723 25.1159V6.6748H22.3679V9.79713H16.8454V13.9927ZM33.979 9.7972H30.7397V24.1598C29.6859 24.1598 28.6321 24.1598 27.6175 24.1988V9.7972H24.3781V6.6748H33.9792L33.979 9.7972ZM39.0528 13.7781H43.3265V16.9004H39.0528V23.9842H35.9888V6.6748H44.712V9.79713H39.0528V13.7781ZM49.7858 21.2521C51.5616 21.291 53.3568 21.4279 55.0937 21.5253V24.6086C52.3032 24.4329 49.5126 24.2575 46.6635 24.1988V6.6748H49.7858V21.2521ZM57.7281 24.8233C58.7234 24.8819 59.7772 24.9405 60.7919 25.0574V6.6748H57.7281V24.8233ZM74.4717 6.6748L70.5102 16.1784L74.4717 26.6576C73.3007 26.5015 72.1298 26.2869 70.9589 26.0917L68.7149 20.3155L66.4319 25.6235C65.2998 25.4282 64.207 25.3696 63.0754 25.2135L67.0953 16.0612L63.4655 6.6748H66.8219L68.8709 11.9242L71.0566 6.6748H74.4717V6.6748Z" fill="#505050"/>
</g>
<defs>
<clipPath id="clip0_1084_948">
<rect width="73.9365" height="31.9725" fill="white" transform="translate(0.53125 0.0136719)"/>
</clipPath>
</defs>
</svg>
