<svg width="33" height="32" viewBox="0 0 33 32" fill="none" xmlns="http://www.w3.org/2000/svg">
<g clip-path="url(#clip0_404_6686)">
<rect x="0.5" width="32" height="32" rx="16" fill="#1D1E22"/>
<path d="M16.5012 0C7.67823 0 0.5 7.17823 0.5 16.0012C0.5 24.8242 7.67823 32.0024 16.5012 32.0024C25.3242 32.0024 32.5024 24.8242 32.5024 16.0012C32.5024 7.17823 25.3242 0 16.5012 0ZM22.2532 16.7166L13.4487 22.0355C13.3225 22.1111 13.1784 22.1518 13.0313 22.1534C12.8842 22.1549 12.7393 22.1173 12.6115 22.0444C12.4838 21.9715 12.3777 21.866 12.3041 21.7385C12.2306 21.6111 12.1923 21.4664 12.1932 21.3193V10.6831C12.1923 10.536 12.2306 10.3913 12.3041 10.2639C12.3777 10.1364 12.4838 10.0309 12.6115 9.95797C12.7393 9.88508 12.8842 9.84748 13.0313 9.84905C13.1784 9.85062 13.3225 9.8913 13.4487 9.96691L22.2532 15.2858C22.3759 15.3605 22.4773 15.4656 22.5477 15.5909C22.6181 15.7162 22.6551 15.8575 22.6551 16.0012C22.6551 16.1449 22.6181 16.2862 22.5477 16.4115C22.4773 16.5368 22.3759 16.6419 22.2532 16.7166Z" fill="white"/>
</g>
<defs>
<clipPath id="clip0_404_6686">
<rect x="0.5" width="32" height="32" rx="16" fill="white"/>
</clipPath>
</defs>
</svg>
