<svg width="96" height="34" viewBox="0 0 96 34" fill="none" xmlns="http://www.w3.org/2000/svg">
<g id="Company logo" clip-path="url(#clip0_1088_2123)">
<g id="Vector">
<path d="M82.2157 16.2471V24.7839H84.6328V19.0927H93.4724V24.7839H95.8895V16.2471H82.2157ZM84.3565 13.4794H93.6796C94.9917 13.2065 95.924 11.8812 96.2003 10.6338H81.8358C82.1121 11.8812 83.0789 13.1676 84.3565 13.4794ZM74.8608 24.7839C76.0693 24.1992 76.7254 23.1857 77.0016 22.0162H66.1247V10.6728H63.6731V24.7839H74.8608ZM45.5449 13.4404H54.1774C55.4895 13.0116 56.56 11.8812 56.8362 10.6728H43.1624V19.0147H54.35V21.9383H45.5795C44.1983 22.3671 43.0242 23.4196 42.4372 24.7839H56.7671V16.2471H45.5795L45.5449 13.4404ZM24.2745 13.4794H33.5976C34.9097 13.2065 35.8766 11.8812 36.1183 10.6338H21.7193C21.9955 11.8812 22.9624 13.1676 24.2745 13.4794ZM24.2745 19.0537H33.5976C34.9097 18.7808 35.8766 17.4555 36.1183 16.2081H21.7193C21.9955 17.4555 22.9624 18.7418 24.2745 19.0537ZM24.2745 24.7839H33.5976C34.9097 24.511 35.8766 23.1857 36.1183 21.9383H21.7193C21.9955 23.1857 22.9624 24.511 24.2745 24.7839Z" fill="#505050"/>
<path d="M0 10.6728C0.276239 11.9202 1.24308 13.1676 2.52068 13.4794H6.45709L6.66427 13.5574V24.7449H9.11589V13.5574L9.32307 13.4794H13.2595C14.5716 13.0896 15.5039 11.9202 15.7802 10.6728V10.6338L0 10.6728Z" fill="#505050"/>
</g>
</g>
<defs>
<clipPath id="clip0_1088_2123">
<rect width="96" height="34" fill="white"/>
</clipPath>
</defs>
</svg>
