<svg width="57" height="20" viewBox="0 0 57 20" fill="none" xmlns="http://www.w3.org/2000/svg">
<g clip-path="url(#clip0_305_3029)">
<path d="M29.9105 5.85451C29.9105 6.45511 29.3994 6.93893 28.765 6.93893C28.1306 6.93893 27.6195 6.45511 27.6195 5.85451C27.6195 5.25391 28.113 4.7701 28.765 4.7701C29.417 4.78678 29.9105 5.2706 29.9105 5.85451ZM25.1876 8.04003C25.1876 8.14013 25.1876 8.30696 25.1876 8.30696C25.1876 8.30696 24.6413 7.63963 23.4782 7.63963C21.5574 7.63963 20.0595 9.02435 20.0595 10.9429C20.0595 12.8448 21.5397 14.2462 23.4782 14.2462C24.6589 14.2462 25.1876 13.5622 25.1876 13.5622V13.8458C25.1876 13.9793 25.2934 14.0794 25.4343 14.0794H26.8618V7.80646C26.8618 7.80646 25.5577 7.80646 25.4343 7.80646C25.2934 7.80646 25.1876 7.92325 25.1876 8.04003ZM25.1876 12.0607C24.9233 12.4278 24.3946 12.7447 23.7602 12.7447C22.6323 12.7447 21.7688 12.0774 21.7688 10.9429C21.7688 9.80847 22.6323 9.14113 23.7602 9.14113C24.377 9.14113 24.9409 9.4748 25.1876 9.82515V12.0607ZM27.9191 7.80646H29.6109V14.0794H27.9191V7.80646ZM53.1899 7.63963C52.0268 7.63963 51.4805 8.30696 51.4805 8.30696V4.78678H49.7888V14.0794C49.7888 14.0794 51.0928 14.0794 51.2162 14.0794C51.3572 14.0794 51.4629 13.9626 51.4629 13.8458V13.5622C51.4629 13.5622 52.0092 14.2462 53.1723 14.2462C55.0932 14.2462 56.5911 12.8448 56.5911 10.9429C56.5911 9.04103 55.0932 7.63963 53.1899 7.63963ZM52.908 12.7281C52.2559 12.7281 51.7449 12.4111 51.4805 12.044V9.80847C51.7449 9.4748 52.3088 9.12445 52.908 9.12445C54.0358 9.12445 54.8993 9.79178 54.8993 10.9263C54.8993 12.0607 54.0358 12.7281 52.908 12.7281ZM48.9076 10.359V14.0961H47.2159V10.5425C47.2159 9.50817 46.8634 9.09108 45.9118 9.09108C45.4007 9.09108 44.8721 9.34133 44.5372 9.70837V14.0794H42.8455V7.80646H44.1848C44.3258 7.80646 44.4315 7.92325 44.4315 8.04003V8.30696C44.9249 7.82315 45.577 7.63963 46.229 7.63963C46.9692 7.63963 47.5859 7.83983 48.0794 8.24023C48.6786 8.70737 48.9076 9.30797 48.9076 10.359ZM38.7394 7.63963C37.5763 7.63963 37.03 8.30696 37.03 8.30696V4.78678H35.3382V14.0794C35.3382 14.0794 36.6423 14.0794 36.7657 14.0794C36.9067 14.0794 37.0124 13.9626 37.0124 13.8458V13.5622C37.0124 13.5622 37.5587 14.2462 38.7218 14.2462C40.6426 14.2462 42.1406 12.8448 42.1406 10.9429C42.1582 9.04103 40.6603 7.63963 38.7394 7.63963ZM38.4574 12.7281C37.8054 12.7281 37.2944 12.4111 37.03 12.044V9.80847C37.2944 9.4748 37.8583 9.12445 38.4574 9.12445C39.5853 9.12445 40.4488 9.79178 40.4488 10.9263C40.4488 12.0607 39.5853 12.7281 38.4574 12.7281ZM33.8756 7.63963C34.3866 7.63963 34.651 7.72305 34.651 7.72305V9.20787C34.651 9.20787 33.2412 8.75742 32.36 9.70837V14.0961H30.6683V7.80646C30.6683 7.80646 31.9723 7.80646 32.0957 7.80646C32.2367 7.80646 32.3424 7.92325 32.3424 8.04003V8.30696C32.6596 7.95661 33.3469 7.63963 33.8756 7.63963ZM16.3058 13.5122C16.2177 13.312 16.1296 13.0951 16.0415 12.9116C15.9005 12.6113 15.7595 12.3277 15.6362 12.0607L15.6186 12.044C14.4026 9.54153 13.0985 7.00566 11.724 4.50316L11.6711 4.40306C11.5301 4.15281 11.3891 3.88588 11.2481 3.61894C11.0719 3.31864 10.8957 3.00166 10.6137 2.70136C10.0498 2.03403 9.23917 1.66699 8.37567 1.66699C7.49454 1.66699 6.70152 2.03403 6.11997 2.66799C5.85563 2.96829 5.66178 3.28528 5.48556 3.58558C5.34458 3.85251 5.2036 4.11944 5.06262 4.36969L5.00975 4.46979C3.65281 6.9723 2.33111 9.50817 1.11515 12.0107L1.09753 12.044C0.974173 12.311 0.833192 12.5946 0.692212 12.8949C0.604098 13.0784 0.515985 13.2786 0.427872 13.4955C0.198779 14.1128 0.128288 14.6967 0.216401 15.2973C0.41025 16.5485 1.29138 17.5996 2.50734 18.0667C2.96553 18.2502 3.44134 18.3337 3.93477 18.3337C4.07575 18.3337 4.25198 18.317 4.39296 18.3003C4.9745 18.2336 5.57367 18.05 6.15522 17.7331C6.87774 17.3493 7.56503 16.7988 8.34042 15.998C9.11582 16.7988 9.82072 17.3493 10.5256 17.7331C11.1072 18.05 11.7063 18.2336 12.2879 18.3003C12.4289 18.317 12.6051 18.3337 12.7461 18.3337C13.2395 18.3337 13.7329 18.2502 14.1735 18.0667C15.4071 17.5996 16.2706 16.5319 16.4644 15.2973C16.6054 14.7134 16.5349 14.1295 16.3058 13.5122ZM8.35804 14.3797C7.40642 13.2452 6.78963 12.1775 6.57816 11.2766C6.49005 10.8929 6.47242 10.5592 6.52529 10.2589C6.56054 9.99198 6.66627 9.75842 6.80725 9.55822C7.14208 9.10777 7.70601 8.82415 8.35804 8.82415C9.01008 8.82415 9.59163 9.09108 9.90883 9.55822C10.0498 9.75842 10.1555 9.99198 10.1908 10.2589C10.2437 10.5592 10.226 10.9096 10.1379 11.2766C9.92645 12.1608 9.30966 13.2286 8.35804 14.3797ZM15.3895 15.1638C15.2661 16.0314 14.6493 16.7821 13.7858 17.1158C13.3629 17.2826 12.9047 17.3327 12.4465 17.2826C12.0059 17.2326 11.5654 17.0991 11.1072 16.8488C10.4728 16.5152 9.83834 15.998 9.09819 15.2306C10.2613 13.8792 10.9662 12.6446 11.2305 11.5435C11.3539 11.0264 11.3715 10.5592 11.3186 10.1255C11.2481 9.70837 11.0895 9.32465 10.8428 8.99098C10.2965 8.24023 9.38015 7.80646 8.35804 7.80646C7.33593 7.80646 6.41956 8.25692 5.87326 8.99098C5.62654 9.32465 5.46794 9.70837 5.39745 10.1255C5.32696 10.5592 5.34458 11.043 5.48556 11.5435C5.7499 12.6446 6.47242 13.8959 7.61789 15.2472C6.89537 16.0147 6.24333 16.5319 5.60892 16.8655C5.15073 17.1158 4.71016 17.2492 4.2696 17.2993C3.79379 17.3493 3.3356 17.2826 2.93028 17.1325C2.06677 16.7988 1.44998 16.048 1.32663 15.1805C1.27376 14.7634 1.309 14.3463 1.48523 13.8792C1.5381 13.7124 1.62621 13.5455 1.71432 13.3453C1.83768 13.0784 1.97866 12.7948 2.11964 12.5112L2.13726 12.4778C3.35322 9.99198 4.6573 7.45611 6.01424 4.98698L6.06711 4.88688C6.20809 4.63663 6.34907 4.36969 6.49005 4.11944C6.63103 3.85251 6.78963 3.60226 6.98348 3.38538C7.35355 2.98498 7.84699 2.76809 8.39329 2.76809C8.93959 2.76809 9.43302 2.98498 9.8031 3.38538C9.99694 3.60226 10.1555 3.85251 10.2965 4.11944C10.4375 4.36969 10.5785 4.63663 10.7195 4.88688L10.7723 4.98698C12.1117 7.4728 13.4157 10.0087 14.6317 12.4945V12.5112C14.7727 12.7781 14.896 13.0784 15.037 13.3453C15.1251 13.5455 15.2132 13.7124 15.2661 13.8792C15.4071 14.313 15.46 14.7301 15.3895 15.1638Z" fill="#1D1E22" fill-opacity="0.8"/>
</g>
<defs>
<clipPath id="clip0_305_3029">
<rect width="56.3359" height="20" fill="white" transform="translate(0.179688)"/>
</clipPath>
</defs>
</svg>
