<svg width="49" height="20" viewBox="0 0 49 20" fill="none" xmlns="http://www.w3.org/2000/svg">
<g clip-path="url(#clip0_305_3031)">
<path fill-rule="evenodd" clip-rule="evenodd" d="M30.4141 15.7526C27.6133 17.7069 23.5538 18.7496 20.0586 18.7496C15.1578 18.7496 10.7458 17.0336 7.40797 14.1796C7.14573 13.9551 7.3807 13.6493 7.69539 13.824C11.2976 15.8082 15.7515 17.0018 20.3523 17.0018C23.4552 17.0018 26.8685 16.3941 30.0071 15.1329C30.4812 14.9422 30.8777 15.4268 30.4141 15.7526Z" fill="#1D1E22" fill-opacity="0.8"/>
<path fill-rule="evenodd" clip-rule="evenodd" d="M31.5785 14.4914C31.2218 14.0584 29.212 14.2868 28.3099 14.3881C28.0351 14.4199 27.9931 14.1935 28.2406 14.0306C29.8414 12.9641 32.468 13.2719 32.7743 13.6294C33.0806 13.9889 32.6946 16.4815 31.1904 17.6712C30.9596 17.8539 30.7393 17.7566 30.8421 17.5143C31.1799 16.7159 31.9372 14.9264 31.5785 14.4914Z" fill="#1D1E22" fill-opacity="0.8"/>
<path fill-rule="evenodd" clip-rule="evenodd" d="M28.3743 6.50152V5.46475C28.3743 5.30785 28.5002 5.20259 28.6513 5.20259H33.5542C33.7115 5.20259 33.8374 5.30984 33.8374 5.46475V6.35256C33.8353 6.50152 33.7031 6.69616 33.4681 7.00401L30.9275 10.438C31.8716 10.4162 32.8681 10.5493 33.7241 11.0061C33.9171 11.1093 33.9696 11.2603 33.9842 11.4092V12.5155C33.9842 12.6665 33.808 12.8432 33.6234 12.7519C32.115 12.0031 30.1114 11.9217 28.4436 12.7598C28.2736 12.8472 28.0953 12.6724 28.0953 12.5215V11.4708C28.0953 11.302 28.0974 11.014 28.2757 10.7578L31.2191 6.7617H28.6575C28.5002 6.7617 28.3743 6.65643 28.3743 6.50152Z" fill="#1D1E22" fill-opacity="0.8"/>
<path fill-rule="evenodd" clip-rule="evenodd" d="M10.4893 12.9704H8.99765C8.85499 12.9604 8.7417 12.8591 8.73121 12.73V5.48265C8.73121 5.33766 8.85919 5.22246 9.01863 5.22246H10.4096C10.5543 5.22842 10.6697 5.33368 10.6802 5.46477V6.41215H10.7075C11.0704 5.49655 11.7523 5.06953 12.6712 5.06953C13.6047 5.06953 14.188 5.49655 14.6076 6.41215C14.9684 5.49655 15.7887 5.06953 16.6678 5.06953C17.2929 5.06953 17.9769 5.31382 18.3944 5.862C18.8664 6.47174 18.7699 7.35755 18.7699 8.13413L18.7678 12.7082C18.7678 12.8532 18.6398 12.9704 18.4804 12.9704H16.9908C16.8419 12.9604 16.7223 12.8472 16.7223 12.7082V8.86701C16.7223 8.56115 16.7517 7.79847 16.6803 7.5085C16.5692 7.0219 16.2356 6.88485 15.8034 6.88485C15.4426 6.88485 15.0649 7.11326 14.9118 7.47871C14.7586 7.84415 14.7733 8.45588 14.7733 8.86701V12.7082C14.7733 12.8532 14.6453 12.9704 14.4859 12.9704H12.9963C12.8453 12.9604 12.7278 12.8472 12.7278 12.7082L12.7257 8.86701C12.7257 8.05866 12.8663 6.86896 11.8068 6.86896C10.7348 6.86896 10.7767 8.02886 10.7767 8.86701V12.7082C10.7767 12.8532 10.6487 12.9704 10.4893 12.9704Z" fill="#1D1E22" fill-opacity="0.8"/>
<path fill-rule="evenodd" clip-rule="evenodd" d="M38.0584 5.06953C40.2717 5.06953 41.4697 6.86896 41.4697 9.15699C41.4697 11.3675 40.1459 13.1213 38.0584 13.1213C35.8849 13.1213 34.7017 11.3219 34.7017 9.07953C34.7017 6.82328 35.8996 5.06953 38.0584 5.06953ZM38.071 6.5492C36.9717 6.5492 36.9024 7.96729 36.9024 8.85112C36.9024 9.73694 36.8877 11.6277 38.0584 11.6277C39.2144 11.6277 39.2689 10.1024 39.2689 9.17287C39.2689 8.56115 39.2416 7.83025 39.0465 7.2503C38.8787 6.74582 38.5451 6.5492 38.071 6.5492Z" fill="#1D1E22" fill-opacity="0.8"/>
<path fill-rule="evenodd" clip-rule="evenodd" d="M44.3397 12.9704H42.8544C42.7054 12.9604 42.5858 12.8472 42.5858 12.7082L42.5837 5.45881C42.5963 5.32574 42.7201 5.22246 42.8712 5.22246H44.2537C44.3838 5.22842 44.4908 5.31184 44.5201 5.42505V6.53331H44.5474C44.9649 5.54223 45.5502 5.06953 46.5803 5.06953C47.2496 5.06953 47.902 5.29793 48.3216 5.92357C48.7118 6.50352 48.7118 7.47871 48.7118 8.17981V12.742C48.6951 12.8691 48.5713 12.9704 48.4244 12.9704H46.9286C46.7922 12.9604 46.6789 12.8651 46.6642 12.742V8.80544C46.6642 8.01298 46.7607 6.85307 45.7307 6.85307C45.3677 6.85307 45.0341 7.08347 44.8684 7.43302C44.6586 7.87593 44.6313 8.31685 44.6313 8.80544V12.7082C44.6292 12.8532 44.4992 12.9704 44.3397 12.9704Z" fill="#1D1E22" fill-opacity="0.8"/>
<path fill-rule="evenodd" clip-rule="evenodd" d="M24.4659 9.50852C24.4659 10.0587 24.4805 10.5175 24.1868 11.0061C23.9498 11.4033 23.5721 11.6476 23.1546 11.6476C22.5819 11.6476 22.2462 11.2345 22.2462 10.6247C22.2462 9.42113 23.3854 9.20266 24.4659 9.20266V9.50852ZM25.9701 12.9505C25.8715 13.0339 25.7288 13.0399 25.6176 12.9843C25.1225 12.595 25.0323 12.4142 24.7617 12.0428C23.9435 12.8333 23.3623 13.0697 22.3029 13.0697C21.0462 13.0697 20.0707 12.3368 20.0707 10.869C20.0707 9.72302 20.7252 8.94247 21.6609 8.56114C22.4707 8.22349 23.6015 8.16391 24.4659 8.07056V7.88784C24.4659 7.55218 24.4931 7.15495 24.2833 6.86498C24.1029 6.60479 23.7546 6.49754 23.4463 6.49754C22.8777 6.49754 22.3721 6.77362 22.2483 7.34562C22.2231 7.47273 22.1245 7.59786 21.9882 7.60382L20.5427 7.45684C20.421 7.43103 20.2846 7.33768 20.3203 7.16091C20.6518 5.50051 22.2378 5 23.656 5C24.3819 5 25.3302 5.18272 25.9029 5.70309C26.6288 6.34461 26.5596 7.20063 26.5596 8.13213V10.3328C26.5596 10.9941 26.8491 11.2841 27.1219 11.6416C27.2163 11.7687 27.2372 11.9217 27.1156 12.017C26.8114 12.2573 26.2701 12.7042 25.9722 12.9545L25.9701 12.9505Z" fill="#1D1E22" fill-opacity="0.8"/>
<path fill-rule="evenodd" clip-rule="evenodd" d="M4.91083 9.50852C4.91083 10.0587 4.92551 10.5175 4.6318 11.0061C4.39473 11.4033 4.0192 11.6476 3.59961 11.6476C3.02687 11.6476 2.69329 11.2345 2.69329 10.6247C2.69329 9.42113 3.83248 9.20265 4.91083 9.20265V9.50852ZM6.41505 12.9505C6.31645 13.0339 6.17379 13.0399 6.0626 12.9842C5.56748 12.595 5.47937 12.4142 5.20664 12.0428C4.38844 12.8333 3.8094 13.0696 2.74784 13.0696C1.49327 13.0696 0.515625 12.3368 0.515625 10.869C0.515625 9.72302 1.17228 8.94247 2.10587 8.56113C2.91568 8.22349 4.04647 8.16391 4.91083 8.07056V7.88783C4.91083 7.55218 4.9381 7.15495 4.7304 6.86498C4.54788 6.60479 4.19962 6.49754 3.89332 6.49754C3.32478 6.49754 2.81707 6.77361 2.69329 7.34562C2.66812 7.47273 2.56952 7.59786 2.43525 7.60382L0.987663 7.45684C0.865982 7.43102 0.731713 7.33768 0.76528 7.16091C1.09885 5.50051 2.6828 5 4.10102 5C4.82691 5 5.77518 5.18272 6.34792 5.70309C7.07381 6.34461 7.00458 7.20063 7.00458 8.13213V10.3328C7.00458 10.9941 7.29409 11.2841 7.56683 11.6416C7.66333 11.7687 7.68431 11.9217 7.56263 12.017C7.25843 12.2573 6.71716 12.7042 6.41925 12.9545L6.41505 12.9505Z" fill="#1D1E22" fill-opacity="0.8"/>
</g>
<defs>
<clipPath id="clip0_305_3031">
<rect width="48.4137" height="20" fill="white" transform="translate(0.515625)"/>
</clipPath>
</defs>
</svg>
