<svg width="162" height="47" viewBox="0 0 162 47" fill="none" xmlns="http://www.w3.org/2000/svg">
<g id="Company logo" clip-path="url(#clip0_428_538)">
<g id="Vector">
<path d="M63.1606 14.6657C63.1606 14.0203 63.4169 13.4014 63.8733 12.9451C64.3296 12.4888 64.9486 12.2324 65.5939 12.2324C66.2392 12.2324 66.8581 12.4888 67.3144 12.9451C67.7708 13.4014 68.0271 14.0203 68.0271 14.6657C68.0036 15.2953 67.737 15.8913 67.2832 16.3284C66.8294 16.7656 66.224 17.0098 65.5939 17.0098C64.9638 17.0098 64.3582 16.7656 63.9045 16.3284C63.4507 15.8913 63.1841 15.2953 63.1606 14.6657Z" fill="#505050"/>
<path d="M23.2272 29.8379C21.1328 29.8379 19.6756 28.1739 19.6756 25.7949C19.6756 23.4176 21.1328 21.7553 23.2289 21.7553C25.3351 21.7553 26.8076 23.4176 26.8076 25.7949C26.8076 28.2112 25.3673 29.8379 23.2272 29.8379ZM23.2272 18.202C18.7945 18.202 15.5767 21.3961 15.5767 25.7949C15.5767 30.1954 18.7962 33.3878 23.2272 33.3878C27.6786 33.3878 30.9081 30.1954 30.9081 25.7966C30.9081 21.3961 27.6785 18.202 23.2289 18.202H23.2272ZM58.4482 26.1762C58.294 25.8778 58.099 25.6023 57.8688 25.3577L57.7332 25.2171L57.8756 25.0815C58.0789 24.8663 58.2873 24.6122 58.4872 24.3173L62.4014 18.5019H57.6502L54.7103 23.0516C54.5442 23.2956 54.2088 23.4176 53.7055 23.4176H53.0362V14.8165C53.0362 13.0966 51.9636 12.8628 50.8063 12.8628H48.8237L48.8288 33.1641H53.0378V27.0742H53.4327C53.9122 27.0742 54.2375 27.1302 54.3883 27.3911L56.7097 31.773C57.3587 32.9625 58.0043 33.1641 59.2209 33.1641H62.4455L60.0428 29.1923L58.45 26.1762H58.4482ZM78.8802 18.1681C76.7384 18.1681 75.3726 19.1204 74.6067 19.9253L74.3526 20.1828L74.261 19.8321C74.0374 18.9696 73.2783 18.4969 72.1379 18.4969H70.2519L70.2638 33.1591H74.444V26.4015C74.444 25.7407 74.5287 25.168 74.7049 24.6444C75.1692 23.0601 76.4672 22.0756 78.0888 22.0756C79.3935 22.0756 79.9036 22.7652 79.9036 24.5444V30.9308C79.9036 32.4491 80.6068 33.1591 82.1267 33.1591H84.116L84.1093 23.8327C84.1093 20.1286 82.3013 18.1698 78.8802 18.1698V18.1681ZM65.6447 18.5019H63.6638L63.6774 29.8396V33.1641H65.7904L65.8649 33.1675L66.8512 33.1641H67.8306V33.1591H67.8373L67.8458 20.7302C67.8458 19.2306 67.1291 18.5036 65.6464 18.5036L65.6447 18.5019ZM39.6448 29.8379C37.5504 29.8379 36.0915 28.1739 36.0915 25.7949C36.0915 23.4176 37.5505 21.7553 39.6466 21.7553C41.7477 21.7553 43.2253 23.4176 43.2253 25.7949C43.2253 28.2112 41.785 29.8379 39.6466 29.8379H39.6448ZM39.6448 18.202C35.2087 18.202 31.9892 21.3961 31.9892 25.7949C31.9892 30.1954 35.2088 33.3878 39.6466 33.3878C44.0911 33.3878 47.3275 30.1954 47.3275 25.7966C47.3275 21.3961 44.0911 18.202 39.6466 18.202" fill="#505050"/>
<path d="M92.9221 29.1922C90.6363 29.1922 89.823 27.1996 89.823 25.3306C89.823 24.507 90.0313 21.8247 92.7035 21.8247C94.0303 21.8247 95.7976 22.2043 95.7976 25.4678C95.7976 28.5467 94.2337 29.1922 92.9221 29.1922ZM97.9682 18.4629C97.1752 18.4629 96.5652 18.7798 96.2585 19.3576L96.1433 19.5812L95.9501 19.4118C95.2757 18.8289 94.0659 18.1359 92.102 18.1359C88.1929 18.1359 85.5614 21.0724 85.5614 25.439C85.5614 29.8039 88.2844 32.854 92.18 32.854C93.5101 32.854 94.5623 32.5422 95.396 31.9119L95.7179 31.6696V32.0762C95.7179 34.035 94.4522 35.1161 92.1562 35.1161C91.0395 35.1161 90.0246 34.845 89.3434 34.5976C88.4589 34.3299 87.937 34.5518 87.5795 35.4414L87.2474 36.2616L86.7779 37.4612L87.0677 37.6154C88.5385 38.3949 90.4516 38.8609 92.18 38.8609C95.7384 38.8609 99.8965 37.0393 99.8965 31.9119L99.9118 18.4629H97.9682Z" fill="#505050"/>
<path d="M7.66185 29.6701L4.25937 29.6667V25.6C4.25937 24.729 4.59657 24.2783 5.34044 24.1732H7.66185C9.31734 24.1732 10.3882 25.217 10.3899 26.9064C10.3882 28.6415 9.34445 29.6684 7.66185 29.6684V29.6701ZM4.25937 17.6258C4.25937 16.6888 4.65589 16.2431 5.52515 16.1855H7.26709C8.75991 16.1855 9.65458 17.0785 9.65458 18.5747C9.65458 19.7134 9.04116 21.0436 7.32128 21.0436H4.25937V17.6258ZM12.0065 22.7567L11.3913 22.411L11.9285 21.9518C12.5538 21.4146 13.5993 20.2065 13.5993 18.1223C13.5993 14.9299 11.1254 12.8695 7.29418 12.8695H2.42425C1.87628 12.8894 1.35704 13.1195 0.974067 13.5119C0.591099 13.9043 0.373786 14.4291 0.367188 14.9774V33.0912H7.38054C11.6387 33.0912 14.3872 30.7732 14.3872 27.1826C14.3872 25.2492 13.4993 23.5971 12.0065 22.7567Z" fill="#505050"/>
</g>
<g id="Vector_2">
<path d="M101.553 30.8928C101.553 29.5423 102.641 28.4511 103.981 28.4511C104.628 28.4511 105.249 28.7082 105.706 29.1658C106.164 29.6234 106.421 30.244 106.421 30.8911C106.421 31.5383 106.164 32.1589 105.706 32.6165C105.249 33.0741 104.628 33.3312 103.981 33.3312C102.642 33.3312 101.553 32.2382 101.553 30.8911" fill="#505050"/>
<path d="M129.24 29.8371C127.146 29.8371 125.685 28.1731 125.685 25.7941C125.685 23.4167 127.146 21.7545 129.24 21.7545C131.345 21.7545 132.821 23.4167 132.821 25.7941C132.821 28.2104 131.38 29.8371 129.24 29.8371ZM129.24 18.2012C124.804 18.2012 121.586 21.3952 121.586 25.7941C121.586 30.1946 124.804 33.387 129.24 33.387C133.687 33.387 136.921 30.1946 136.921 25.7958C136.921 21.3952 133.685 18.2012 129.24 18.2012Z" fill="#505050"/>
<path d="M155.593 18.2165C154.73 18.2196 153.878 18.4166 153.102 18.7929C152.325 19.1692 151.643 19.7152 151.106 20.3905L150.804 20.7734L150.567 20.3447C149.791 18.9332 148.459 18.2165 146.607 18.2165C144.663 18.2165 143.36 19.3009 142.755 19.9448L142.359 20.3735L142.206 19.8093C141.986 18.9959 141.263 18.5503 140.168 18.5503H138.411L138.394 33.1566H142.384V26.7091C142.384 26.1432 142.455 25.5857 142.596 25.0011C142.977 23.4422 144.024 21.7664 145.785 21.9341C146.869 22.0392 147.402 22.8779 147.402 24.4978V33.1566H151.421V26.7091C151.421 26.0025 151.487 25.4739 151.646 24.9452C151.968 23.4574 153.063 21.9324 154.761 21.9324C155.991 21.9324 156.445 22.6272 156.445 24.4978V31.0215C156.445 32.4957 157.102 33.1566 158.578 33.1566H160.456L160.459 23.8319C160.459 20.1058 158.819 18.2165 155.593 18.2165ZM119.273 28.085C119.262 28.1003 117.545 29.91 115.283 29.91C113.223 29.91 111.142 28.6459 111.142 25.8246C111.142 23.388 112.755 21.685 115.066 21.685C115.815 21.685 116.669 21.9528 116.803 22.4052L116.822 22.4814C116.907 22.7929 117.093 23.0675 117.35 23.2627C117.607 23.4578 117.922 23.5626 118.245 23.5608L120.431 23.5642V21.6528C120.431 19.1315 117.223 18.2165 115.066 18.2165C110.45 18.2165 107.102 21.4292 107.102 25.8551C107.102 30.2777 110.413 33.487 114.981 33.487C118.943 33.487 121.098 30.8826 121.119 30.8572L121.234 30.7148L119.502 27.8427L119.273 28.085Z" fill="#505050"/>
</g>
</g>
<defs>
<clipPath id="clip0_428_538">
<rect width="160.745" height="46.7622" fill="white" transform="translate(0.369141 0.197754)"/>
</clipPath>
</defs>
</svg>
