<svg width="96" height="26" viewBox="0 0 96 26" fill="none" xmlns="http://www.w3.org/2000/svg">
<g id="Company logo" clip-path="url(#clip0_1088_2130)">
<path id="Vector" d="M27.8909 11.5717V16.4782H29.1142C29.4264 16.4735 29.7346 16.4063 30.0203 16.2805C30.3061 16.1547 30.5638 15.9729 30.778 15.7458C31.2178 15.2802 31.4585 14.6613 31.4487 14.0209C31.458 13.7028 31.4044 13.386 31.2909 13.0887C31.1774 12.7914 31.0063 12.5194 30.7874 12.2885C30.5722 12.061 30.3128 11.88 30.025 11.7567C29.7373 11.6333 29.4273 11.5701 29.1142 11.571H27.8915L27.8909 11.5717ZM29.1142 10.0333C31.3944 10.0333 33.1193 11.8 33.1193 14.0209C33.1193 16.2417 31.3944 18.0184 29.1142 18.0184H26.4161C26.3904 18.0181 26.365 18.0127 26.3413 18.0026C26.3177 17.9924 26.2963 17.9777 26.2783 17.9593C26.2604 17.9409 26.2462 17.9191 26.2367 17.8952C26.2271 17.8713 26.2224 17.8458 26.2227 17.8201V10.2398C26.2227 10.13 26.3094 10.0407 26.4161 10.0407L29.1142 10.0333ZM38.9965 16.6491C40.0321 16.6522 40.9673 16.0153 41.3659 15.0352C41.5612 14.5564 41.6134 14.0312 41.5161 13.5233C41.4189 13.0154 41.1765 12.5465 40.8182 12.1737C40.4661 11.8069 40.0111 11.5556 39.5132 11.4529C39.0153 11.3502 38.498 11.4009 38.0296 11.5985C37.0726 12.0027 36.4475 12.9591 36.4456 14.0209C36.4456 15.4682 37.586 16.6422 38.9972 16.6491H38.9965ZM38.9972 9.85235C41.3971 9.85235 43.2318 11.7438 43.2318 14.0209C43.2318 16.2979 41.3971 18.1894 38.9965 18.1894C36.5966 18.1894 34.7775 16.3072 34.7775 14.0209C34.7775 11.7345 36.6122 9.85235 38.9965 9.85235H38.9972ZM49.0616 16.6491C50.4734 16.6454 51.6156 15.47 51.6144 14.0227C51.6125 12.5742 50.4678 11.4013 49.0566 11.4007C47.6442 11.4007 46.4989 12.5729 46.497 14.0209C46.497 14.7183 46.7671 15.3871 47.2481 15.8799C47.4835 16.1228 47.7653 16.316 48.0766 16.4481C48.388 16.5802 48.7227 16.6486 49.061 16.6491H49.0616ZM49.061 9.85235C51.4534 9.85235 53.2881 11.7345 53.2881 14.0209C53.2881 16.3072 51.4459 18.1894 49.061 18.1894C46.6767 18.1894 44.8263 16.3072 44.8263 14.0209C44.8263 11.7345 46.6611 9.85235 49.061 9.85235ZM58.884 11.5717H57.1591V13.6834H58.884C59.0203 13.6894 59.1564 13.6674 59.2838 13.6188C59.4113 13.5702 59.5275 13.496 59.6251 13.4008C59.8248 13.2074 59.9383 12.9391 59.9408 12.6571C59.9458 12.5141 59.9219 12.3715 59.8704 12.2379C59.819 12.1043 59.7411 11.9825 59.6414 11.8798C59.5435 11.7788 59.4255 11.6993 59.2951 11.6465C59.1647 11.5938 59.0246 11.5689 58.884 11.5735V11.5717ZM55.4903 10.2398C55.4903 10.13 55.5776 10.0407 55.6843 10.0407H58.932C60.4804 10.0407 61.6008 11.2042 61.6008 12.6653C61.6127 13.6534 61.0731 14.5611 60.2115 15.0034L61.7094 17.719C61.7301 17.7502 61.7418 17.7866 61.7431 17.824C61.7444 17.8614 61.7354 17.8985 61.7169 17.9311C61.6988 17.9632 61.672 17.9894 61.6395 18.0067C61.6069 18.0239 61.5702 18.0315 61.5335 18.0284H60.219C60.1826 18.0289 60.1467 18.0191 60.1156 18.0002C60.0845 17.9812 60.0593 17.9538 60.0431 17.9211L58.5995 15.2336H57.1529V17.8138C57.1533 17.8396 57.1486 17.8652 57.1391 17.8892C57.1296 17.9131 57.1154 17.935 57.0975 17.9535C57.0795 17.972 57.0581 17.9867 57.0344 17.9969C57.0107 18.0071 56.9852 18.0125 56.9595 18.0128H55.6931C55.6673 18.0125 55.6418 18.0071 55.6181 17.9969C55.5945 17.9867 55.573 17.972 55.555 17.9535C55.5371 17.935 55.5229 17.9131 55.5134 17.8892C55.5039 17.8652 55.4993 17.8396 55.4997 17.8138L55.4909 10.2404L55.4903 10.2398ZM65.9503 11.6091V16.5162H67.173C67.4851 16.512 67.7933 16.4452 68.0791 16.3199C68.365 16.1945 68.6229 16.0131 68.8374 15.7863C69.2774 15.3213 69.5185 14.7028 69.5093 14.0627C69.5193 13.7442 69.4662 13.4269 69.353 13.129C69.2398 12.8312 69.0688 12.5586 68.8499 12.3271C68.6344 12.0993 68.3744 11.9181 68.0861 11.7947C67.7978 11.6713 67.4872 11.6084 67.1736 11.6097L65.9503 11.6091ZM67.173 10.0688C69.4532 10.0688 71.1781 11.8374 71.1781 14.0627C71.1781 16.2879 69.4532 18.0565 67.173 18.0565H64.483C64.4572 18.0562 64.4318 18.0508 64.4081 18.0406C64.3844 18.0304 64.363 18.0156 64.345 17.9971C64.327 17.9787 64.3129 17.9568 64.3034 17.9328C64.2939 17.9089 64.2892 17.8833 64.2896 17.8575V10.2778C64.2896 10.1674 64.3763 10.0782 64.483 10.0782L67.1736 10.0688H67.173ZM76.2661 12.0202L75.3198 14.6441H77.2106L76.2661 12.0202ZM74.7645 16.127L74.1451 17.8737C74.1326 17.9148 74.1069 17.9506 74.0719 17.9755C74.0369 18.0003 73.9946 18.0128 73.9517 18.011H72.6079C72.5737 18.0141 72.5393 18.0081 72.5082 17.9934C72.4771 17.9787 72.4506 17.9559 72.4314 17.9274C72.4117 17.8985 72.3999 17.8651 72.3969 17.8304C72.394 17.7956 72.4 17.7607 72.4145 17.729L75.3179 10.1562C75.3314 10.1162 75.3577 10.0818 75.3926 10.0582C75.4275 10.0345 75.4692 10.0229 75.5113 10.0252H77.0147C77.057 10.0228 77.0988 10.0343 77.1338 10.058C77.1689 10.0816 77.1952 10.1161 77.2088 10.1562L80.1121 17.729C80.1265 17.7608 80.1325 17.7957 80.1294 17.8305C80.1264 17.8652 80.1144 17.8986 80.0947 17.9274C80.0754 17.9557 80.0488 17.9784 80.0177 17.993C79.9867 18.0076 79.9523 18.0136 79.9181 18.0103H78.575C78.5321 18.0122 78.4898 17.9997 78.4548 17.9748C78.4198 17.95 78.394 17.9142 78.3816 17.8731L77.7621 16.1263H74.7645V16.127ZM81.6699 12.1905C81.6699 10.9366 82.7266 9.85235 84.3954 9.85235C85.2941 9.83228 86.1642 10.1684 86.8159 10.7875C86.8358 10.8063 86.8516 10.8289 86.8624 10.854C86.8733 10.8791 86.8788 10.9061 86.8788 10.9335C86.8788 10.9608 86.8733 10.9878 86.8624 11.0129C86.8516 11.038 86.8358 11.0607 86.8159 11.0794L86.0717 11.8374C86.0539 11.8558 86.0326 11.8705 86.009 11.8805C85.9854 11.8905 85.9601 11.8956 85.9345 11.8956C85.9088 11.8956 85.8835 11.8905 85.8599 11.8805C85.8363 11.8705 85.815 11.8558 85.7972 11.8374C85.4467 11.5088 84.9863 11.3227 84.5058 11.3153C83.8383 11.3153 83.3449 11.7126 83.3449 12.1712C83.3449 13.6534 87.2894 12.7981 87.2894 15.6503C87.2876 17.0958 86.2227 18.1894 84.3399 18.1894C83.8171 18.1947 83.2985 18.0949 82.8151 17.8958C82.3316 17.6966 81.8932 17.4023 81.5258 17.0303C81.5059 17.0115 81.4901 16.9889 81.4793 16.9638C81.4684 16.9387 81.4629 16.9116 81.4629 16.8843C81.4629 16.857 81.4684 16.8299 81.4793 16.8048C81.4901 16.7797 81.5059 16.7571 81.5258 16.7383L82.2457 15.9997C82.2636 15.9804 82.2853 15.965 82.3095 15.9544C82.3336 15.9439 82.3597 15.9385 82.386 15.9385C82.4124 15.9385 82.4385 15.9439 82.4626 15.9544C82.4868 15.965 82.5085 15.9804 82.5264 15.9997C82.9795 16.4488 83.5897 16.7039 84.2276 16.7109C85.0617 16.7109 85.6113 16.2542 85.6113 15.6822C85.6113 14.1993 81.6686 15.0552 81.6686 12.2024L81.6699 12.1905ZM94.4424 10.2298V13.2267H91.1036V10.2298C91.1039 10.204 91.0992 10.1785 91.0897 10.1546C91.0801 10.1307 91.066 10.1089 91.048 10.0905C91.0301 10.0721 91.0086 10.0574 90.985 10.0473C90.9613 10.0371 90.9359 10.0317 90.9102 10.0314H89.6438C89.6181 10.0317 89.5927 10.0371 89.569 10.0473C89.5454 10.0574 89.524 10.0721 89.506 10.0905C89.4881 10.1089 89.4739 10.1307 89.4644 10.1546C89.4548 10.1785 89.4501 10.204 89.4504 10.2298V17.8013C89.4504 17.9111 89.5378 18.0004 89.6438 18.0004H90.9102C91.0163 18.0004 91.1036 17.9111 91.1036 17.8013V14.757H94.4399V17.8013C94.4399 17.9111 94.5273 18.0004 94.6333 18.0004H95.8997C96.0064 18.0004 96.0931 17.9111 96.0931 17.8013V10.2298C96.0934 10.204 96.0887 10.1785 96.0791 10.1546C96.0696 10.1307 96.0555 10.1089 96.0375 10.0905C96.0195 10.0721 95.9981 10.0574 95.9745 10.0473C95.9508 10.0371 95.9254 10.0317 95.8997 10.0314H94.6333C94.5818 10.0327 94.5329 10.0543 94.4971 10.0914C94.4614 10.1285 94.4417 10.1782 94.4424 10.2298ZM19.114 11.042C18.2357 9.41378 16.517 8.40004 14.648 8.40628H0.506691C0.411191 8.40667 0.317917 8.43515 0.238489 8.48817C0.159062 8.5412 0.0969944 8.61642 0.0600194 8.70448C0.0235848 8.79196 0.0140956 8.88834 0.0327672 8.98125C0.0514389 9.07416 0.0974212 9.15939 0.164825 9.22601L3.24536 12.2828C3.51736 12.5536 3.88792 12.7052 4.27345 12.7052H14.2425C14.953 12.6977 15.5338 13.2604 15.5413 13.961C15.5488 14.6615 14.9792 15.2355 14.2687 15.2423H7.39578C7.30021 15.2424 7.20677 15.2706 7.12711 15.3234C7.04746 15.3762 6.98511 15.4513 6.94787 15.5393C6.91108 15.6269 6.90134 15.7235 6.91991 15.8166C6.93848 15.9098 6.9845 15.9953 7.05205 16.0621L10.1345 19.1214C10.4082 19.392 10.7777 19.5436 11.1625 19.5431H14.2712C18.3155 19.5431 21.3736 15.276 19.114 11.0401" fill="#505050"/>
</g>
<defs>
<clipPath id="clip0_1088_2130">
<rect width="95.9583" height="24.5" fill="white" transform="translate(0.0214844 0.75)"/>
</clipPath>
</defs>
</svg>
