<svg width="76" height="33" viewBox="0 0 76 33" fill="none" xmlns="http://www.w3.org/2000/svg">
<g id="Company logo" clip-path="url(#clip0_1084_927)">
<path id="Vector" d="M32.4987 17.5985C32.4987 21.1443 29.7248 23.7571 26.3206 23.7571C22.9164 23.7571 20.1426 21.1443 20.1426 17.5985C20.1426 14.0278 22.9164 11.4399 26.3206 11.4399C29.7248 11.4399 32.4987 14.0278 32.4987 17.5985ZM29.7942 17.5985C29.7942 15.3828 28.1865 13.8667 26.3206 13.8667C24.4547 13.8667 22.847 15.3828 22.847 17.5985C22.847 19.7921 24.4547 21.3304 26.3206 21.3304C28.1865 21.3304 29.7942 19.7893 29.7942 17.5985Z" fill="#505050"/>
<path id="Vector_2" d="M45.8248 17.5985C45.8248 21.1443 43.051 23.7571 39.6468 23.7571C36.2426 23.7571 33.4688 21.1443 33.4688 17.5985C33.4688 14.0306 36.2426 11.4399 39.6468 11.4399C43.051 11.4399 45.8248 14.0278 45.8248 17.5985ZM43.1204 17.5985C43.1204 15.3828 41.5127 13.8667 39.6468 13.8667C37.7809 13.8667 36.1732 15.3828 36.1732 17.5985C36.1732 19.7921 37.7809 21.3304 39.6468 21.3304C41.5127 21.3304 43.1204 19.7893 43.1204 17.5985Z" fill="#505050"/>
<path id="Vector_3" d="M58.5973 11.812V22.8686C58.5973 27.4168 55.9151 29.2743 52.7441 29.2743C49.7593 29.2743 47.9628 27.2779 47.2853 25.6453L49.6399 24.6651C50.0591 25.6675 51.0865 26.8503 52.7414 26.8503C54.7711 26.8503 56.0289 25.5981 56.0289 23.2407V22.3549H55.9345C55.3292 23.1019 54.163 23.7544 52.6914 23.7544C49.6121 23.7544 46.791 21.0721 46.791 17.6208C46.791 14.1444 49.6121 11.4399 52.6914 11.4399C54.1602 11.4399 55.3264 12.0925 55.9345 12.8172H56.0289V11.8148H58.5973V11.812ZM56.2205 17.6208C56.2205 15.4522 54.7739 13.8667 52.933 13.8667C51.0671 13.8667 49.5038 15.4522 49.5038 17.6208C49.5038 19.7671 51.0671 21.3304 52.933 21.3304C54.7739 21.3304 56.2205 19.7671 56.2205 17.6208Z" fill="#505050"/>
<path id="Vector_4" d="M62.8292 5.33105V23.3793H60.1914V5.33105H62.8292Z" fill="#505050"/>
<path id="Vector_5" d="M73.1122 19.6258L75.2114 21.0253C74.5339 22.0276 72.9012 23.7547 70.0801 23.7547C66.5816 23.7547 63.9688 21.0502 63.9688 17.5961C63.9688 13.9337 66.6038 11.4375 69.7775 11.4375C72.9734 11.4375 74.5367 13.9809 75.0476 15.3553L75.328 16.0551L67.0953 19.4648C67.7256 20.7004 68.7057 21.3307 70.0801 21.3307C71.4574 21.3307 72.4125 20.6532 73.1122 19.6258ZM66.651 17.4101L72.1543 15.1249C71.8516 14.3558 70.9409 13.8199 69.8691 13.8199C68.4947 13.8199 66.5816 15.0333 66.651 17.4101Z" fill="#505050"/>
<path id="Vector_6" d="M10.1578 15.996V13.3832H18.9626C19.0486 13.8386 19.0931 14.3772 19.0931 14.9603C19.0931 16.9206 18.5572 19.3446 16.8301 21.0717C15.1502 22.821 13.0039 23.754 10.1606 23.754C4.89051 23.754 0.458984 19.4613 0.458984 14.1912C0.458984 8.92111 4.89051 4.62842 10.1606 4.62842C13.0761 4.62842 15.153 5.7724 16.7135 7.26346L14.8698 9.10715C13.7508 8.05758 12.2347 7.24124 10.1578 7.24124C6.30938 7.24124 3.29949 10.3428 3.29949 14.1912C3.29949 18.0396 6.30938 21.1411 10.1578 21.1411C12.654 21.1411 14.0757 20.1388 14.9864 19.228C15.725 18.4894 16.2109 17.4343 16.4025 15.9932L10.1578 15.996Z" fill="#505050"/>
</g>
<defs>
<clipPath id="clip0_1084_927">
<rect width="75.2687" height="31.9725" fill="white" transform="translate(0.365234 0.513672)"/>
</clipPath>
</defs>
</svg>
