<svg width="94" height="21" viewBox="0 0 94 21" fill="none" xmlns="http://www.w3.org/2000/svg">
<path id="LinkedInLogotype" d="M91.9809 17.9575C91.5745 17.9611 91.1863 18.1094 90.901 18.3702C90.6157 18.631 90.4567 18.983 90.4586 19.3491C90.4606 19.7153 90.6234 20.0659 90.9114 20.3242C91.1995 20.5825 91.5893 20.7275 91.9957 20.7275C92.402 20.7275 92.7919 20.5825 93.0799 20.3242C93.3679 20.0659 93.5307 19.7153 93.5327 19.3491C93.5346 18.983 93.3756 18.631 93.0903 18.3702C92.8051 18.1094 92.4168 17.9611 92.0104 17.9575H91.9809ZM91.9809 20.5689C91.7143 20.5729 91.4525 20.5056 91.2284 20.3755C91.0043 20.2454 90.8281 20.0584 90.722 19.838C90.6159 19.6176 90.5847 19.3739 90.6324 19.1376C90.68 18.9012 90.8044 18.6829 90.9897 18.5103C91.175 18.3376 91.413 18.2184 91.6735 18.1676C91.9341 18.1168 92.2055 18.1368 92.4534 18.225C92.7013 18.3132 92.9147 18.4657 93.0665 18.6632C93.2182 18.8606 93.3016 19.0942 93.306 19.3344V19.3548C93.3135 19.6698 93.1818 19.9747 92.9399 20.2022C92.698 20.4298 92.3657 20.5615 92.016 20.5683L91.9809 20.5689ZM86.0807 17.5791H82.7408V12.8661C82.7408 11.7422 82.7186 10.2955 81.0038 10.2955C79.2642 10.2955 78.9981 11.52 78.9981 12.7843V17.5788H75.6582V7.88688H78.8645V9.21139H78.9094C79.2302 8.71703 79.6939 8.31034 80.251 8.03464C80.8081 7.75895 81.4377 7.62456 82.0729 7.64581C85.458 7.64581 86.0821 9.65216 86.0821 12.2623L86.0807 17.5791ZM71.8897 6.56206C71.5064 6.56212 71.1316 6.45976 70.8128 6.2679C70.4941 6.07605 70.2456 5.80333 70.0988 5.48423C69.9521 5.16513 69.9136 4.81398 69.9883 4.47518C70.063 4.13639 70.2476 3.82517 70.5186 3.58087C70.7896 3.33658 71.1349 3.17019 71.5109 3.10274C71.8868 3.03529 72.2765 3.06982 72.6307 3.20195C72.9849 3.33407 73.2877 3.55787 73.5007 3.84505C73.7137 4.13222 73.8274 4.46986 73.8275 4.81528C73.8276 5.04463 73.7775 5.27174 73.6801 5.48365C73.5828 5.69556 73.44 5.88811 73.2601 6.05031C73.0801 6.21252 72.8665 6.34119 72.6314 6.429C72.3962 6.51681 72.1442 6.56202 71.8897 6.56206ZM73.5596 17.5791H70.2163V7.88688H73.5596V17.5791ZM87.7458 0.274333H68.538C68.102 0.269899 67.6819 0.42161 67.37 0.696127C67.0581 0.970644 66.8799 1.34551 66.8746 1.73834V19.1181C66.8798 19.5111 67.0578 19.8862 67.3697 20.161C67.6816 20.4358 68.1018 20.5878 68.538 20.5837H87.7458C88.1829 20.5886 88.6042 20.437 88.9173 20.1622C89.2304 19.8874 89.4097 19.5119 89.4158 19.1181V1.73709C89.4095 1.34347 89.2301 0.968185 88.917 0.693675C88.6039 0.419165 88.1826 0.267887 87.7458 0.273079M57.7842 10.2262C56.1143 10.2262 55.1123 11.2309 55.1123 12.6949C55.1123 14.1589 56.1139 15.1646 57.7842 15.1646C59.4545 15.1646 60.4586 14.1614 60.4586 12.6949C60.4586 11.2284 59.4562 10.2262 57.7842 10.2262ZM63.5333 17.5735H60.4586V16.2882H60.413C60.0272 16.7557 59.5269 17.1367 58.951 17.4014C58.375 17.6661 57.739 17.8074 57.0926 17.8143C53.8835 17.8143 51.7696 15.7273 51.7696 12.7761C51.7696 10.0657 53.6403 7.57684 56.7154 7.57684C58.0977 7.57684 59.3887 7.91761 60.1461 8.86216H60.19V3.2754H63.533L63.5333 17.5735ZM47.4813 11.6021C47.4877 11.3579 47.439 11.1151 47.3382 10.8884C47.2374 10.6617 47.0866 10.4558 46.8949 10.2832C46.7032 10.1105 46.4745 9.97476 46.2229 9.88408C45.9712 9.7934 45.7017 9.74969 45.4308 9.75562C44.8472 9.7229 44.2728 9.89813 43.8313 10.2435C43.3897 10.5889 43.1166 11.0769 43.0706 11.6021H47.4813ZM50.3105 15.8969C49.7555 16.5034 49.0578 16.991 48.2678 17.3245C47.4779 17.658 46.6155 17.8291 45.7432 17.8252C42.4033 17.8252 39.7293 15.8164 39.7293 12.7056C39.7293 9.59479 42.403 7.58687 45.7432 7.58687C48.865 7.58687 50.8226 9.59323 50.8226 12.7056V13.6492H43.0706C43.1671 14.1844 43.475 14.67 43.9376 15.0168C44.4001 15.3635 44.9861 15.548 45.5877 15.5361C46.0631 15.5335 46.5302 15.4237 46.9465 15.2169C47.3628 15.01 47.715 14.7126 47.9712 14.3517L50.3105 15.8969ZM17.1085 7.88438H20.3158V9.20888H20.3614C20.6818 8.71432 21.1452 8.30744 21.7022 8.0317C22.2592 7.75596 22.8888 7.62172 23.5239 7.6433C26.9107 7.6433 27.5342 9.65122 27.5342 12.2598V17.5748H24.1943V12.8626C24.1943 11.7378 24.1713 10.292 22.4548 10.292C20.7187 10.292 20.4508 11.5168 20.4508 12.7808V17.5735H17.1109L17.1085 7.88438ZM29.2278 3.27634H32.5677V11.8237L36.3529 7.87905H40.4477L36.0641 12.3661L40.3555 17.5795H36.1577L32.6122 12.7887H32.5684V17.5788H29.2285L29.2278 3.27634ZM11.9167 7.88344H15.2566V17.5754H11.9167V7.88344ZM13.5867 3.06505C13.9698 3.06511 14.3444 3.16755 14.663 3.35943C14.9815 3.5513 15.2298 3.82399 15.3764 4.143C15.523 4.46202 15.5613 4.81304 15.4865 5.15168C15.4117 5.49032 15.2272 5.80137 14.9562 6.0455C14.6852 6.28963 14.34 6.45587 13.9642 6.52321C13.5883 6.59055 13.1988 6.55596 12.8448 6.42381C12.4908 6.29166 12.1882 6.06789 11.9753 5.7808C11.7624 5.4937 11.6488 5.15617 11.6488 4.81089C11.6488 4.5816 11.6989 4.35455 11.7963 4.14271C11.8937 3.93088 12.0365 3.7384 12.2164 3.57628C12.3964 3.41416 12.61 3.28557 12.8451 3.19785C13.0802 3.11013 13.3322 3.06501 13.5867 3.06505ZM0.466797 3.27854H3.94342V14.6897H10.3797V17.5807H0.466797V3.27854ZM92.2247 19.4303C92.2819 19.4308 92.3387 19.4208 92.3913 19.4007C92.444 19.3807 92.4916 19.3511 92.5311 19.3138C92.5705 19.2765 92.6011 19.2322 92.6208 19.1839C92.6405 19.1355 92.649 19.084 92.6457 19.0325C92.6457 18.7504 92.4568 18.6156 92.0692 18.6156H91.443V20.0927H91.6785V19.4488H91.968L91.9746 19.4567L92.4238 20.0927H92.6756L92.1924 19.4344L92.2247 19.4303ZM91.9523 19.2824H91.6792V18.783H92.0254C92.2042 18.783 92.4081 18.8093 92.4081 19.0203C92.4081 19.2629 92.2018 19.2824 91.951 19.2824" fill="#505050"/>
</svg>
