<svg width="81" height="33" viewBox="0 0 81 33" fill="none" xmlns="http://www.w3.org/2000/svg">
<rect x="0.5" y="0.5" width="32" height="32" rx="16" fill="#030303"/>
<path d="M16.5009 18.0673C17.3665 18.0673 18.0683 17.3656 18.0683 16.4999C18.0683 15.6343 17.3665 14.9326 16.5009 14.9326C15.6353 14.9326 14.9336 15.6343 14.9336 16.4999C14.9336 17.3656 15.6353 18.0673 16.5009 18.0673Z" fill="#61DAFB"/>
<path fill-rule="evenodd" clip-rule="evenodd" d="M9.13477 15.6743C8.77984 15.9947 8.66239 16.2747 8.66239 16.5001C8.66239 16.7254 8.77984 17.0054 9.13477 17.3258C9.48963 17.6462 10.0352 17.9609 10.758 18.2368C12.1997 18.7873 14.23 19.1398 16.501 19.1398C18.772 19.1398 20.8023 18.7873 22.244 18.2368C22.9668 17.9609 23.5124 17.6462 23.8673 17.3258C24.2222 17.0054 24.3397 16.7254 24.3397 16.5001C24.3397 16.2747 24.2222 15.9947 23.8673 15.6743C23.5124 15.354 22.9668 15.0393 22.244 14.7633C20.8023 14.2128 18.772 13.8604 16.501 13.8604C14.23 13.8604 12.1997 14.2128 10.758 14.7633C10.0352 15.0393 9.48963 15.354 9.13477 15.6743ZM10.3504 13.6956C11.9525 13.0839 14.1273 12.7175 16.501 12.7175C18.8748 12.7175 21.0495 13.0839 22.6517 13.6956C23.4508 14.0007 24.1368 14.378 24.6331 14.826C25.1293 15.2739 25.4825 15.8387 25.4825 16.5001C25.4825 17.1615 25.1293 17.7262 24.6331 18.1742C24.1368 18.6221 23.4508 18.9994 22.6517 19.3045C21.0495 19.9162 18.8748 20.2826 16.501 20.2826C14.1273 20.2826 11.9525 19.9162 10.3504 19.3045C9.55128 18.9994 8.86524 18.6221 8.36896 18.1742C7.87275 17.7262 7.51953 17.1615 7.51953 16.5001C7.51953 15.8387 7.87275 15.2739 8.36896 14.826C8.86524 14.378 9.55128 14.0007 10.3504 13.6956Z" fill="#61DAFB"/>
<path fill-rule="evenodd" clip-rule="evenodd" d="M13.5341 9.7078C13.0791 9.56062 12.7779 9.59891 12.5828 9.71158C12.3876 9.82425 12.2038 10.066 12.1038 10.5335C12.0038 11.001 12.0041 11.6309 12.1265 12.3949C12.3706 13.9186 13.0805 15.8531 14.216 17.8199C15.3515 19.7866 16.6719 21.3687 17.8695 22.342C18.4699 22.83 19.0152 23.1451 19.4701 23.2923C19.925 23.4395 20.2262 23.4012 20.4214 23.2885C20.6165 23.1758 20.8003 22.9341 20.9003 22.4665C21.0003 21.999 21 21.3692 20.8776 20.6052C20.6335 19.0814 19.9236 17.1469 18.7881 15.1802C17.6526 13.2135 16.3322 11.6314 15.1347 10.6581C14.5342 10.1701 13.9889 9.85495 13.5341 9.7078ZM15.8555 9.77121C17.1863 10.8528 18.591 12.553 19.7779 14.6088C20.9647 16.6645 21.7348 18.7311 22.0061 20.4244C22.1414 21.269 22.1577 22.0518 22.0179 22.7056C21.8781 23.3593 21.5656 23.9475 20.9928 24.2782C20.42 24.6089 19.7544 24.5854 19.1183 24.3797C18.4822 24.1739 17.8125 23.7684 17.1487 23.2289C15.8178 22.1472 14.4132 20.447 13.2263 18.3913C12.0394 16.3356 11.2693 14.269 10.998 12.5756C10.8627 11.731 10.8464 10.9483 10.9863 10.2945C11.1261 9.6408 11.4386 9.05253 12.0113 8.72184C12.5841 8.39115 13.2498 8.41467 13.8858 8.62043C14.522 8.82622 15.1917 9.23172 15.8555 9.77121Z" fill="#61DAFB"/>
<path fill-rule="evenodd" clip-rule="evenodd" d="M20.8993 10.5335C20.7993 10.0659 20.6155 9.82418 20.4204 9.71151C20.2252 9.59884 19.924 9.56055 19.4691 9.70773C19.0142 9.85488 18.4689 10.17 17.8685 10.658C16.6709 11.6313 15.3505 13.2134 14.215 15.1801C13.0795 17.1469 12.3696 19.0814 12.1255 20.6052C12.0031 21.3691 12.0028 21.999 12.1028 22.4665C12.2028 22.934 12.3866 23.1758 12.5817 23.2884C12.7769 23.4011 13.0781 23.4394 13.533 23.2922C13.9879 23.1451 14.5332 22.8299 15.1336 22.3419C16.3312 21.3686 17.6516 19.7865 18.7871 17.8198C19.9226 15.8531 20.6325 13.9186 20.8766 12.3948C20.999 11.6308 20.9993 11.001 20.8993 10.5335ZM22.0051 12.5756C21.7338 14.2689 20.9637 16.3355 19.7768 18.3912C18.59 20.447 17.1853 22.1472 15.8544 23.2288C15.1907 23.7683 14.5209 24.1738 13.8848 24.3796C13.2488 24.5853 12.5831 24.6089 12.0103 24.2782C11.4375 23.9475 11.1251 23.3592 10.9852 22.7055C10.8454 22.0517 10.8617 21.269 10.997 20.4244C11.2683 18.731 12.0384 16.6644 13.2253 14.6087C14.4122 12.553 15.8168 10.8528 17.1477 9.77113C17.8114 9.23164 18.4812 8.82614 19.1173 8.62036C19.7533 8.41459 20.419 8.39107 20.9918 8.72176C21.5646 9.05246 21.8771 9.64072 22.0169 10.2944C22.1567 10.9482 22.1404 11.731 22.0051 12.5756Z" fill="#61DAFB"/>
<rect x="24.5" y="0.5" width="32" height="32" rx="16" fill="white"/>
<path d="M49.3891 7.61108H31.6113V25.3889H49.3891V7.61108Z" fill="#F7DF1E"/>
<path d="M43.5542 21.5C43.9123 22.0847 44.3782 22.5144 45.2022 22.5144C45.8944 22.5144 46.3366 22.1685 46.3366 21.6905C46.3366 21.1176 45.8822 20.9147 45.1203 20.5815L44.7027 20.4023C43.4972 19.8887 42.6964 19.2453 42.6964 17.8852C42.6964 16.6323 43.651 15.6785 45.1429 15.6785C46.2051 15.6785 46.9687 16.0481 47.5189 17.016L46.218 17.8513C45.9316 17.3377 45.6226 17.1354 45.1429 17.1354C44.6536 17.1354 44.3435 17.4458 44.3435 17.8513C44.3435 18.3525 44.6539 18.5554 45.3706 18.8658L45.7883 19.0447C47.2077 19.6534 48.0091 20.2739 48.0091 21.669C48.0091 23.1731 46.8276 23.9971 45.2408 23.9971C43.6894 23.9971 42.687 23.2577 42.1966 22.2887L43.5542 21.5ZM37.6528 21.6447C37.9153 22.1104 38.154 22.504 38.728 22.504C39.2768 22.504 39.6231 22.2893 39.6231 21.4543V15.7738H41.2936V21.4768C41.2936 23.2067 40.2794 23.994 38.7991 23.994C37.4615 23.994 36.6869 23.3017 36.293 22.468L37.6528 21.6447Z" fill="black"/>
<rect x="48.5" y="0.5" width="32" height="32" rx="16" fill="#161614"/>
<path d="M64.3872 5.71729C58.4948 5.71729 53.7168 10.4945 53.7168 16.3876C53.7168 21.1022 56.7742 25.1019 61.0139 26.5128C61.5471 26.6115 61.7429 26.2813 61.7429 25.9995C61.7429 25.7451 61.733 24.9044 61.7285 24.0128C58.7599 24.6583 58.1335 22.7539 58.1335 22.7539C57.6481 21.5205 56.9487 21.1926 56.9487 21.1926C55.9807 20.5303 57.0217 20.5439 57.0217 20.5439C58.0932 20.6192 58.6574 21.6435 58.6574 21.6435C59.6091 23.2748 61.1536 22.8032 61.7625 22.5306C61.8583 21.8409 62.1348 21.3702 62.44 21.1038C60.07 20.8339 57.5785 19.9189 57.5785 15.8304C57.5785 14.6655 57.9953 13.7136 58.6779 12.9663C58.5671 12.6975 58.2019 11.6123 58.7813 10.1425C58.7813 10.1425 59.6773 9.85572 61.7164 11.2363C62.5675 10.9998 63.4803 10.8813 64.3872 10.8773C65.294 10.8813 66.2075 10.9998 67.0603 11.2363C69.0969 9.85572 69.9917 10.1425 69.9917 10.1425C70.5725 11.6123 70.2071 12.6975 70.0963 12.9663C70.7804 13.7136 71.1944 14.6654 71.1944 15.8304C71.1944 19.9286 68.6982 20.8311 66.3222 21.0952C66.7049 21.4264 67.0459 22.0758 67.0459 23.0712C67.0459 24.4989 67.0336 25.648 67.0336 25.9995C67.0336 26.2834 67.2256 26.6161 67.7666 26.5114C72.0039 25.0988 75.0574 21.1006 75.0574 16.3876C75.0574 10.4945 70.2801 5.71729 64.3872 5.71729Z" fill="white"/>
</svg>
