<svg width="73" height="20" viewBox="0 0 73 20" fill="none" xmlns="http://www.w3.org/2000/svg">
<g clip-path="url(#clip0_305_3023)">
<path d="M72.1147 9.09736V7.89666H70.5397V6.03002L70.4867 6.04548L69.0074 6.47398L68.9782 6.48236V7.89672H66.6433V7.1088C66.6433 6.74192 66.73 6.46116 66.9007 6.27393C67.0703 6.08893 67.3129 5.99488 67.6223 5.99488C67.8447 5.99488 68.075 6.04448 68.3068 6.1423L68.3649 6.16687V4.90236L68.3375 4.89285C68.1213 4.81928 67.8273 4.78223 67.4628 4.78223C67.0034 4.78223 66.586 4.87687 66.222 5.06444C65.8577 5.25227 65.5712 5.52042 65.3705 5.86134C65.1705 6.20187 65.069 6.59517 65.069 7.03041V7.89666H63.9723V9.09736H65.069V14.1557H66.6433V9.09736H68.9782V12.3119C68.9782 13.6357 69.6378 14.3066 70.9387 14.3066C71.1525 14.3066 71.3775 14.2829 71.6072 14.2365C71.841 14.1888 72.0003 14.1412 72.0941 14.0903L72.1148 14.0787V12.8669L72.0508 12.907C71.9653 12.9609 71.8589 13.0049 71.7342 13.0377C71.6089 13.071 71.5042 13.0878 71.4232 13.0878C71.1184 13.0878 70.893 13.01 70.7531 12.8566C70.6116 12.7018 70.5398 12.4311 70.5398 12.0524V9.09736H72.1147ZM60.4565 13.088C59.8851 13.088 59.4345 12.9086 59.117 12.5552C58.7976 12.2001 58.6357 11.6938 58.6357 11.0505C58.6357 10.3868 58.7976 9.86738 59.1172 9.50599C59.4349 9.14696 59.8811 8.96474 60.4436 8.96474C60.9895 8.96474 61.4241 9.13877 61.7354 9.48228C62.0482 9.82756 62.207 10.3428 62.207 11.0143C62.207 11.6939 62.0577 12.216 61.7633 12.5653C61.4709 12.9119 61.0313 13.088 60.4565 13.088ZM60.5265 7.74588C59.4363 7.74588 58.5704 8.0483 57.953 8.64475C57.336 9.24128 57.0231 10.0668 57.0231 11.0985C57.0231 12.0785 57.3285 12.8668 57.9308 13.441C58.5332 14.0155 59.3529 14.3065 60.3671 14.3065C61.4238 14.3065 62.2725 13.9998 62.8896 13.3951C63.5067 12.7911 63.8193 11.9734 63.8193 10.9657C63.8193 9.97042 63.5259 9.17629 62.9471 8.60585C62.368 8.03516 61.5534 7.74588 60.5265 7.74588ZM54.4848 7.74588C53.7432 7.74588 53.1298 7.92546 52.6612 8.27952C52.1897 8.63571 51.9506 9.10284 51.9506 9.66813C51.9506 9.96196 52.0022 10.223 52.1038 10.4444C52.206 10.6665 52.3641 10.862 52.5743 11.0262C52.7828 11.189 53.1047 11.3595 53.5312 11.533C53.8898 11.6727 54.1572 11.7908 54.3271 11.8839C54.4931 11.9752 54.6109 12.067 54.6775 12.1563C54.7422 12.2438 54.7749 12.3634 54.7749 12.5111C54.7749 12.9316 54.4423 13.1362 53.7579 13.1362C53.504 13.1362 53.2144 13.086 52.8972 12.9871C52.5822 12.8897 52.285 12.747 52.0158 12.564L51.9504 12.5196V13.9546L51.9744 13.9652C52.1972 14.0625 52.4781 14.1446 52.8091 14.2092C53.1395 14.2739 53.4397 14.3068 53.7004 14.3068C54.5052 14.3068 55.1532 14.1263 55.6261 13.7701C56.1019 13.4115 56.3431 12.9333 56.3431 12.3485C56.3431 11.9266 56.2133 11.5648 55.9574 11.273C55.7032 10.9836 55.2621 10.7179 54.6469 10.4831C54.1567 10.2968 53.8427 10.1422 53.7131 10.0235C53.5883 9.90886 53.5249 9.74672 53.5249 9.54139C53.5249 9.35936 53.6031 9.21354 53.7638 9.09545C53.9257 8.97676 54.1511 8.9164 54.4338 8.9164C54.6961 8.9164 54.9645 8.95563 55.2314 9.03251C55.4981 9.10938 55.7324 9.21235 55.9279 9.3383L55.9922 9.3799V8.01871L55.9675 8.00867C55.7871 7.93543 55.5492 7.87275 55.2603 7.8219C54.9727 7.77137 54.7117 7.74588 54.4848 7.74588ZM47.8463 13.088C47.275 13.088 46.8243 12.9086 46.5069 12.5552C46.1874 12.2001 46.0258 11.6939 46.0258 11.0505C46.0258 10.3868 46.1876 9.86738 46.5073 9.50599C46.8247 9.14696 47.2708 8.96474 47.8337 8.96474C48.3794 8.96474 48.8139 9.13877 49.1253 9.48228C49.4382 9.82756 49.5969 10.3428 49.5969 11.0143C49.5969 11.6939 49.4475 12.216 49.1531 12.5653C48.8607 12.9119 48.4213 13.088 47.8463 13.088ZM47.9165 7.74588C46.826 7.74588 45.96 8.0483 45.343 8.64475C44.726 9.24128 44.413 10.0668 44.413 11.0985C44.413 12.0789 44.7185 12.8668 45.3209 13.441C45.9232 14.0155 46.7429 14.3065 47.757 14.3065C48.8137 14.3065 49.6625 13.9998 50.2797 13.3951C50.8966 12.7911 51.2093 11.9734 51.2093 10.9657C51.2093 9.97042 50.9159 9.17629 50.3369 8.60585C49.7577 8.03516 48.9433 7.74588 47.9165 7.74588ZM42.0232 8.98059V7.89666H40.468V14.1556H42.0232V10.9539C42.0232 10.4095 42.1535 9.96223 42.4108 9.6244C42.6648 9.29061 43.0033 9.12147 43.4166 9.12147C43.5567 9.12147 43.7139 9.14333 43.8842 9.18659C44.0528 9.22959 44.1749 9.27628 44.2469 9.32542L44.3122 9.37026V7.88596L44.287 7.87572C44.1422 7.81747 43.9373 7.78808 43.6781 7.78808C43.2873 7.78808 42.9375 7.90696 42.638 8.14103C42.375 8.34676 42.185 8.62884 42.0397 8.98059H42.0232ZM37.683 7.74588C36.9695 7.74588 36.3331 7.89071 35.7918 8.17623C35.2494 8.4624 34.8299 8.87096 34.5445 9.39047C34.2604 9.90873 34.1161 10.5141 34.1161 11.1892C34.1161 11.7806 34.256 12.3233 34.5324 12.8016C34.809 13.2807 35.2006 13.6555 35.6962 13.9154C36.1911 14.1751 36.7631 14.3067 37.3964 14.3067C38.1354 14.3067 38.7665 14.1668 39.2724 13.8909L39.2928 13.8798V12.531L39.2275 12.5762C38.9983 12.7342 38.7422 12.8604 38.4666 12.9512C38.1917 13.0421 37.9412 13.088 37.7214 13.088C37.1112 13.088 36.6213 12.9072 36.2657 12.5508C35.9094 12.194 35.7287 11.6929 35.7287 11.0623C35.7287 10.4278 35.9171 9.91388 36.2885 9.53465C36.6587 9.15654 37.1495 8.96474 37.7471 8.96474C38.2582 8.96474 38.7563 9.1286 39.2276 9.45222L39.2928 9.49707V8.07584L39.2717 8.06461C39.0944 7.97063 38.8525 7.89303 38.5523 7.83418C38.2533 7.77547 37.9608 7.74588 37.683 7.74588ZM33.045 7.89672H31.4898V14.1556H33.045V7.89672ZM32.2833 5.23041C32.0274 5.23041 31.8041 5.3129 31.6207 5.47636C31.4365 5.64029 31.3431 5.84668 31.3431 6.09025C31.3431 6.33 31.4354 6.53263 31.6179 6.69219C31.7991 6.85129 32.023 6.93194 32.2834 6.93194C32.5437 6.93194 32.7685 6.85129 32.9519 6.69245C33.1365 6.53263 33.2301 6.33006 33.2301 6.09025C33.2301 5.8552 33.139 5.65092 32.9595 5.48297C32.7801 5.31534 32.5525 5.23041 32.2833 5.23041ZM28.4031 7.43494V14.1556H29.9902V5.42201H27.7936L25.0015 11.909L22.2919 5.42201H20.0059V14.1555H21.4973V7.43428H21.5485L24.4098 14.1556H25.5353L28.3519 7.43494H28.4031Z" fill="#1D1E22" fill-opacity="0.8"/>
<path d="M7.31597 9.42945H0V2.50342H7.31597V9.42945Z" fill="#1D1E22" fill-opacity="0.8"/>
<path d="M15.39 9.42945H8.07422V2.50342H15.39V9.42945Z" fill="#1D1E22" fill-opacity="0.8"/>
<path d="M7.31576 17.0793H0V10.1533H7.31576V17.0793Z" fill="#1D1E22" fill-opacity="0.8"/>
<path d="M15.39 17.0793H8.07422V10.1533H15.39V17.0793Z" fill="#1D1E22" fill-opacity="0.8"/>
</g>
<defs>
<clipPath id="clip0_305_3023">
<rect width="72.1804" height="20" fill="white"/>
</clipPath>
</defs>
</svg>
