<svg width="88" height="34" viewBox="0 0 88 34" fill="none" xmlns="http://www.w3.org/2000/svg">
<g id="Company logo" clip-path="url(#clip0_1088_2138)">
<g id="Vector">
<path d="M30.7533 24.2952V14.4402H30.9289L38.1023 24.2952H40.3597V9.82302H37.8515V19.6532H37.6759L30.5025 9.82302H28.2451V24.2952H30.7533ZM47.4579 24.5186C50.7688 24.5186 52.8004 22.3838 52.8004 18.8092C52.8004 15.2594 50.7688 13.0997 47.4579 13.0997C44.1722 13.0997 42.1155 15.2594 42.1155 18.8092C42.1405 22.3838 44.1471 24.5186 47.4579 24.5186ZM47.4579 22.4334C45.7022 22.4334 44.6989 21.1178 44.6989 18.8092C44.6989 16.5254 45.7022 15.1849 47.4579 15.1849C49.2137 15.1849 50.217 16.5254 50.217 18.8092C50.217 21.1178 49.2137 22.4334 47.4579 22.4334ZM55.0829 10.6422V13.3976H53.3272V15.3835H55.0829V21.366C55.0829 23.5008 56.0862 24.3448 58.6445 24.3448C59.1211 24.3448 59.5977 24.2952 59.9739 24.2207V22.2845C59.6729 22.3093 59.4723 22.3341 59.1211 22.3341C58.0677 22.3341 57.5911 21.8625 57.5911 20.7702V15.3835H59.9739V13.3976H57.5911V10.6422H55.0829ZM61.4788 24.2952H63.987V13.3231H61.4788V24.2952ZM62.7329 11.511C63.5606 11.511 64.2379 10.8408 64.2379 10.0216C64.2379 9.1776 63.5606 8.50736 62.7329 8.50736C61.9052 8.50736 61.228 9.1776 61.228 10.0216C61.228 10.8408 61.9052 11.511 62.7329 11.511ZM70.8595 24.5186C74.1703 24.5186 76.202 22.3838 76.202 18.8092C76.202 15.2594 74.1703 13.0997 70.8595 13.0997C67.5738 13.0997 65.517 15.2594 65.517 18.8092C65.517 22.3838 67.5236 24.5186 70.8595 24.5186ZM70.8595 22.4334C69.1038 22.4334 68.1005 21.1178 68.1005 18.8092C68.1005 16.5254 69.1038 15.1849 70.8595 15.1849C72.5902 15.1849 73.6185 16.5254 73.6185 18.8092C73.5935 21.1178 72.5902 22.4334 70.8595 22.4334ZM77.6818 24.2952H80.19V17.9155C80.19 16.302 81.1432 15.2842 82.623 15.2842C84.153 15.2842 84.8553 16.1282 84.8553 17.7914V24.2952H87.3635V17.1956C87.3635 14.5643 86.0091 13.0997 83.551 13.0997C81.8956 13.0997 80.792 13.8444 80.2653 15.0856H80.0897V13.3231H77.6568C77.6818 13.3231 77.6818 24.2952 77.6818 24.2952Z" fill="#505050"/>
<path fill-rule="evenodd" clip-rule="evenodd" d="M4.19566 8.89673C4.92568 9.48566 5.18973 9.43916 6.55657 9.34618L19.4328 8.57127C19.7124 8.57127 19.4794 8.29231 19.3862 8.26131L17.2428 6.727C16.8389 6.41704 16.2798 6.04509 15.2391 6.13808L2.78223 7.05246C2.33179 7.09896 2.2386 7.33143 2.42498 7.50191L4.19566 8.89673ZM4.97228 11.8879V25.4022C4.97228 26.1306 5.32952 26.394 6.15273 26.3476L20.3026 25.5262C21.1258 25.4797 21.219 24.9837 21.219 24.3948V10.9735C21.219 10.3845 20.9861 10.0591 20.489 10.1056L5.70229 10.9735C5.15866 11.02 4.97228 11.2989 4.97228 11.8879ZM18.9358 12.6163C19.029 13.0192 18.9358 13.4377 18.532 13.4842L17.8485 13.6236V23.6044C17.2583 23.9144 16.7147 24.1003 16.2487 24.1003C15.5187 24.1003 15.3323 23.8679 14.7887 23.1859L10.3309 16.1963V22.9535L11.7444 23.2634C11.7444 23.2634 11.7443 24.0848 10.6105 24.0848L7.47297 24.2708C7.37978 24.0848 7.47297 23.6354 7.78362 23.5424L8.60683 23.3099V14.383L7.47297 14.2901C7.37978 13.8871 7.61276 13.2982 8.24959 13.2517L11.6201 13.0192L16.2642 20.0863V13.8406L15.0838 13.7011C14.9906 13.2052 15.3634 12.8332 15.8138 12.7867L18.9358 12.6163ZM1.74156 5.81262L14.711 4.86724C16.2953 4.72775 16.7147 4.82074 17.7087 5.54915L21.8403 8.44729C22.5237 8.94323 22.7567 9.08271 22.7567 9.62514V25.5417C22.7567 26.5335 22.3995 27.1225 21.1258 27.2154L6.07507 28.1298C5.11207 28.1763 4.66163 28.0368 4.1646 27.4014L1.10474 23.4494C0.561109 22.721 0.328125 22.1786 0.328125 21.5432V7.39342C0.328125 6.57202 0.7009 5.90561 1.74156 5.81262Z" fill="#505050"/>
</g>
</g>
<defs>
<clipPath id="clip0_1088_2138">
<rect width="87.3438" height="32.5" fill="white" transform="translate(0.328125 0.75)"/>
</clipPath>
</defs>
</svg>
