<svg width="70" height="34" viewBox="0 0 70 34" fill="none" xmlns="http://www.w3.org/2000/svg">
<g id="Company logo" clip-path="url(#clip0_1088_2126)">
<g id="Vector">
<path d="M9.07606 9.39697H3.74389C3.37901 9.39697 3.06869 9.66206 3.01178 10.0223L0.855207 23.6954C0.812325 23.9651 1.02128 24.2084 1.29494 24.2084H3.84057C4.20545 24.2084 4.51577 23.9433 4.57268 23.5823L5.15432 19.8945C5.21045 19.5335 5.52154 19.2684 5.88565 19.2684H7.57364C11.0861 19.2684 13.1132 17.5687 13.6426 14.2005C13.8812 12.727 13.6527 11.5691 12.9627 10.7583C12.2049 9.86789 10.8607 9.39697 9.07606 9.39697ZM9.69122 14.3908C9.39963 16.3041 7.93774 16.3041 6.5242 16.3041H5.71958L6.28406 12.7308C6.31759 12.5149 6.50471 12.3558 6.72302 12.3558H7.0918C8.05469 12.3558 8.96301 12.3558 9.43237 12.9047C9.71227 13.2322 9.79804 13.7187 9.69122 14.3908Z" fill="#505050"/>
<path d="M25.015 14.3292H22.4616C22.2441 14.3292 22.0562 14.4882 22.0226 14.7042L21.9096 15.4184L21.731 15.1595C21.1783 14.3572 19.9456 14.089 18.7153 14.089C15.8936 14.089 13.4837 16.2261 13.0143 19.2239C12.7703 20.7194 13.1172 22.1493 13.9655 23.1465C14.7436 24.0634 15.857 24.4454 17.1817 24.4454C19.4552 24.4454 20.7159 22.9835 20.7159 22.9835L20.6021 23.693C20.5592 23.9644 20.7681 24.2076 21.0402 24.2076H23.3403C23.7059 24.2076 24.0147 23.9425 24.0724 23.5815L25.4524 14.8422C25.4961 14.5732 25.2879 14.3292 25.015 14.3292ZM21.4558 19.2988C21.2094 20.7576 20.0516 21.7368 18.5749 21.7368C17.8335 21.7368 17.2409 21.499 16.8604 21.0484C16.4831 20.6008 16.3396 19.9639 16.4597 19.2544C16.6897 17.8081 17.867 16.7968 19.3211 16.7968C20.0462 16.7968 20.6356 17.0377 21.0239 17.4923C21.4129 17.9515 21.5673 18.5924 21.4558 19.2988Z" fill="#505050"/>
<path d="M38.614 14.3291H36.0481C35.8033 14.3291 35.5733 14.4508 35.4345 14.6543L31.8956 19.8671L30.3955 14.8578C30.3012 14.5443 30.0119 14.3291 29.6844 14.3291H27.163C26.8566 14.3291 26.6437 14.6285 26.7412 14.917L29.5675 23.2112L26.9104 26.9622C26.7014 27.2577 26.9119 27.6639 27.2729 27.6639H29.8357C30.0789 27.6639 30.3066 27.5454 30.4446 27.3458L38.9789 15.0269C39.1832 14.7322 38.9734 14.3291 38.614 14.3291Z" fill="#505050"/>
</g>
<g id="Vector_2">
<path d="M47.1093 9.39731H41.7763C41.4122 9.39731 41.1019 9.6624 41.045 10.0226L38.8884 23.6957C38.8455 23.9655 39.0545 24.2087 39.3266 24.2087H42.0632C42.3174 24.2087 42.5349 24.0232 42.5747 23.7706L43.1867 19.8948C43.2429 19.5338 43.554 19.2687 43.9181 19.2687H45.6053C49.1185 19.2687 51.1449 17.5691 51.675 14.2009C51.9144 12.7273 51.6844 11.5695 50.9944 10.7586C50.2373 9.86823 48.8939 9.39731 47.1093 9.39731ZM47.7244 14.3911C47.4336 16.3044 45.9717 16.3044 44.5574 16.3044H43.7536L44.3188 12.7312C44.3524 12.5152 44.5379 12.3562 44.757 12.3562H45.1258C46.0879 12.3562 46.997 12.3562 47.4664 12.9051C47.7463 13.2325 47.8312 13.719 47.7244 14.3911Z" fill="#505050"/>
<path d="M63.0474 14.3295H60.4955C60.2764 14.3295 60.0901 14.4886 60.0573 14.7045L59.9443 15.4187L59.7649 15.1599C59.2122 14.3576 57.9803 14.0894 56.75 14.0894C53.9283 14.0894 51.5191 16.2264 51.0498 19.2243C50.8065 20.7197 51.1519 22.1496 52.0002 23.1468C52.7799 24.0637 53.8917 24.4457 55.2163 24.4457C57.4899 24.4457 58.7506 22.9839 58.7506 22.9839L58.6368 23.6934C58.5939 23.9647 58.8028 24.2079 59.0765 24.2079H61.3757C61.7399 24.2079 62.0502 23.9429 62.1071 23.5819L63.4879 14.8425C63.53 14.5735 63.321 14.3295 63.0474 14.3295ZM59.4882 19.2991C59.2434 20.7579 58.084 21.7372 56.6073 21.7372C55.8674 21.7372 55.2733 21.4994 54.8928 21.0487C54.5154 20.6012 54.3735 19.9642 54.492 19.2547C54.7236 17.8084 55.8993 16.7972 57.3534 16.7972C58.0785 16.7972 58.668 17.0381 59.0562 17.4926C59.4468 17.9519 59.6012 18.5928 59.4882 19.2991Z" fill="#505050"/>
<path d="M66.0576 9.77229L63.8691 23.6957C63.8262 23.9654 64.0352 24.2087 64.3073 24.2087H66.5075C66.8732 24.2087 67.1835 23.9436 67.2396 23.5826L69.3977 9.91029C69.4406 9.64052 69.2317 9.39648 68.9595 9.39648H66.4958C66.2783 9.39726 66.0911 9.55632 66.0576 9.77229Z" fill="#505050"/>
</g>
</g>
<defs>
<clipPath id="clip0_1088_2126">
<rect width="69.7396" height="32.5" fill="white" transform="translate(0.130859 0.75)"/>
</clipPath>
</defs>
</svg>
