<svg width="49" height="49" viewBox="0 0 49 49" fill="none" xmlns="http://www.w3.org/2000/svg">
<path d="M24.5 0.5C11.2665 0.5 0.5 11.2665 0.5 24.5C0.5 37.7335 11.2665 48.5 24.5 48.5C37.7335 48.5 48.5 37.7335 48.5 24.5C48.5 11.2665 37.7335 0.5 24.5 0.5ZM33.1273 25.5731L19.9215 33.5508C19.7323 33.6642 19.5162 33.7252 19.2956 33.7275C19.0749 33.7299 18.8576 33.6735 18.666 33.5642C18.4743 33.4548 18.3152 33.2965 18.2049 33.1053C18.0946 32.9142 18.0372 32.6972 18.0385 32.4765V16.5235C18.0372 16.3028 18.0946 16.0858 18.2049 15.8947C18.3152 15.7035 18.4743 15.5452 18.666 15.4358C18.8576 15.3265 19.0749 15.2701 19.2956 15.2725C19.5162 15.2748 19.7323 15.3358 19.9215 15.4492L33.1273 23.4269C33.3114 23.5391 33.4635 23.6967 33.5691 23.8846C33.6746 24.0725 33.7301 24.2845 33.7301 24.5C33.7301 24.7155 33.6746 24.9275 33.5691 25.1154C33.4635 25.3033 33.3114 25.4609 33.1273 25.5731Z" fill="white"/>
</svg>
