<svg width="48" height="32" viewBox="0 0 48 32" fill="none" xmlns="http://www.w3.org/2000/svg">
<g id="Company logo" clip-path="url(#clip0_1084_963)">
<g id="Vector">
<path d="M2.78127 19.2332C2.98398 19.7712 3.26463 20.2312 3.62327 20.6131C3.9819 20.9952 4.40678 21.2875 4.8979 21.4902C5.38907 21.6929 5.92309 21.7942 6.50001 21.7942C7.06136 21.7942 7.58757 21.689 8.07874 21.4785C8.56991 21.2679 8.99867 20.9717 9.36507 20.5897C9.73147 20.2077 10.016 19.7517 10.2188 19.2215C10.4215 18.6914 10.5228 18.0989 10.5228 17.444V7.34033H12.9785V23.712H10.5462V22.1918C10.0005 22.7687 9.35725 23.2131 8.61664 23.525C7.87598 23.8368 7.07694 23.9927 6.21937 23.9927C5.34617 23.9927 4.5315 23.8406 3.77526 23.5366C3.01907 23.2326 2.36416 22.7999 1.81068 22.2386C1.2572 21.6772 0.820575 21.003 0.50096 20.2155C0.181292 19.4281 0.0214844 18.5511 0.0214844 17.5843V7.34033H2.47724V17.444C2.47724 18.0989 2.57856 18.6953 2.78127 19.2332Z" fill="#505050"/>
<path d="M17.2116 7.34033V13.3043C17.7573 12.7586 18.3888 12.3259 19.1061 12.0063C19.8233 11.6866 20.6029 11.5268 21.4448 11.5268C22.318 11.5268 23.1365 11.6905 23.9006 12.0179C24.6646 12.3454 25.3272 12.7897 25.8886 13.3511C26.4499 13.9124 26.8943 14.5751 27.2217 15.3391C27.5492 16.1031 27.7129 16.9139 27.7129 17.7715C27.7129 18.629 27.5492 19.4359 27.2217 20.1921C26.8943 20.9483 26.4499 21.6071 25.8886 22.1684C25.3272 22.7297 24.6646 23.1741 23.9006 23.5015C23.1365 23.829 22.318 23.9926 21.4448 23.9926C20.6029 23.9926 19.8194 23.8328 19.0944 23.5132C18.3693 23.1935 17.7339 22.7609 17.1882 22.2151V23.712H14.8494V7.34033H17.2116ZM17.4805 19.3852C17.691 19.8842 17.9834 20.3208 18.3576 20.695C18.7318 21.0692 19.1684 21.3655 19.6673 21.5838C20.1663 21.8021 20.7042 21.9112 21.2812 21.9112C21.8425 21.9112 22.3726 21.8021 22.8715 21.5838C23.3705 21.3655 23.8031 21.0693 24.1696 20.695C24.536 20.3208 24.8283 19.8842 25.0466 19.3852C25.2649 18.8863 25.3741 18.3484 25.3741 17.7715C25.3741 17.1945 25.2649 16.6527 25.0466 16.146C24.8283 15.6392 24.536 15.1988 24.1696 14.8245C23.8032 14.4504 23.3705 14.158 22.8715 13.9475C22.3725 13.737 21.8425 13.6317 21.2812 13.6317C20.7199 13.6317 20.1897 13.737 19.6908 13.9475C19.1919 14.158 18.7553 14.4504 18.381 14.8245C18.0069 15.1988 17.7106 15.6392 17.4923 16.146C17.274 16.6527 17.1649 17.1945 17.1649 17.7715C17.1648 18.3484 17.2701 18.8863 17.4805 19.3852Z" fill="#505050"/>
<path d="M29.0457 15.3625C29.3575 14.614 29.7863 13.9553 30.332 13.3862C30.8777 12.8171 31.5248 12.3688 32.2733 12.0414C33.0217 11.7139 33.8325 11.5503 34.7056 11.5503C35.5632 11.5503 36.3584 11.7062 37.0912 12.018C37.824 12.3298 38.4555 12.7625 38.9856 13.3161C39.5158 13.8695 39.929 14.5245 40.2252 15.2806C40.5215 16.0369 40.6696 16.8594 40.6696 17.7481V18.52H30.9635C31.0415 19.0033 31.1974 19.4516 31.4313 19.8647C31.6652 20.2779 31.9575 20.6365 32.3083 20.9406C32.6592 21.2447 33.0568 21.4825 33.5011 21.6539C33.9455 21.8254 34.4171 21.9112 34.9161 21.9112C36.335 21.9112 37.4811 21.3265 38.3542 20.1571L40.0616 21.42C39.4691 22.2152 38.7363 22.8389 37.8631 23.2911C36.9899 23.7432 36.0076 23.9693 34.9162 23.9693C34.0274 23.9693 33.1972 23.8133 32.4253 23.5015C31.6535 23.1897 30.9831 22.7531 30.414 22.1918C29.8449 21.6304 29.3966 20.9717 29.0692 20.2155C28.7417 19.4593 28.578 18.6368 28.578 17.748C28.5779 16.9061 28.7339 16.1109 29.0457 15.3625ZM32.3317 14.4386C31.6691 14.9921 31.2286 15.7289 31.0103 16.6488H38.284C38.0813 15.7289 37.6487 14.9921 36.986 14.4386C36.3233 13.8851 35.5476 13.6084 34.6589 13.6084C33.7701 13.6084 32.9944 13.8851 32.3317 14.4386Z" fill="#505050"/>
<path d="M45.0899 14.7076C44.591 15.2533 44.3415 15.9939 44.3415 16.9295V23.7121H41.9792V11.7841H44.318V13.2576C44.6143 12.7742 45.0002 12.3922 45.4758 12.1115C45.9513 11.8308 46.5165 11.6905 47.1714 11.6905H47.99V13.889H47.0077C46.2281 13.889 45.5888 14.1619 45.0899 14.7076Z" fill="#505050"/>
</g>
</g>
<defs>
<clipPath id="clip0_1084_963">
<rect width="47.9588" height="31.9725" fill="white" transform="translate(0.0214844 0.0136719)"/>
</clipPath>
</defs>
</svg>
