<svg width="66" height="33" viewBox="0 0 66 33" fill="none" xmlns="http://www.w3.org/2000/svg">
<g id="Company logo" clip-path="url(#clip0_1084_941)">
<path id="Vector" fill-rule="evenodd" clip-rule="evenodd" d="M53.4539 14.2342C53.7032 14.6643 53.7847 15.1536 53.8116 15.7036L53.847 16.4368V21.5636L53.8832 22.2975C53.9555 23.4961 54.8394 24.3824 56.0473 24.4578L56.7774 24.4939V16.4368L56.8135 15.7036C56.8435 15.1597 56.9243 14.6612 57.1774 14.2281C57.4353 13.7838 57.8056 13.4152 58.251 13.1593C58.6964 12.9034 59.2013 12.7692 59.715 12.7701C60.2287 12.771 60.7331 12.9071 61.1776 13.1646C61.6221 13.4222 61.991 13.7921 62.2473 14.2373C62.4965 14.6674 62.5742 15.1659 62.6042 15.7036L62.6404 16.4345V21.5636L62.6765 22.2975C62.7519 23.5023 63.629 24.3885 64.8407 24.4578L65.5707 24.4939V15.7036C65.5707 14.1493 64.9534 12.6585 63.8545 11.5592C62.7557 10.4599 61.2652 9.842 59.7108 9.84138C58.8789 9.84051 58.0563 10.0172 57.2981 10.3596C56.5399 10.702 55.8635 11.2023 55.3141 11.827C54.7645 11.2025 54.088 10.7024 53.3299 10.3599C52.5718 10.0173 51.7493 9.84033 50.9174 9.84061C49.7004 9.84061 48.571 10.2099 47.6355 10.8477C47.0647 10.2107 45.7876 9.84061 45.0544 9.84061V24.4939L45.7876 24.4578C47.0139 24.377 47.9001 23.5146 47.9478 22.2975L47.9871 21.5636V16.4368L48.0232 15.7036C48.054 15.1505 48.1309 14.6643 48.381 14.2311C48.6391 13.7872 49.0092 13.4187 49.4543 13.1624C49.8994 12.9062 50.4039 12.7712 50.9174 12.771C51.4314 12.7711 51.9363 12.9063 52.3815 13.1632C52.8267 13.42 53.1965 13.7894 53.4539 14.2342ZM3.29168 24.4585L4.02485 24.4939H15.0146L14.9785 23.7631C14.8792 22.5583 14.0261 21.6782 12.8174 21.5997L12.0843 21.5636H5.49118L14.2815 12.7702L14.2453 12.0401C14.1884 10.823 13.299 9.9437 12.0843 9.87677L11.3511 9.84369L0.361328 9.84061L0.397486 10.5738C0.493652 11.767 1.35914 12.6656 2.55775 12.7348L3.29168 12.771H9.88479L1.09449 21.5643L1.13065 22.2975C1.20297 23.5053 2.07461 24.3801 3.29168 24.4578V24.4585ZM42.1779 11.9855C42.8584 12.6658 43.3982 13.4735 43.7665 14.3625C44.1347 15.2515 44.3243 16.2043 44.3243 17.1665C44.3243 18.1287 44.1347 19.0815 43.7665 19.9705C43.3982 20.8595 42.8584 21.6672 42.1779 22.3475C40.8031 23.7212 38.9392 24.4928 36.9958 24.4928C35.0523 24.4928 33.1884 23.7212 31.8136 22.3475C28.9525 19.4864 28.9525 14.8466 31.8136 11.9855C32.4934 11.3054 33.3006 10.7659 34.189 10.3977C35.0773 10.0296 36.0295 9.84 36.9911 9.83985C37.9543 9.83918 38.9082 10.0284 39.7982 10.3967C40.6882 10.765 41.4969 11.3052 42.1779 11.9863V11.9855ZM40.1046 14.0604C40.9287 14.8851 41.3916 16.0033 41.3916 17.1692C41.3916 18.3351 40.9287 19.4533 40.1046 20.278C39.2799 21.1021 38.1617 21.5651 36.9958 21.5651C35.8298 21.5651 34.7116 21.1021 33.8869 20.278C33.0628 19.4533 32.5999 18.3351 32.5999 17.1692C32.5999 16.0033 33.0628 14.8851 33.8869 14.0604C34.7116 13.2362 35.8298 12.7733 36.9958 12.7733C38.1617 12.7733 39.2799 13.2362 40.1046 14.0604ZM21.6139 9.83985C22.5756 9.8401 23.5278 10.0298 24.4162 10.3981C25.3045 10.7663 26.1117 11.306 26.7914 11.9863C29.6533 14.8466 29.6533 19.4872 26.7914 22.3475C25.4167 23.7212 23.5527 24.4928 21.6093 24.4928C19.6658 24.4928 17.8019 23.7212 16.4271 22.3475C13.566 19.4864 13.566 14.8466 16.4271 11.9855C17.107 11.3054 17.9141 10.7659 18.8025 10.3977C19.6908 10.0296 20.643 9.84 21.6047 9.83985H21.6139ZM24.7181 14.0588C25.5425 14.8836 26.0055 16.0019 26.0055 17.168C26.0055 18.3341 25.5425 19.4525 24.7181 20.2773C23.8934 21.1014 22.7752 21.5643 21.6093 21.5643C20.4434 21.5643 19.3252 21.1014 18.5004 20.2773C17.6763 19.4525 17.2134 18.3343 17.2134 17.1684C17.2134 16.0025 17.6763 14.8843 18.5004 14.0596C19.3252 13.2355 20.4434 12.7726 21.6093 12.7726C22.7752 12.7726 23.8934 13.2355 24.7181 14.0596V14.0588Z" fill="#505050"/>
</g>
<defs>
<clipPath id="clip0_1084_941">
<rect width="65.2773" height="31.9725" fill="white" transform="translate(0.361328 0.513672)"/>
</clipPath>
</defs>
</svg>
