<svg width="48" height="48" viewBox="0 0 48 48" fill="none" xmlns="http://www.w3.org/2000/svg">
<rect width="48" height="48" rx="24" fill="#F6F4F2"/>
<path d="M18.1799 21.8169C18.1799 22.145 18.2154 22.4111 18.2775 22.6062C18.3484 22.8014 18.4371 23.0142 18.5613 23.2448C18.6056 23.3158 18.6234 23.3867 18.6234 23.4488C18.6234 23.5375 18.5701 23.6262 18.4548 23.7149L17.8961 24.0874C17.8163 24.1406 17.7365 24.1672 17.6655 24.1672C17.5768 24.1672 17.4881 24.1228 17.3994 24.043C17.2753 23.91 17.1688 23.7681 17.0801 23.6262C16.9915 23.4754 16.9028 23.3069 16.8052 23.1029C16.1134 23.9189 15.2442 24.3268 14.1977 24.3268C13.4527 24.3268 12.8585 24.114 12.4239 23.6883C11.9893 23.2625 11.7676 22.6949 11.7676 21.9854C11.7676 21.2315 12.0336 20.6196 12.5747 20.1584C13.1157 19.6972 13.8341 19.4666 14.7476 19.4666C15.0491 19.4666 15.3595 19.4932 15.6877 19.5375C16.0159 19.5819 16.3529 19.6528 16.7076 19.7327V19.0852C16.7076 18.4112 16.5657 17.9411 16.2908 17.6662C16.007 17.3912 15.5281 17.2582 14.8451 17.2582C14.5347 17.2582 14.2154 17.2937 13.8873 17.3735C13.5591 17.4533 13.2398 17.5509 12.9294 17.675C12.7875 17.7371 12.6811 17.7726 12.619 17.7903C12.5569 17.8081 12.5126 17.8169 12.4771 17.8169C12.3529 17.8169 12.2909 17.7283 12.2909 17.542V17.1074C12.2909 16.9655 12.3086 16.8591 12.3529 16.797C12.3973 16.7349 12.4771 16.6728 12.6013 16.6107C12.9117 16.4511 13.2842 16.3181 13.7188 16.2116C14.1534 16.0963 14.6145 16.0431 15.1023 16.0431C16.1578 16.0431 16.9294 16.2826 17.426 16.7615C17.9138 17.2405 18.1622 17.9677 18.1622 18.9433V21.8169H18.1799ZM14.5791 23.165C14.8717 23.165 15.1733 23.1118 15.4926 23.0053C15.8119 22.8989 16.0957 22.7038 16.3351 22.4377C16.477 22.2692 16.5835 22.083 16.6367 21.8701C16.6899 21.6572 16.7254 21.4 16.7254 21.0985V20.726C16.4682 20.6639 16.1932 20.6107 15.9094 20.5752C15.6256 20.5397 15.3507 20.522 15.0757 20.522C14.4815 20.522 14.0469 20.6373 13.7542 20.8768C13.4616 21.1162 13.3197 21.4533 13.3197 21.8967C13.3197 22.3136 13.4261 22.624 13.6478 22.8368C13.8607 23.0586 14.1711 23.165 14.5791 23.165V23.165ZM21.7009 24.1228C21.5413 24.1228 21.4349 24.0962 21.3639 24.0342C21.2929 23.9809 21.2309 23.8568 21.1776 23.6883L19.0934 16.8325C19.0402 16.6551 19.0136 16.5398 19.0136 16.4777C19.0136 16.3358 19.0846 16.256 19.2265 16.256H20.0956C20.2641 16.256 20.3794 16.2826 20.4415 16.3447C20.5125 16.3979 20.5657 16.5221 20.6189 16.6906L22.1089 22.5619L23.4925 16.6906C23.5368 16.5132 23.59 16.3979 23.661 16.3447C23.7319 16.2915 23.8561 16.256 24.0157 16.256H24.7253C24.8938 16.256 25.0091 16.2826 25.08 16.3447C25.151 16.3979 25.2131 16.5221 25.2485 16.6906L26.6499 22.6328L28.1842 16.6906C28.2374 16.5132 28.2995 16.3979 28.3616 16.3447C28.4325 16.2915 28.5478 16.256 28.7075 16.256H29.5323C29.6742 16.256 29.754 16.3269 29.754 16.4777C29.754 16.5221 29.7452 16.5664 29.7363 16.6196C29.7274 16.6728 29.7097 16.7438 29.6742 16.8413L27.5368 23.6971C27.4836 23.8745 27.4215 23.9898 27.3505 24.043C27.2796 24.0962 27.1643 24.1317 27.0135 24.1317H26.2508C26.0822 24.1317 25.9669 24.1051 25.896 24.043C25.825 23.9809 25.763 23.8656 25.7275 23.6883L24.3528 17.9677L22.9869 23.6794C22.9426 23.8568 22.8894 23.9721 22.8184 24.0342C22.7475 24.0962 22.6233 24.1228 22.4637 24.1228H21.7009ZM33.0977 24.3623C32.6365 24.3623 32.1753 24.3091 31.7318 24.2027C31.2884 24.0962 30.9425 23.9809 30.7119 23.8479C30.57 23.7681 30.4724 23.6794 30.4369 23.5996C30.4015 23.5197 30.3837 23.4311 30.3837 23.3512V22.8989C30.3837 22.7127 30.4547 22.624 30.5877 22.624C30.6409 22.624 30.6942 22.6328 30.7474 22.6506C30.8006 22.6683 30.8804 22.7038 30.9691 22.7393C31.2706 22.8723 31.5988 22.9787 31.9447 23.0497C32.2995 23.1206 32.6453 23.1561 33.0001 23.1561C33.5589 23.1561 33.9934 23.0586 34.295 22.8634C34.5965 22.6683 34.7562 22.3845 34.7562 22.0209C34.7562 21.7725 34.6764 21.5686 34.5167 21.4C34.3571 21.2315 34.0555 21.0808 33.6209 20.9389L32.3349 20.5397C31.6875 20.3358 31.2086 20.0342 30.9159 19.6351C30.6232 19.2449 30.4724 18.8103 30.4724 18.3491C30.4724 17.9766 30.5522 17.6484 30.7119 17.3646C30.8715 17.0808 31.0844 16.8325 31.3505 16.6374C31.6165 16.4334 31.9181 16.2826 32.2728 16.1762C32.6276 16.0697 33.0001 16.0254 33.3903 16.0254C33.5855 16.0254 33.7895 16.0343 33.9846 16.0609C34.1886 16.0875 34.3748 16.123 34.5611 16.1584C34.7384 16.2028 34.907 16.2471 35.0666 16.3003C35.2262 16.3535 35.3504 16.4068 35.4391 16.46C35.5633 16.5309 35.652 16.6019 35.7052 16.6817C35.7584 16.7527 35.785 16.8502 35.785 16.9744V17.3912C35.785 17.5775 35.714 17.675 35.581 17.675C35.5101 17.675 35.3948 17.6396 35.244 17.5686C34.7384 17.338 34.1708 17.2227 33.5411 17.2227C33.0356 17.2227 32.6365 17.3025 32.3615 17.471C32.0866 17.6396 31.9447 17.8968 31.9447 18.2604C31.9447 18.5087 32.0334 18.7216 32.2108 18.8901C32.3881 19.0586 32.7163 19.2271 33.1864 19.3779L34.4458 19.777C35.0843 19.981 35.5455 20.2648 35.8205 20.6284C36.0954 20.9921 36.2284 21.4089 36.2284 21.8701C36.2284 22.2515 36.1486 22.5974 35.9978 22.8989C35.8382 23.2005 35.6253 23.4665 35.3504 23.6794C35.0755 23.9011 34.7473 24.0608 34.3659 24.1761C33.9668 24.3002 33.55 24.3623 33.0977 24.3623V24.3623Z" fill="#1D1E22"/>
<path fill-rule="evenodd" clip-rule="evenodd" d="M34.7749 28.6702C31.857 30.8254 27.6176 31.9695 23.9724 31.9695C18.8639 31.9695 14.2608 30.0804 10.7842 26.9407C10.5092 26.6924 10.7575 26.3553 11.0857 26.5505C14.8462 28.7323 19.4847 30.0537 24.2828 30.0537C27.5201 30.0537 31.0765 29.3797 34.3492 27.9961C34.837 27.7744 35.2539 28.3154 34.7749 28.6702V28.6702Z" fill="#FF9900"/>
<path fill-rule="evenodd" clip-rule="evenodd" d="M35.9892 27.287C35.6167 26.8081 33.5236 27.0564 32.5746 27.1717C32.2908 27.2072 32.2465 26.9589 32.5037 26.7726C34.1711 25.6019 36.9116 25.9389 37.2309 26.3292C37.5501 26.7283 37.1422 29.4688 35.5812 30.7814C35.3418 30.9854 35.1112 30.879 35.2176 30.6129C35.5724 29.7349 36.3617 27.7571 35.9892 27.287V27.287Z" fill="#FF9900"/>
</svg>
