<svg width="49" height="49" viewBox="0 0 49 49" fill="none" xmlns="http://www.w3.org/2000/svg">
<g clip-path="url(#clip0_1823_14788)">
<path d="M48.832 24.166C48.832 10.9112 38.0869 0.166016 24.832 0.166016C11.5772 0.166016 0.832031 10.9112 0.832031 24.166C0.832031 37.4208 11.5772 48.166 24.832 48.166C38.0869 48.166 48.832 37.4208 48.832 24.166Z" fill="#3178C6"/>
<mask id="mask0_1823_14788" style="mask-type:luminance" maskUnits="userSpaceOnUse" x="12" y="12" width="25" height="25">
<path d="M36.832 12.166H12.832V36.166H36.832V12.166Z" fill="white"/>
</mask>
<g mask="url(#mask0_1823_14788)">
<path d="M34.4882 12.166H15.1758C13.8813 12.166 12.832 13.2153 12.832 14.5098V33.8222C12.832 35.1167 13.8813 36.166 15.1758 36.166H34.4882C35.7827 36.166 36.832 35.1167 36.832 33.8222V14.5098C36.832 13.2153 35.7827 12.166 34.4882 12.166Z" fill="white"/>
<path d="M34.4882 12.166H15.1758C13.8813 12.166 12.832 13.2153 12.832 14.5098V33.8222C12.832 35.1167 13.8813 36.166 15.1758 36.166H34.4882C35.7827 36.166 36.832 35.1167 36.832 33.8222V14.5098C36.832 13.2153 35.7827 12.166 34.4882 12.166Z" fill="white"/>
<path fill-rule="evenodd" clip-rule="evenodd" d="M27.6886 31.2641V33.6107C28.0701 33.8063 28.5213 33.9529 29.0421 34.0507C29.563 34.1485 30.112 34.1973 30.6891 34.1973C31.2515 34.1973 31.7858 34.1436 32.292 34.036C32.7982 33.9285 33.2421 33.7512 33.6236 33.5044C34.005 33.2575 34.307 32.9348 34.5296 32.5364C34.7521 32.1379 34.8633 31.6454 34.8633 31.0588C34.8633 30.6334 34.7998 30.2607 34.6726 29.9405C34.5454 29.6203 34.3621 29.3355 34.1224 29.0862C33.8828 28.8369 33.5954 28.6132 33.2604 28.4152C32.9254 28.2172 32.5476 28.0302 32.127 27.8542C31.8189 27.7271 31.5425 27.6037 31.298 27.4839C31.0534 27.3641 30.8456 27.2419 30.6744 27.1173C30.5032 26.9926 30.3712 26.8606 30.2783 26.7213C30.1854 26.5819 30.1389 26.4243 30.1389 26.2482C30.1389 26.0869 30.1804 25.9415 30.2636 25.8119C30.3468 25.6824 30.4641 25.5712 30.6157 25.4783C30.7674 25.3854 30.9532 25.3133 31.1733 25.2619C31.3934 25.2106 31.6379 25.185 31.9069 25.185C32.1025 25.185 32.3091 25.1996 32.5268 25.2289C32.7444 25.2583 32.9633 25.3035 33.1834 25.3646C33.4035 25.4257 33.6174 25.5027 33.8253 25.5956C34.0331 25.6885 34.2251 25.796 34.4012 25.9183V23.7257C34.0442 23.5888 33.6541 23.4873 33.2311 23.4213C32.808 23.3553 32.3226 23.3223 31.7748 23.3223C31.2173 23.3223 30.6891 23.3823 30.1902 23.502C29.6914 23.6218 29.2525 23.8088 28.8734 24.063C28.4943 24.3172 28.1948 24.6411 27.9747 25.0346C27.7547 25.4282 27.6446 25.8987 27.6446 26.4462C27.6446 27.1453 27.8463 27.7418 28.2498 28.2356C28.6533 28.7293 29.2659 29.1473 30.0875 29.4895C30.4103 29.6215 30.7111 29.751 30.9899 29.8781C31.2686 30.0053 31.5095 30.1373 31.7125 30.2741C31.9154 30.411 32.0756 30.5601 32.193 30.7215C32.3104 30.8828 32.3691 31.0661 32.3691 31.2715C32.3691 31.423 32.3324 31.5635 32.259 31.6931C32.1857 31.8227 32.0744 31.9351 31.9252 32.0304C31.7761 32.1258 31.5902 32.2003 31.3677 32.2541C31.1451 32.3079 30.8847 32.3347 30.5864 32.3347C30.0777 32.3347 29.574 32.2455 29.0751 32.0671C28.5763 31.8887 28.1141 31.621 27.6886 31.2641ZM23.7437 25.4824H26.754V23.5567H18.3633V25.4824H21.3589V34.0567H23.7437V25.4824Z" fill="#3178C6"/>
</g>
</g>
<defs>
<clipPath id="clip0_1823_14788">
<rect width="48" height="48" fill="white" transform="translate(0.832031 0.166016)"/>
</clipPath>
</defs>
</svg>
