<svg width="16" height="15" viewBox="0 0 16 15" fill="none" xmlns="http://www.w3.org/2000/svg">
<g id="Social Icon" clip-path="url(#clip0_397_5021)">
<path id="Subtract" fill-rule="evenodd" clip-rule="evenodd" d="M8 0C12.1421 0 15.5 3.35786 15.5 7.5C15.5 11.2434 12.7574 14.3462 9.17188 14.9089V9.66797H10.9194L11.252 7.5H9.17188V6.09375C9.17188 5.53716 9.42731 4.99421 10.2269 4.92851C10.2802 4.92413 10.3359 4.92188 10.3941 4.92188H11.3398V3.07617C11.3398 3.07617 11.2779 3.0656 11.1713 3.05013C10.9556 3.01882 10.5573 2.96748 10.1205 2.94321C9.96995 2.93484 9.8148 2.92969 9.66099 2.92969C7.94785 2.92969 6.82812 3.96797 6.82812 5.84766V7.5H4.92383V9.66797H6.82812V14.9089C3.24263 14.3462 0.5 11.2434 0.5 7.5C0.5 3.35786 3.85786 0 8 0Z" fill="#1D1E22"/>
</g>
<defs>
<clipPath id="clip0_397_5021">
<rect width="15" height="15" fill="white" transform="translate(0.5)"/>
</clipPath>
</defs>
</svg>
