<svg width="20" height="21" viewBox="0 0 20 21" fill="none" xmlns="http://www.w3.org/2000/svg">
<path id="Vector" d="M12.4948 10.5L19.478 3.51684C19.8094 3.18601 19.9958 2.73707 19.9962 2.26879C19.9966 1.8005 19.811 1.35123 19.4802 1.01981C19.1494 0.688395 18.7004 0.501973 18.2321 0.50156C17.7638 0.501146 17.3146 0.686774 16.9832 1.01761L10 8.00077L3.01684 1.01761C2.68542 0.68619 2.23592 0.5 1.76723 0.5C1.29853 0.5 0.849028 0.68619 0.517609 1.01761C0.18619 1.34903 0 1.79853 0 2.26723C0 2.73592 0.18619 3.18542 0.517609 3.51684L7.50077 10.5L0.517609 17.4832C0.18619 17.8146 0 18.2641 0 18.7328C0 19.2015 0.18619 19.651 0.517609 19.9824C0.849028 20.3138 1.29853 20.5 1.76723 20.5C2.23592 20.5 2.68542 20.3138 3.01684 19.9824L10 12.9992L16.9832 19.9824C17.3146 20.3138 17.7641 20.5 18.2328 20.5C18.7015 20.5 19.151 20.3138 19.4824 19.9824C19.8138 19.651 20 19.2015 20 18.7328C20 18.2641 19.8138 17.8146 19.4824 17.4832L12.4948 10.5Z" fill="#1D1E22"/>
</svg>
