<svg width="64" height="64" viewBox="0 0 64 64" fill="none" xmlns="http://www.w3.org/2000/svg">
<path fill-rule="evenodd" clip-rule="evenodd" d="M5.33398 31.9999C5.33398 17.2723 17.2731 5.33325 32.0007 5.33325C39.0731 5.33325 45.8559 8.14277 50.8569 13.1437C55.8578 18.1447 58.6673 24.9275 58.6673 31.9999C58.6673 46.7275 46.7283 58.6666 32.0007 58.6666C17.2731 58.6666 5.33398 46.7275 5.33398 31.9999ZM27.1208 43.4133L42.6674 33.7066C43.2492 33.334 43.6011 32.6908 43.6011 31.9999C43.6011 31.3091 43.2492 30.6658 42.6674 30.2933L27.0674 20.5866C26.453 20.1992 25.6768 20.1754 25.0398 20.5243C24.4028 20.8733 24.005 21.5402 24.0008 22.2666V41.7333C23.9922 42.4773 24.3973 43.1646 25.0524 43.5173C25.7075 43.8701 26.5043 43.83 27.1208 43.4133Z" fill="white"/>
</svg>
