<svg width="14" height="14" viewBox="0 0 14 14" fill="none" xmlns="http://www.w3.org/2000/svg">
<g id="Social Icon" clip-path="url(#clip0_397_5029)">
<path id="Subtract" fill-rule="evenodd" clip-rule="evenodd" d="M13.2705 2.82008C13.4878 3.03869 13.6437 3.31052 13.7229 3.60836C14.0156 4.70768 14.0156 7.00018 14.0156 7.00018C14.0156 7.00018 14.0156 9.29268 13.7229 10.392C13.6437 10.6898 13.4878 10.9617 13.2705 11.1803C13.0533 11.3989 12.7825 11.5566 12.4852 11.6377C11.3906 11.932 7.01562 11.932 7.01562 11.932C7.01562 11.932 2.64062 11.932 1.54608 11.6377C1.24875 11.5566 0.977926 11.3989 0.760709 11.1803C0.543493 10.9617 0.387503 10.6898 0.308352 10.392C0.015625 9.29268 0.015625 7.00018 0.015625 7.00018C0.015625 7.00018 0.015625 4.70768 0.308352 3.60836C0.387503 3.31052 0.543493 3.03869 0.760709 2.82008C0.977926 2.60146 1.24875 2.44373 1.54608 2.36268C2.64062 2.06836 7.01562 2.06836 7.01562 2.06836C7.01562 2.06836 11.3906 2.06836 12.4852 2.36268C12.7825 2.44373 13.0533 2.60146 13.2705 2.82008ZM9.23721 6.99967L5.57812 4.91797V9.08138L9.23721 6.99967Z" fill="#1D1E22"/>
</g>
<defs>
<clipPath id="clip0_397_5029">
<rect width="14" height="14" fill="white"/>
</clipPath>
</defs>
</svg>
