<svg width="49" height="49" viewBox="0 0 49 49" fill="none" xmlns="http://www.w3.org/2000/svg">
<g clip-path="url(#clip0_1823_14809)">
<path d="M48.5 24.166C48.5 10.9112 37.7548 0.166016 24.5 0.166016C11.2452 0.166016 0.5 10.9112 0.5 24.166C0.5 37.4208 11.2452 48.166 24.5 48.166C37.7548 48.166 48.5 37.4208 48.5 24.166Z" fill="#1D1D1D"/>
<path fill-rule="evenodd" clip-rule="evenodd" d="M28.0226 12.9751C28.2332 13.2353 28.3406 13.5865 28.5554 14.2889L33.2478 29.6325C31.5129 28.7366 29.6268 28.0905 27.6378 27.7419L24.5825 17.4649C24.5325 17.2968 24.3774 17.1814 24.2012 17.1814C24.0246 17.1814 23.8691 17.2974 23.8195 17.4661L20.8013 27.7367C18.803 28.0837 16.9083 28.731 15.166 29.6301L19.8814 14.2853C20.0969 13.5842 20.2046 13.2336 20.4153 12.9738C20.6012 12.7445 20.843 12.5664 21.1178 12.4565C21.4289 12.332 21.7972 12.332 22.5339 12.332H25.9019C26.6394 12.332 27.0082 12.332 27.3197 12.4567C27.5946 12.5669 27.8367 12.7453 28.0226 12.9751Z" fill="white"/>
<path fill-rule="evenodd" clip-rule="evenodd" d="M28.5844 30.3635C27.8108 31.0219 26.2668 31.4709 24.4883 31.4709C22.3055 31.4709 20.4759 30.7945 19.9904 29.8848C19.8169 30.4062 19.7779 31.0029 19.7779 31.384C19.7779 31.384 19.6636 33.2558 20.9714 34.5576C20.9714 33.8816 21.522 33.3337 22.2011 33.3337C23.3651 33.3337 23.3638 34.3445 23.3627 35.1646C23.3627 35.1892 23.3627 35.2136 23.3627 35.2378C23.3627 36.4826 24.127 37.5497 25.2139 37.9994C25.0516 37.667 24.9605 37.2938 24.9605 36.8994C24.9605 35.7122 25.6608 35.2701 26.4745 34.7564C27.122 34.3476 27.8415 33.8935 28.3373 32.9824C28.596 32.5071 28.7429 31.9626 28.7429 31.384C28.7429 31.0282 28.6873 30.6853 28.5844 30.3635Z" fill="#FF5D01"/>
</g>
<defs>
<clipPath id="clip0_1823_14809">
<rect width="48" height="48" fill="white" transform="translate(0.5 0.166016)"/>
</clipPath>
</defs>
</svg>
