<svg width="49" height="49" viewBox="0 0 49 49" fill="none" xmlns="http://www.w3.org/2000/svg">
<path d="M20.3878 37.4982C22.8411 37.4982 24.8323 35.5071 24.8323 33.0538V28.6094H20.3878C17.9345 28.6094 15.9434 30.6005 15.9434 33.0538C15.9434 35.5071 17.9345 37.4982 20.3878 37.4982Z" fill="#0ACF83"/>
<path d="M15.9434 24.1651C15.9434 21.7118 17.9345 19.7207 20.3878 19.7207H24.8323V28.6096H20.3878C17.9345 28.6096 15.9434 26.6185 15.9434 24.1651Z" fill="#A259FF"/>
<path d="M15.9434 15.2765C15.9434 12.8231 17.9345 10.832 20.3878 10.832H24.8323V19.7209H20.3878C17.9345 19.7209 15.9434 17.7298 15.9434 15.2765Z" fill="#F24E1E"/>
<path d="M24.832 10.832H29.2765C31.7298 10.832 33.7209 12.8231 33.7209 15.2765C33.7209 17.7298 31.7298 19.7209 29.2765 19.7209H24.832V10.832Z" fill="#FF7262"/>
<path d="M33.7209 24.1651C33.7209 26.6185 31.7298 28.6096 29.2765 28.6096C26.8231 28.6096 24.832 26.6185 24.832 24.1651C24.832 21.7118 26.8231 19.7207 29.2765 19.7207C31.7298 19.7207 33.7209 21.7118 33.7209 24.1651Z" fill="#1ABCFE"/>
</svg>
