<svg width="49" height="49" viewBox="0 0 49 49" fill="none" xmlns="http://www.w3.org/2000/svg">
<rect x="0.5" y="0.166016" width="48" height="48" rx="24" fill="white"/>
<path fill-rule="evenodd" clip-rule="evenodd" d="M35.617 34.8603C35.617 36.9796 30.7073 38.6873 24.6542 38.6873C18.601 38.6873 13.6914 36.9644 13.6914 34.8603C13.6914 32.7409 18.601 31.0332 24.6542 31.0332C30.7073 31.0332 35.617 32.7409 35.617 34.8603Z" fill="#9EDCF2"/>
<mask id="mask0_1823_14831" style="mask-type:luminance" maskUnits="userSpaceOnUse" x="18" y="33" width="13" height="11">
<path fill-rule="evenodd" clip-rule="evenodd" d="M19.9421 41.7206C20.1861 42.8642 20.7807 43.5351 21.3753 43.9315H27.642C28.4043 43.4131 29.1819 42.4373 29.1819 40.6076V35.8809C29.1819 35.8809 29.2734 34.7069 30.356 34.3257C30.356 34.3257 30.9811 33.8835 30.3102 33.6396C30.3102 33.6396 27.337 33.3956 27.337 35.8352V39.4335C27.337 39.4335 27.459 40.7601 26.7576 41.309V36.8568C26.7576 36.8568 26.8034 35.4388 27.5352 34.9051C27.5352 34.9051 28.0231 34.036 26.9558 34.2647C26.9558 34.2647 24.9127 34.5544 24.8212 36.9482L24.7755 41.5224H24.2876L24.2418 36.9482C24.1503 34.5697 22.1072 34.2647 22.1072 34.2647C21.0399 34.0208 21.5278 34.9051 21.5278 34.9051C22.2597 35.4388 22.3054 36.8568 22.3054 36.8568V41.3547C21.6041 40.8515 21.726 39.4335 21.726 39.4335V35.8352C21.726 33.3956 18.7528 33.6396 18.7528 33.6396C18.0667 33.8835 18.7071 34.3257 18.7071 34.3257C19.7744 34.7221 19.8811 35.8809 19.8811 35.8809V39.1896L19.9421 41.7206Z" fill="white"/>
</mask>
<g mask="url(#mask0_1823_14831)">
<path fill-rule="evenodd" clip-rule="evenodd" d="M35.617 34.8603C35.617 36.9796 30.7073 38.6873 24.6542 38.6873C18.601 38.6873 13.6914 36.9644 13.6914 34.8603C13.6914 32.7409 18.601 31.0332 24.6542 31.0332C30.7073 31.0332 35.617 32.7409 35.617 34.8603Z" fill="#7DBCE7"/>
</g>
<path fill-rule="evenodd" clip-rule="evenodd" d="M12.1354 23.5918L11.8152 24.6896C11.8152 24.6896 11.739 25.086 12.1049 25.1623C12.5013 25.147 12.4708 24.7811 12.4403 24.6744L12.1354 23.5918Z" fill="#9EDCF2"/>
<path fill-rule="evenodd" clip-rule="evenodd" d="M43.9868 18.9719L44.0173 18.8347C40.8002 18.1943 37.5068 18.1791 35.5094 18.2706C35.8296 17.0965 35.9363 15.7243 35.9363 14.2148C35.9363 12.0344 35.1129 10.2963 33.8017 8.98499C34.0304 8.23788 34.3353 6.57592 33.4967 4.45656C33.4967 4.45656 32.0025 3.98389 28.6024 6.25573C27.2759 5.92029 25.8579 5.75257 24.4399 5.75257C22.8847 5.75257 21.3142 5.95079 19.8352 6.34722C16.3283 3.9534 14.7884 4.44131 14.7884 4.44131C13.782 6.95711 14.4072 8.83252 14.5901 9.28994C13.4009 10.5707 12.6842 12.2022 12.6842 14.1996C12.6842 15.709 12.852 17.066 13.2789 18.2401C11.2662 18.1638 8.09481 18.1943 4.98438 18.8195L5.01487 18.9567C8.12531 18.3316 11.3272 18.3163 13.3246 18.3925C13.4161 18.6365 13.5228 18.8805 13.6296 19.1092C11.6474 19.1702 8.27778 19.4294 5.04536 20.3442L5.09111 20.4814C8.35402 19.5666 11.7542 19.3226 13.7211 19.2616C14.9103 21.4572 17.2279 22.8905 21.3752 23.3327C20.7805 23.7291 20.1859 24.4 19.9419 25.5435C19.1338 25.9247 16.6028 26.87 15.0781 24.2475C15.0781 24.2475 14.2242 22.6923 12.5928 22.5703C12.5928 22.5703 11.007 22.5398 12.486 23.5614C12.486 23.5614 13.5381 24.0645 14.27 25.9399C14.27 25.9399 15.2305 29.1419 19.82 28.105V31.3832C19.82 31.3832 19.7285 32.5572 18.6459 32.9384C18.6459 32.9384 18.0055 33.3806 18.6917 33.6246C18.6917 33.6246 21.6649 33.8685 21.6649 31.4289V27.8306C21.6649 27.8306 21.5429 26.3974 22.2443 25.9094V31.8254C22.2443 31.8254 22.1985 33.2434 21.4667 33.777C21.4667 33.777 20.9787 34.6461 22.0461 34.4174C22.0461 34.4174 24.0892 34.1277 24.1807 31.7339L24.2264 25.7417H24.7143L24.7601 31.7339C24.8515 34.1125 26.8947 34.4174 26.8947 34.4174C27.962 34.6614 27.4741 33.777 27.4741 33.777C26.7422 33.2434 26.6965 31.8254 26.6965 31.8254V25.9552C27.3978 26.5041 27.2759 27.8306 27.2759 27.8306V31.4289C27.2759 33.8685 30.2491 33.6246 30.2491 33.6246C30.9352 33.3806 30.2948 32.9384 30.2948 32.9384C29.2275 32.542 29.1208 31.3832 29.1208 31.3832V26.6566C29.1208 24.8116 28.3432 23.8358 27.5808 23.3327C32.0025 22.8905 34.1219 21.4725 35.0977 19.2464C37.0341 19.2921 40.5257 19.5361 43.8496 20.4814L43.8954 20.3442C40.5867 19.4141 37.1256 19.1702 35.1587 19.1092C35.2502 18.8805 35.3264 18.6517 35.4026 18.4078C37.4458 18.3316 40.7544 18.3316 43.9868 18.9719Z" fill="#010101"/>
<path fill-rule="evenodd" clip-rule="evenodd" d="M31.6072 14.1084C32.5525 14.9775 33.1167 16.0143 33.1167 17.1274C33.1167 22.3724 29.2134 22.5097 24.3953 22.5097C19.5771 22.5097 15.6738 21.7778 15.6738 17.1274C15.6738 16.0143 16.2227 14.9775 17.1681 14.1237C18.7385 12.6904 21.3915 13.4528 24.3953 13.4528C27.399 13.4528 30.0367 12.6752 31.6072 14.1084Z" fill="#F5CCB3"/>
<path fill-rule="evenodd" clip-rule="evenodd" d="M21.498 17.4023C21.498 18.8508 20.6899 20.0096 19.6836 20.0096C18.6772 20.0096 17.8691 18.8356 17.8691 17.4023C17.8691 15.9539 18.6772 14.7951 19.6836 14.7951C20.6899 14.7798 21.498 15.9539 21.498 17.4023Z" fill="white"/>
<path fill-rule="evenodd" clip-rule="evenodd" d="M20.9188 17.4315C20.9188 18.3921 20.3699 19.1697 19.7143 19.1697C19.0434 19.1697 18.5098 18.3921 18.5098 17.4315C18.5098 16.471 19.0587 15.6934 19.7143 15.6934C20.3699 15.6934 20.9188 16.471 20.9188 17.4315Z" fill="#AF5C51"/>
<path fill-rule="evenodd" clip-rule="evenodd" d="M31.2402 17.4023C31.2402 18.8508 30.4321 20.0096 29.4258 20.0096C28.4194 20.0096 27.6113 18.8356 27.6113 17.4023C27.6113 15.9539 28.4194 14.7951 29.4258 14.7951C30.4168 14.7798 31.2402 15.9539 31.2402 17.4023Z" fill="white"/>
<path fill-rule="evenodd" clip-rule="evenodd" d="M30.6454 17.4315C30.6454 18.3921 30.0965 19.1697 29.4409 19.1697C28.77 19.1697 28.2363 18.3921 28.2363 17.4315C28.2363 16.471 28.7852 15.6934 29.4409 15.6934C30.1117 15.6934 30.6454 16.471 30.6454 17.4315Z" fill="#AF5C51"/>
<path fill-rule="evenodd" clip-rule="evenodd" d="M24.8816 19.7191C24.8816 19.9631 24.6834 20.1766 24.4242 20.1766C24.1803 20.1766 23.9668 19.9783 23.9668 19.7191C23.9668 19.4599 24.165 19.2617 24.4242 19.2617C24.6682 19.2617 24.8816 19.4599 24.8816 19.7191Z" fill="#AF5C51"/>
<path fill-rule="evenodd" clip-rule="evenodd" d="M23.3728 20.8624C23.3423 20.7862 23.3881 20.71 23.4643 20.6795C23.5406 20.649 23.6168 20.6947 23.6473 20.771C23.7693 21.1064 24.0742 21.3199 24.4249 21.3199C24.7756 21.3199 25.0805 21.0911 25.2025 20.771C25.233 20.6947 25.3092 20.649 25.3855 20.6795C25.4617 20.71 25.5074 20.7862 25.477 20.8624C25.3245 21.3046 24.8976 21.6096 24.4249 21.6096C23.9522 21.6096 23.5253 21.3046 23.3728 20.8624Z" fill="#AF5C51"/>
<path fill-rule="evenodd" clip-rule="evenodd" d="M13.2947 22.9361C13.2947 23.0581 13.1575 23.1496 12.9745 23.1496C12.8068 23.1496 12.6543 23.0581 12.6543 22.9361C12.6543 22.8141 12.7915 22.7227 12.9745 22.7227C13.1575 22.7227 13.2947 22.8141 13.2947 22.9361Z" fill="#C4E5D9"/>
<path fill-rule="evenodd" clip-rule="evenodd" d="M14.1794 23.4244C14.1794 23.5464 14.0422 23.6379 13.8593 23.6379C13.6915 23.6379 13.5391 23.5464 13.5391 23.4244C13.5391 23.3024 13.6763 23.2109 13.8593 23.2109C14.0422 23.2109 14.1794 23.3024 14.1794 23.4244Z" fill="#C4E5D9"/>
<path fill-rule="evenodd" clip-rule="evenodd" d="M14.7127 24.0645C14.7127 24.1865 14.5754 24.278 14.3925 24.278C14.2247 24.278 14.0723 24.1865 14.0723 24.0645C14.0723 23.9425 14.2095 23.8511 14.3925 23.8511C14.5754 23.8358 14.7127 23.9425 14.7127 24.0645Z" fill="#C4E5D9"/>
<path fill-rule="evenodd" clip-rule="evenodd" d="M15.2009 24.7969C15.2009 24.9189 15.0637 25.0104 14.8807 25.0104C14.713 25.0104 14.5605 24.9189 14.5605 24.7969C14.5605 24.675 14.6978 24.5835 14.8807 24.5835C15.0637 24.5682 15.2009 24.675 15.2009 24.7969Z" fill="#C4E5D9"/>
<path fill-rule="evenodd" clip-rule="evenodd" d="M15.7341 25.4674C15.7341 25.5893 15.5969 25.6808 15.4139 25.6808C15.2462 25.6808 15.0938 25.5893 15.0938 25.4674C15.0938 25.3454 15.231 25.2539 15.4139 25.2539C15.5969 25.2539 15.7341 25.3454 15.7341 25.4674Z" fill="#C4E5D9"/>
<path fill-rule="evenodd" clip-rule="evenodd" d="M16.4646 26.0626C16.4646 26.1846 16.3274 26.276 16.1444 26.276C15.9767 26.276 15.8242 26.1846 15.8242 26.0626C15.8242 25.9406 15.9614 25.8491 16.1444 25.8491C16.3274 25.8339 16.4646 25.9406 16.4646 26.0626Z" fill="#C4E5D9"/>
<path fill-rule="evenodd" clip-rule="evenodd" d="M17.488 26.4439C17.488 26.5659 17.3508 26.6574 17.1678 26.6574C17.0001 26.6574 16.8477 26.5659 16.8477 26.4439C16.8477 26.322 16.9849 26.2305 17.1678 26.2305C17.3508 26.2305 17.488 26.322 17.488 26.4439Z" fill="#C4E5D9"/>
<path fill-rule="evenodd" clip-rule="evenodd" d="M18.5095 26.4439C18.5095 26.5659 18.3723 26.6574 18.1893 26.6574C18.0216 26.6574 17.8691 26.5659 17.8691 26.4439C17.8691 26.322 18.0064 26.2305 18.1893 26.2305C18.3723 26.2305 18.5095 26.322 18.5095 26.4439Z" fill="#C4E5D9"/>
<path fill-rule="evenodd" clip-rule="evenodd" d="M19.5447 26.276C19.5447 26.3979 19.4075 26.4894 19.2245 26.4894C19.0568 26.4894 18.9043 26.3979 18.9043 26.276C18.9043 26.154 19.0415 26.0625 19.2245 26.0625C19.3922 26.0625 19.5447 26.154 19.5447 26.276Z" fill="#C4E5D9"/>
</svg>
