<svg width="49" height="49" viewBox="0 0 49 49" fill="none" xmlns="http://www.w3.org/2000/svg">
<g clip-path="url(#clip0_1823_14777)">
<path d="M48.5 24.166C48.5 10.9112 37.7548 0.166016 24.5 0.166016C11.2452 0.166016 0.5 10.9112 0.5 24.166C0.5 37.4208 11.2452 48.166 24.5 48.166C37.7548 48.166 48.5 37.4208 48.5 24.166Z" fill="white"/>
<mask id="mask0_1823_14777" style="mask-type:luminance" maskUnits="userSpaceOnUse" x="12" y="12" width="25" height="25">
<path d="M36.5 12.166H12.5V36.166H36.5V12.166Z" fill="white"/>
</mask>
<g mask="url(#mask0_1823_14777)">
<path d="M34.1562 12.166H14.8438C13.5493 12.166 12.5 13.2153 12.5 14.5098V33.8222C12.5 35.1167 13.5493 36.166 14.8438 36.166H34.1562C35.4507 36.166 36.5 35.1167 36.5 33.8222V14.5098C36.5 13.2153 35.4507 12.166 34.1562 12.166Z" fill="white"/>
<path d="M34.1562 12.166H14.8438C13.5493 12.166 12.5 13.2153 12.5 14.5098V33.8222C12.5 35.1167 13.5493 36.166 14.8438 36.166H34.1562C35.4507 36.166 36.5 35.1167 36.5 33.8222V14.5098C36.5 13.2153 35.4507 12.166 34.1562 12.166Z" fill="#F7DF1E"/>
<path d="M28.2203 30.993C28.7246 31.7577 29.3807 32.3198 30.5411 32.3198C31.516 32.3198 32.1387 31.8673 32.1387 31.2421C32.1387 30.4929 31.4989 30.2275 30.4259 29.7916L29.8377 29.5572C28.14 28.8855 27.0121 28.044 27.0121 26.2651C27.0121 24.6264 28.3566 23.3789 30.4577 23.3789C31.9535 23.3789 33.0289 23.8624 33.8038 25.1283L31.9718 26.2208C31.5684 25.5491 31.1333 25.2844 30.4577 25.2844C29.7686 25.2844 29.3318 25.6904 29.3318 26.2208C29.3318 26.8763 29.769 27.1416 30.7784 27.5476L31.3665 27.7816C33.3655 28.5777 34.4941 29.3893 34.4941 31.214C34.4941 33.1812 32.8302 34.2589 30.5956 34.2589C28.4106 34.2589 26.999 33.2919 26.3083 32.0245L28.2203 30.993ZM19.9093 31.1823C20.2788 31.7913 20.615 32.3061 21.4234 32.3061C22.1963 32.3061 22.684 32.0253 22.684 30.9332V23.5037H25.0366V30.9627C25.0366 33.2251 23.6083 34.2548 21.5235 34.2548C19.6398 34.2548 18.5489 33.3495 17.9941 32.2591L19.9093 31.1823Z" fill="black"/>
</g>
</g>
<defs>
<clipPath id="clip0_1823_14777">
<rect width="48" height="48" fill="white" transform="translate(0.5 0.166016)"/>
</clipPath>
</defs>
</svg>
