<svg width="18" height="19" viewBox="0 0 18 19" fill="none" xmlns="http://www.w3.org/2000/svg">
<g clip-path="url(#clip0_1788_6759)">
<path d="M9.35571 1.41516L10.1198 2.47794C10.472 2.96779 11.112 3.15572 11.6731 2.93403L12.8905 2.45307C13.1696 2.3428 13.4746 2.53881 13.4903 2.83851L13.5585 4.14566C13.5899 4.74817 14.0267 5.25225 14.6186 5.36917L15.9028 5.6227C16.1972 5.68083 16.3478 6.01062 16.1989 6.27118L15.5496 7.40773C15.2503 7.93157 15.3453 8.59182 15.78 9.01013L16.7232 9.91772C16.9395 10.1258 16.8879 10.4846 16.6218 10.6234L15.4611 11.2284C14.926 11.5073 14.649 12.1141 14.7885 12.701L15.0914 13.9745C15.1608 14.2664 14.9234 14.5404 14.6245 14.5133L13.3209 14.3948C12.7201 14.3401 12.159 14.7008 11.959 15.27L11.5253 16.505C11.4259 16.7881 11.078 16.8903 10.8413 16.7058L9.80869 15.9014C9.33279 15.5306 8.66574 15.5306 8.18983 15.9014L7.15725 16.7058C6.92053 16.8903 6.57264 16.7881 6.4732 16.505L6.03949 15.27C5.83956 14.7008 5.27844 14.3401 4.67759 14.3948L3.37402 14.5133C3.07516 14.5404 2.83774 14.2664 2.90716 13.9745L3.20998 12.701C3.34955 12.1141 3.07246 11.5073 2.53746 11.2284L1.37676 10.6234C1.11066 10.4846 1.05906 10.1258 1.2753 9.91772L2.21852 9.01013C2.65327 8.59182 2.7482 7.93157 2.44891 7.40773L1.7996 6.27118C1.65073 6.01062 1.80134 5.68083 2.09575 5.6227L3.3799 5.36917C3.9718 5.25225 4.4086 4.74817 4.44004 4.14566L4.50826 2.83851C4.52389 2.53881 4.82893 2.3428 5.10801 2.45307L6.32538 2.93403C6.8865 3.15572 7.52651 2.96779 7.8787 2.47794L8.64282 1.41516C8.81799 1.17151 9.18054 1.17151 9.35571 1.41516Z" stroke="white" stroke-width="0.878049"/>
<path d="M11.7072 7.18945L7.6828 11.2139L5.85352 9.38458" stroke="white" stroke-width="1.09756" stroke-linecap="round" stroke-linejoin="round"/>
</g>
<defs>
<clipPath id="clip0_1788_6759">
<rect width="18" height="18" fill="white" transform="translate(0 0.166016)"/>
</clipPath>
</defs>
</svg>
