<svg width="49" height="49" viewBox="0 0 49 49" fill="none" xmlns="http://www.w3.org/2000/svg">
<g clip-path="url(#clip0_1826_16192)">
<path fill-rule="evenodd" clip-rule="evenodd" d="M19.3549 17.7359C18.8134 17.7359 18.3746 18.1748 18.3746 18.7162V29.6199C18.3746 30.1613 18.8134 30.6002 19.3549 30.6002H30.2585C30.7999 30.6002 31.2389 30.1613 31.2389 29.6199V18.7162C31.2389 18.1748 30.7999 17.7359 30.2585 17.7359H19.3549ZM11.4898 9.95312C10.9938 9.95312 10.5918 10.3551 10.5918 10.8511V37.485C10.5918 37.981 10.9938 38.383 11.4898 38.383H38.1237C38.6196 38.383 39.0216 37.981 39.0216 37.485V10.8511C39.0216 10.3551 38.6196 9.95312 38.1237 9.95312H11.4898Z" fill="white"/>
<path fill-rule="evenodd" clip-rule="evenodd" d="M0.832031 24.6139V41.9311C0.832031 43.0931 1.15624 44.1792 1.71912 45.1041L7.96267 38.8606V24.6139H0.832031ZM3.67902 47.0991L9.86954 40.9084C9.91269 40.9111 9.95617 40.9125 10 40.9125H23.6408V48.0432H6.94398C5.74337 48.0432 4.62357 47.6968 3.67902 47.0991ZM26.4372 48.0432H42.5972C45.9727 48.0432 48.7092 45.3067 48.7092 41.9311V6.27797C48.7092 2.90244 45.9727 0.166016 42.5972 0.166016H25.2799V7.29665H39.5412C40.6664 7.29665 41.5785 8.20879 41.5785 9.33402V38.8752C41.5785 40.0004 40.6664 40.9125 39.5412 40.9125H26.4372V48.0432Z" fill="url(#paint0_linear_1826_16192)"/>
</g>
<defs>
<linearGradient id="paint0_linear_1826_16192" x1="27.1246" y1="3.53238" x2="3.56072" y2="26.9364" gradientUnits="userSpaceOnUse">
<stop stop-color="#0096FF"/>
<stop offset="1" stop-color="#FF1E56"/>
</linearGradient>
<clipPath id="clip0_1826_16192">
<rect width="48" height="48" fill="white" transform="translate(0.832031 0.166016)"/>
</clipPath>
</defs>
</svg>
