<svg width="49" height="49" viewBox="0 0 49 49" fill="none" xmlns="http://www.w3.org/2000/svg">
<rect x="0.332031" y="0.5" width="48" height="48" rx="24" fill="white"/>
<path d="M19.8878 37.8322C22.3411 37.8322 24.3323 35.8411 24.3323 33.3878V28.9434H19.8878C17.4345 28.9434 15.4434 30.9345 15.4434 33.3878C15.4434 35.8411 17.4345 37.8322 19.8878 37.8322Z" fill="#0ACF83"/>
<path d="M15.4434 24.4991C15.4434 22.0458 17.4345 20.0547 19.8878 20.0547H24.3323V28.9436H19.8878C17.4345 28.9436 15.4434 26.9525 15.4434 24.4991Z" fill="#A259FF"/>
<path d="M15.4434 15.6105C15.4434 13.1571 17.4345 11.166 19.8878 11.166H24.3323V20.0549H19.8878C17.4345 20.0549 15.4434 18.0638 15.4434 15.6105Z" fill="#F24E1E"/>
<path d="M24.332 11.166H28.7765C31.2298 11.166 33.2209 13.1571 33.2209 15.6105C33.2209 18.0638 31.2298 20.0549 28.7765 20.0549H24.332V11.166Z" fill="#FF7262"/>
<path d="M33.2209 24.4991C33.2209 26.9525 31.2298 28.9436 28.7765 28.9436C26.3231 28.9436 24.332 26.9525 24.332 24.4991C24.332 22.0458 26.3231 20.0547 28.7765 20.0547C31.2298 20.0547 33.2209 22.0458 33.2209 24.4991Z" fill="#1ABCFE"/>
</svg>
