<svg width="49" height="49" viewBox="0 0 49 49" fill="none" xmlns="http://www.w3.org/2000/svg">
<path d="M23.076 11.1165C23.7372 10.7381 24.5984 10.7363 25.259 11.1165C28.5827 12.9945 31.9073 14.8696 35.2304 16.7488C35.8554 17.1009 36.2735 17.7964 36.2671 18.5166V29.8155C36.2718 30.5655 35.8124 31.2778 35.153 31.6218C31.8403 33.4895 28.5293 35.3595 25.2172 37.2271C24.5423 37.613 23.6638 37.5833 23.01 37.1658C22.0168 36.59 21.0219 36.0172 20.0287 35.442C19.8257 35.321 19.597 35.2247 19.4536 35.0279C19.5803 34.8571 19.8068 34.8359 19.9909 34.7613C20.4055 34.6295 20.7862 34.4179 21.1671 34.2126C21.2634 34.1466 21.381 34.1719 21.4733 34.2309C22.3225 34.7178 23.1643 35.2189 24.0164 35.7012C24.1982 35.8061 24.3822 35.6668 24.5376 35.5802C27.7884 33.7429 31.0432 31.9126 34.2934 30.0747C34.4138 30.0168 34.4804 29.889 34.4706 29.757C34.4729 26.0298 34.4712 22.3018 34.4717 18.5746C34.4855 18.4249 34.3989 18.2873 34.2635 18.226C30.9623 16.3669 27.6628 14.5049 24.3622 12.6453C24.305 12.606 24.2373 12.5849 24.1679 12.5848C24.0985 12.5847 24.0307 12.6056 23.9734 12.6448C20.6727 14.5049 17.3738 16.3686 14.0732 18.2276C13.9383 18.289 13.8478 18.4243 13.8638 18.5746C13.8644 22.3018 13.8638 26.0298 13.8638 29.7576C13.8581 29.822 13.8722 29.8865 13.9043 29.9426C13.9364 29.9987 13.9849 30.0436 14.0433 30.0713C14.9241 30.5708 15.8061 31.0667 16.6874 31.5645C17.1839 31.8317 17.7936 31.9905 18.3406 31.7858C18.8234 31.6126 19.1618 31.12 19.1526 30.6074C19.1571 26.9019 19.1503 23.1958 19.156 19.4909C19.1439 19.3264 19.3 19.1905 19.4599 19.206C19.8831 19.2031 20.3069 19.2003 20.7301 19.2071C20.9067 19.2031 21.0283 19.3802 21.0065 19.546C21.0048 23.2749 21.011 27.004 21.0036 30.733C21.0048 31.7268 20.5965 32.8082 19.6772 33.2944C18.5447 33.8811 17.145 33.7567 16.0262 33.1941C15.0577 32.7107 14.1334 32.1402 13.182 31.6223C12.5209 31.2801 12.0638 30.5651 12.0684 29.8156V18.5166C12.0615 17.7815 12.4962 17.0733 13.1407 16.7264C16.4528 14.8572 19.7644 12.9866 23.076 11.1165Z" fill="#8CC84B"/>
<path d="M25.966 18.9431C27.4105 18.8501 28.957 18.888 30.2569 19.5996C31.2634 20.145 31.8213 21.2895 31.8391 22.4076C31.811 22.5585 31.6533 22.6417 31.5093 22.6313C31.0902 22.6307 30.671 22.637 30.2519 22.6285C30.0741 22.6353 29.9708 22.4714 29.9484 22.3142C29.828 21.7792 29.5362 21.2493 29.0327 20.9913C28.2597 20.6043 27.3634 20.6237 26.5205 20.6318C25.9052 20.6645 25.2435 20.7178 24.7222 21.0796C24.322 21.3537 24.2004 21.907 24.3432 22.3527C24.4779 22.6726 24.8473 22.7759 25.1495 22.871C26.8904 23.3263 28.7351 23.281 30.4428 23.8802C31.1498 24.1245 31.8414 24.5994 32.0834 25.3396C32.3999 26.3317 32.2612 27.5175 31.5553 28.314C30.9829 28.9694 30.1492 29.3261 29.3177 29.5199C28.2115 29.7665 27.0636 29.7728 25.9402 29.6633C24.8839 29.5429 23.7847 29.2654 22.9693 28.5456C22.2719 27.9402 21.9314 26.9968 21.9652 26.0863C21.9733 25.9325 22.1264 25.8253 22.2737 25.8379C22.6957 25.8345 23.1178 25.8334 23.5399 25.8385C23.7084 25.8264 23.8334 25.9721 23.8421 26.131C23.9199 26.6407 24.1115 27.1757 24.556 27.4779C25.4138 28.0314 26.4901 27.9935 27.4724 28.0089C28.2861 27.9729 29.1996 27.9619 29.8636 27.4241C30.214 27.1173 30.3178 26.6041 30.2231 26.1625C30.1205 25.7898 29.7306 25.6161 29.3957 25.5025C27.6771 24.9588 25.8117 25.1561 24.1098 24.5413C23.4189 24.2972 22.7507 23.8355 22.4853 23.1257C22.1149 22.121 22.2846 20.8784 23.0644 20.1088C23.8248 19.3433 24.9224 19.0485 25.966 18.943V18.9431Z" fill="#8CC84B"/>
</svg>
